<?xml version="1.0" encoding="utf-8"?>
<!-- Generator: Adobe Illustrator 24.1.2, SVG Export Plug-In . SVG Version: 6.00 Build 0)  -->
<svg version="1.1" xmlns="http://www.w3.org/2000/svg" xmlns:xlink="http://www.w3.org/1999/xlink" x="0px" y="0px"
	 viewBox="0 0 1080 1080" style="enable-background:new 0 0 1080 1080;" xml:space="preserve">
<style type="text/css">
	.st0{fill:#5F536D;}
	.st1{fill:#FFFFFF;}
	.st2{fill:#6FC3BD;}
	.st3{display:none;}
</style>
<g id="Ebene_1">
	<g>
		<circle class="st0" cx="540.3" cy="539.7" r="529.2"/>
		<path class="st1" d="M540.3,1079.5c-72.9,0-143.5-14.3-210.1-42.4c-64.3-27.2-122-66.1-171.6-115.7
			C109,871.8,70.1,814.1,42.9,749.8C14.8,683.3,0.5,612.6,0.5,539.7s14.3-143.5,42.4-210.1c27.2-64.3,66.1-122,115.7-171.6
			c49.6-49.6,107.3-88.5,171.6-115.7C396.7,14.3,467.4,0,540.3,0s143.5,14.3,210.1,42.4c64.3,27.2,122,66.1,171.6,115.7
			c49.6,49.6,88.5,107.3,115.7,171.6c28.1,66.6,42.4,137.2,42.4,210.1s-14.3,143.5-42.4,210.1c-27.2,64.3-66.1,122-115.7,171.6
			c-49.6,49.6-107.3,88.5-171.6,115.7C683.8,1065.2,613.1,1079.5,540.3,1079.5z M540.3,21.2c-70,0-137.9,13.7-201.9,40.7
			C276.6,88,221.2,125.4,173.6,173.1s-85,103.1-111.1,164.8c-27,63.9-40.7,131.8-40.7,201.9s13.7,137.9,40.7,201.9
			c26.1,61.8,63.5,117.2,111.1,164.8s103.1,85,164.8,111.1c63.9,27,131.8,40.7,201.9,40.7c70,0,137.9-13.7,201.9-40.7
			c61.8-26.1,117.2-63.5,164.8-111.1s85-103.1,111.1-164.8c27-63.9,40.7-131.8,40.7-201.9s-13.7-137.9-40.7-201.9
			c-26.1-61.8-63.5-117.2-111.1-164.8S803.9,88,742.1,61.9C678.2,34.9,610.3,21.2,540.3,21.2z"/>
	</g>
	<g>
		<path class="st2" d="M210.8,560.1c-0.1-2.1-0.2-4.1-0.2-6.1L210.8,560.1z"/>
		<path class="st2" d="M527.5,228.8v129.1H413.6c19.5-58.7,48-103.9,81-126.1C505.5,230.2,516.4,229.2,527.5,228.8z"/>
		<path class="st2" d="M527.5,524.7h-141c1-50.6,8-98.7,19.4-141.1h121.6V524.7z"/>
		<path class="st2" d="M527.5,691.6H405.9c-11.5-42.4-18.4-90.5-19.4-141.1h141V691.6z"/>
		<path class="st2" d="M667.1,357.9H553.2V228.8c11.1,0.4,22.1,1.5,33,3.1C619.1,254.1,647.6,299.2,667.1,357.9z"/>
		<path class="st2" d="M674.8,691.6H553.2V550.4h141C693.2,601.1,686.2,649.1,674.8,691.6z"/>
		<path class="st2" d="M694.2,524.7h-141V383.6h121.6C686.2,426,693.2,474.1,694.2,524.7z"/>
		<path class="st2" d="M545.3,875L545.3,875C545.3,875,545.3,875,545.3,875L545.3,875z"/>
	</g>
	<path class="st2" d="M773.6,304.1c-62.4-62.4-145.3-96.7-233.5-96.7c-88.2,0-171.1,34.4-233.5,96.7
		c-62.4,62.4-96.7,145.3-96.7,233.5c0,8.9,0.4,17.7,1,26.4l12,319.4c0,2.8,1.1,5.4,3.2,7.3c1.7,1.5,6.1,4.5,11.3,1.4
		c8.9-3.6,26.3-16.8,67.3-28.1c2.8-0.8,5.6-1.5,8.5-2.2c31.8-7.9,66.3-12.6,102.6-13.8c0.3,0,7-0.6,15.8,1.7
		c34.4,11.9,71,18.2,108.5,18.2c88.2,0,171.1-34.4,233.5-96.7c62.4-62.4,96.7-145.3,96.7-233.5C870.3,449.4,836,366.4,773.6,304.1z
		 M210.5,554l0.2,6.1C210.7,558,210.6,556,210.5,554z M532.6,860L532.6,860L532.6,860C532.7,860,532.6,860,532.6,860z M808.2,691.6
		c-5.1,8.8-10.6,17.4-16.6,25.7h-96.8c-14.3,46.3-34,85.2-57.7,113.8c-16.5,5.4-33.5,9.5-50.9,12.1c32.9-22.2,61.4-67.3,80.8-125.9
		H553.2v129c-4.4,0.2-8.7,0.3-13.1,0.3c-4.2,0-8.4-0.1-12.6-0.3v-129H413.7c19.5,58.7,48,103.9,81,126c-17.4-2.5-34.4-6.5-50.9-11.9
		c-23.7-28.6-43.5-67.6-57.9-114.1h-97.3c-6-8.3-11.5-16.9-16.6-25.7h106.7c-10.7-42.6-17-90.3-17.9-141.1H231.3
		c-0.2-4.3-0.3-8.6-0.3-12.9s0.1-8.6,0.3-12.9h129.4c0.9-50.8,7.2-98.5,17.9-141.1H272c5.1-8.8,10.6-17.4,16.6-25.7h97.3
		c14.3-46.4,34.2-85.5,57.9-114.1c16.5-5.4,33.5-9.4,50.9-11.9c10.8-1.6,21.8-2.6,32.8-3c4.2-0.2,8.4-0.3,12.6-0.3
		c4.4,0,8.8,0.1,13.1,0.3c11.1,0.4,22.1,1.5,33,3.1c17.4,2.6,34.4,6.6,51,12.1c23.6,28.6,43.4,67.6,57.7,113.9h96.8
		c6,8.3,11.5,16.9,16.6,25.7H702c10.7,42.6,17,90.3,17.9,141.1h129c0.2,4.3,0.3,8.6,0.3,12.9s-0.1,8.6-0.3,12.9H720
		c-0.9,50.8-7.2,98.6-18,141.1H808.2z"/>
</g>
<g id="Ebene_2" class="st3">
</g>
</svg>
