<?xml version="1.0" encoding="utf-8"?>
<!-- Generator: Adobe Illustrator 24.0.1, SVG Export Plug-In . SVG Version: 6.00 Build 0)  -->
<svg version="1.1" id="Ebene_1" xmlns="http://www.w3.org/2000/svg" xmlns:xlink="http://www.w3.org/1999/xlink" x="0px" y="0px"
	 viewBox="0 0 1080 1131" style="enable-background:new 0 0 1080 1131;" xml:space="preserve">
<style type="text/css">
	.st0{fill:#EB5B2F;}
	.st1{fill:#6FC3BD;}
	.st2{fill:#FFFFFF;}
	.st3{fill:#5F536D;}
	.st4{fill:none;}
</style>
<circle class="st0" cx="539.84" cy="648.56" r="430.39"/>
<g>
	<path class="st1" d="M415.44,723.52L545.06,847.9c0.94,0.9,4.47-1.26,7.89-4.83c3.42-3.56,5.44-7.19,4.5-8.09L427.83,710.6
		c-0.94-0.9-4.47,1.26-7.89,4.83S414.5,722.62,415.44,723.52z"/>
	<path class="st2" d="M545.58,861.65c-5.03,0-8.44-2.65-9.86-4.01L406.09,733.26l0,0c-3.98-3.81-6.55-10.9-1.84-19.36
		c1.79-3.21,4.22-6.03,5.94-7.82c14.42-15.03,24.3-7.8,26.98-5.22L566.8,825.24c3.97,3.81,6.54,10.89,1.83,19.35
		c-1.42,2.55-3.47,5.25-5.94,7.83C555.88,859.52,550.08,861.65,545.58,861.65z M424.78,713.77l0.02,0.02
		C424.79,713.78,424.79,713.78,424.78,713.77z"/>
</g>
<path class="st1" d="M418.57,726.74L548.2,851.12c0.94,0.9,4.47-1.26,7.89-4.83c3.42-3.56,5.44-7.19,4.5-8.09L430.97,713.83
	c-0.94-0.9-4.47,1.26-7.89,4.83C419.65,722.22,417.63,725.84,418.57,726.74z"/>
<g>
	<circle class="st3" cx="703.57" cy="935.86" r="186.26"/>
	<path class="st2" d="M703.57,1130.17c-107.14,0-194.31-87.17-194.31-194.31c0-107.14,87.17-194.31,194.31-194.31
		s194.31,87.17,194.31,194.31C897.88,1043.01,810.72,1130.17,703.57,1130.17z M703.57,757.66c-98.26,0-178.2,79.94-178.2,178.2
		c0,98.26,79.94,178.2,178.2,178.2s178.2-79.94,178.2-178.2C881.77,837.6,801.83,757.66,703.57,757.66z"/>
</g>
<rect x="428.14" y="722.47" transform="matrix(0.7785 -0.6276 0.6276 0.7785 -364.2175 438.9977)" class="st2" width="23.56" height="26.21"/>
<rect x="522.14" y="813.49" transform="matrix(0.6804 -0.7328 0.7328 0.6804 -433.5522 655.0266)" class="st2" width="24.14" height="22.19"/>
<g>
	<path class="st1" d="M512.6,792.15l26.77,25.58c3.82,3.65,4.13,9.53,0.69,13.13c-3.44,3.6-9.32,3.56-13.14-0.09l-26.77-25.58
		c-3.82-3.65-4.13-9.53-0.69-13.13C502.89,788.45,508.78,788.5,512.6,792.15z"/>
</g>
<g>
	<path class="st1" d="M631.95,458.36L464.65,567.97c-1.21,0.79-4.39-1.92-7.09-6.05c-2.71-4.13-3.92-8.13-2.71-8.92l167.31-109.61
		c1.21-0.79,4.39,1.92,7.09,6.05S633.17,457.56,631.95,458.36z"/>
	<path class="st2" d="M464.04,581.61c-4.89,0-11.35-2.48-17.78-12.29c-2.02-3.09-3.56-6.26-4.45-9.18
		c-2.76-9.06,1.1-15.46,5.63-18.43l167.31-109.61c4.53-2.97,11.94-3.95,19.15,2.2c2.32,1.98,4.61,4.66,6.64,7.74
		c2.02,3.09,3.56,6.26,4.45,9.17c2.76,9.06-1.1,15.47-5.63,18.44L472.05,579.26C471.03,579.93,468.06,581.61,464.04,581.61z
		 M624.56,447.07c-0.01,0.01-0.02,0.01-0.03,0.02L624.56,447.07z"/>
</g>
<g>
	<circle class="st3" cx="345.88" cy="623.45" r="131.58"/>
	<path class="st2" d="M345.88,763.09c-77,0-139.64-62.64-139.64-139.64c0-77,62.64-139.64,139.64-139.64s139.64,62.64,139.64,139.64
		C485.52,700.45,422.87,763.09,345.88,763.09z M345.88,499.92c-68.11,0-123.53,55.41-123.53,123.53s55.41,123.53,123.53,123.53
		s123.53-55.42,123.53-123.53S413.99,499.92,345.88,499.92z"/>
</g>
<path class="st1" d="M632.67,458.18L465.36,567.79c-1.21,0.79-4.39-1.92-7.09-6.05c-2.71-4.13-3.92-8.13-2.71-8.92l167.31-109.61
	c1.21-0.79,4.39,1.92,7.09,6.05C632.66,453.39,633.88,457.39,632.67,458.18z"/>
<g>
	<circle class="st3" cx="704.07" cy="401.98" r="92.59"/>
	<path class="st2" d="M704.07,502.62c-55.5,0-100.64-45.15-100.64-100.64s45.15-100.65,100.64-100.65
		c55.5,0,100.65,45.15,100.65,100.65S759.56,502.62,704.07,502.62z M704.07,317.44c-46.61,0-84.54,37.92-84.54,84.54
		s37.92,84.54,84.54,84.54c46.61,0,84.54-37.92,84.54-84.54S750.68,317.44,704.07,317.44z"/>
</g>
<rect x="600.69" y="447.2" transform="matrix(0.866 -0.5 0.5 0.866 -148.4437 368.5408)" class="st2" width="25.59" height="28.14"/>
<g>
	<path class="st1" d="M617.67,468.12l-30.97,20.29c-4.42,2.89-10.21,1.87-12.94-2.3c-2.73-4.16-1.36-9.89,3.06-12.78l30.97-20.29
		c4.42-2.89,10.21-1.87,12.94,2.3C623.46,459.5,622.09,465.22,617.67,468.12z"/>
</g>
<rect x="458.61" y="536.65" transform="matrix(0.6447 0.7644 -0.7644 0.6447 590.8672 -163.5725)" class="st2" width="25.59" height="34.44"/>
<g>
	<path class="st1" d="M511.62,537.65l-30.97,20.29c-4.42,2.89-10.21,1.87-12.94-2.3c-2.73-4.16-1.36-9.89,3.06-12.78l30.97-20.29
		c4.42-2.89,10.21-1.87,12.94,2.3C517.41,529.03,516.04,534.76,511.62,537.65z"/>
</g>
<g>
	<g>
		<g>
			<path class="st2" d="M786.68,656.87c-3.01,3.01-7.91,3.01-10.93,0l-23.37-23.37l-23.37,23.37c-3.01,3.01-7.91,3.01-10.93,0
				c-3.01-3.01-3.01-7.91,0-10.93l23.37-23.37l-23.37-23.37c-3.01-3.01-3.01-7.91,0-10.93c3.01-3.01,7.91-3.01,10.93,0l23.37,23.37
				l23.37-23.37c3.01-3.01,7.91-3.01,10.93,0c3.01,3.01,3.01,7.92,0,10.93l-23.37,23.37l23.37,23.37
				C789.7,648.95,789.69,653.86,786.68,656.87z"/>
		</g>
	</g>
</g>
<g>
	<g>
		<g>
			<path class="st2" d="M467.52,388.49c-2.22,2.22-5.82,2.22-8.04,0l-17.19-17.19l-17.19,17.19c-2.22,2.22-5.82,2.22-8.04,0
				c-2.22-2.22-2.22-5.82,0-8.04l17.19-17.19l-17.19-17.19c-2.22-2.22-2.22-5.82,0-8.04c2.22-2.22,5.82-2.22,8.04,0l17.19,17.19
				l17.19-17.19c2.22-2.22,5.82-2.22,8.04,0c2.22,2.22,2.22,5.83,0,8.04l-17.19,17.19l17.19,17.19
				C469.74,382.67,469.73,386.27,467.52,388.49z"/>
		</g>
	</g>
</g>
<g>
	<path class="st1" d="M448.27,730.45l26.77,25.58c3.82,3.65,4.13,9.53,0.69,13.13c-3.44,3.6-9.32,3.56-13.14-0.09l-26.77-25.58
		c-3.82-3.65-4.13-9.53-0.69-13.13C438.57,726.76,444.45,726.8,448.27,730.45z"/>
</g>
<g>
	<g>
		<g>
			<path class="st2" d="M389.79,929.09c-4.1,4.1-10.76,4.1-14.86,0l-31.77-31.77l-31.77,31.77c-4.1,4.1-10.76,4.1-14.86,0
				c-4.1-4.1-4.1-10.76,0-14.86l31.77-31.77l-31.77-31.77c-4.1-4.1-4.1-10.76,0-14.86c4.09-4.09,10.76-4.1,14.86,0l31.77,31.77
				l31.77-31.77c4.09-4.09,10.76-4.1,14.86,0c4.1,4.1,4.09,10.76,0,14.86l-31.77,31.77l31.77,31.77
				C393.88,918.34,393.88,925,389.79,929.09z"/>
		</g>
	</g>
</g>
<rect x="0.14" y="-0.33" class="st4" width="1080" height="1131"/>
</svg>
