<?xml version="1.0" encoding="utf-8"?>
<!-- Generator: Adobe Illustrator 24.0.1, SVG Export Plug-In . SVG Version: 6.00 Build 0)  -->
<svg version="1.1" id="Ebene_1" xmlns="http://www.w3.org/2000/svg" xmlns:xlink="http://www.w3.org/1999/xlink" x="0px" y="0px"
	 viewBox="0 0 2400 1629" style="enable-background:new 0 0 2400 1629;" xml:space="preserve">
<style type="text/css">
	.st0{fill:#E1DFE3;}
	.st1{fill:#6FC3BD;}
	.st2{fill:#EB5B2F;}
	.st3{fill:#5F536D;}
	.st4{fill:#FBC500;}
	.st5{fill:#F3C6BD;}
</style>
<rect y="1196" class="st0" width="2400" height="433"/>
<path class="st1" d="M2400,665.56v379.57h-0.01l-289.14,40.24l-6.33,0.89l-0.39,0.05l-0.72,0.1l-170.14,23.68l-4.57,0.64l-0.54,0.07
	l-0.79,0.11l-179.72,25.01l-68.24-4.35l-0.24-0.02l-0.32-0.02l-21.84-1.39l-312.05-19.91l-550.88-35.16c-0.01,0-0.01,0-0.01,0
	l-661.51-42.21l-65.23-4.16l100.7-253.74c0,0,136.32-31.48,331.91-58.8c123.03-17.18,269.51-32.72,420.26-37.75
	c284.12-9.47,434,36.62,613.18,59.65c67.04,8.62,138.19,14.01,222.01,12.05c25.64-0.6,52.06-1.81,78.95-3.52
	c0.2-0.01,0.41-0.03,0.61-0.04c0.13-0.01,0.27-0.02,0.4-0.03c30.07-1.92,60.75-4.47,91.57-7.52
	c64.49-6.34,129.65-14.78,191.56-23.98c29.84-4.44,58.92-9.05,86.8-13.67c0.83-0.14,1.66-0.28,2.49-0.42
	c0.43-0.07,0.85-0.14,1.28-0.21c2.33-0.39,4.65-0.78,6.96-1.17c21.59-3.63,42.41-7.26,62.25-10.81c0.02-0.01,0.04-0.01,0.06-0.01
	c11.69-2.11,23.04-4.18,34.01-6.21c9.91-1.84,19.5-3.65,28.75-5.41c7.15-1.36,14.09-2.7,20.81-4.01c1.34-0.25,2.66-0.51,3.98-0.77
	c0.91-0.18,1.81-0.35,2.71-0.53c0.33-0.06,0.66-0.13,0.99-0.19c5.94-1.17,11.7-2.3,17.25-3.41c4.53-0.9,8.92-1.78,13.17-2.64H2400z"
	/>
<path class="st0" d="M1431,1145.02H0V435.71c125.44,8.16,247.06,83.11,362.75,171.34c138.36,105.53,268.26,230.07,386.11,282.11
	c4.23,1.87,8.45,3.65,12.65,5.33c129.96,51.9,446.63,164.71,593.11,219.73c39.94,15,67.24,25.69,74.63,29.7
	C1430.1,1144.37,1430.69,1144.75,1431,1145.02z"/>
<circle class="st2" cx="1730.64" cy="534.65" r="283.35"/>
<path class="st3" d="M2400,1147.73v121.48H1.01v-154.52c33.65-7.43,77.5-40.02,131.55-81.83
	c112.08-86.69,268.03-213.03,467.95-236.89c21.65-2.59,43.82-3.97,66.5-3.97c185.4,0,365.57,141.46,595.12,200.17h0.01
	c71.31,18.24,147.39,28.49,229.87,24.04c59.5-3.21,122.04,5.6,184.19,19.9c85.86,19.74,170.99,49.93,246.44,73.34h0.01
	c1.22,0.37,2.44,0.76,3.65,1.13c0.15,0.05,0.29,0.09,0.44,0.14c0.21,0.06,0.42,0.13,0.63,0.19c48.9,15.06,93.61,27.08,131.64,31.3
	c129.83,14.4,325.21,6.22,340.98,5.52H2400z"/>
<path class="st3" d="M2400,727.36V1197h-742.99c0,0,0-31.99,0-66.86v-87.66c6.06-1.34,12.46-3.5,19.19-6.37
	c10.38-4.45,21.55-10.62,33.52-18.18c8.11-5.12,16.59-10.89,25.45-17.18c0.13-0.1,0.27-0.19,0.4-0.29c0.62-0.44,1.26-0.89,1.89-1.34
	c42.59-30.51,93.5-72.91,152.72-115.44c0.25-0.19,0.51-0.37,0.76-0.55c0.46-0.34,0.91-0.66,1.37-0.99
	c48.16-34.5,101.79-68.99,160.89-97.26c0.48-0.24,0.97-0.47,1.46-0.7c0.43-0.21,0.87-0.41,1.3-0.62
	c24.17-11.45,49.26-21.85,75.25-30.77c20.93-7.19,42.45-13.42,64.56-18.47c15.16-3.46,30.59-6.36,46.31-8.63
	c0.83-0.13,1.66-0.25,2.49-0.37c0.4-0.07,0.81-0.12,1.22-0.18c4.17-0.58,8.36-1.11,12.57-1.6c21.06-2.44,42.61-3.75,64.65-3.75
	c17.22,0,34.4,1.22,51.58,3.49c8.47,1.1,16.93,2.47,25.4,4.08H2400z"/>
<path class="st0" d="M2400,1142.26V1297H1.01v-121.52c0,0,206.63,9.53,342-5.48c43.01-4.77,95.21-13.56,152.4-24.98
	c92.39-18.44,197.83-43.72,298.66-69.95c0,0,0,0,0.01,0c11.33-2.95,22.61-5.91,33.8-8.87c28.03-7.42,55.54-14.87,82.13-22.2
	c53.95-14.88,107.93-26,161.2-34.12c65.16-9.94,129.26-15.39,190.92-17.71h0.01c177.66-6.69,335.16,12.51,439.87,24.83
	c2.49,0.29,5.06,0.6,7.71,0.93c85.43,10.59,246.51,38.68,394.4,66.19c0.24,0.04,0.48,0.09,0.72,0.13c0.1,0.02,0.19,0.04,0.29,0.05
	c1.91,0.36,3.82,0.72,5.72,1.07c124.6,23.21,238.83,45.81,289.14,56.89H2400z"/>
<path class="st4" d="M597.05,764.42c-14.33-2.83-29.07-4.93-43.39-5.94c-117.52-8.29-215.59,23-223.14-17.88
	c-7.58-40.86,44.33-47.63,136.18-56.2c34.06-3.17,71.07,0.51,104.98,6.73c-6.04-16.68-12.65-34.56-19.92-53.69
	c-2.56-6.74-5.15-13.34-7.77-19.74c-25.17-1.86-129.93-7.97-182.25,14.84c-59.7,26.01-125.88,73.41-145.05,32.48
	c-19.19-40.95,23.6-68.31,59.88-81.54c36.33-13.26,134.31-52.11,199.14-51.14c10.78,0.16,20.27,0.99,28.54,2.25
	c-21.36-37.81-43.57-67.4-65.82-90.84c-0.08,0.65-0.92,0.75-2.62,0.18c-17.63-5.91-95.09,12.88-152.91,46.77
	C181.3,550.28,118.08,631.52,88.75,602.1c-29.35-29.44,9.65-64.37,80.56-123.35c64.86-53.93,167.93-83.49,198.78-91.47
	c-41.67-24.63-80.23-34.32-109.78-44.21C199.89,323.49,64.78,332.05,0,395.69v410.77c19.08-81.99,33.2-127.28,70.81-114.99
	c39.53,12.92-4.47,105.95-11.83,223.54c-3.74,60.13,10.54,128.97,23.06,151.71c43.65,11.96,97.46,19.33,163.35,16.97
	c2.23-0.07,4.48-0.16,6.73-0.29c-3.96-3.58-8.64-7.89-14.18-13.13c-35.55-33.7-56.62-136.59-65.39-168.94
	c-8.76-32.35-9.67-75.12,33.45-77.03c43.09-1.89,38.09,74.85,49.09,129.73c9.08,45.26,53.71,101.68,69.06,120.08
	c42.87-8.39,86.55-21.44,126.96-36.41c-23.49-26.3-60.92-70.59-81.34-107.33c-31.28-56.22-14.82-82.54,6.01-89.47
	c34.31-11.36,52.65,49.57,65.53,70.97c15.59,25.9,67.11,77.13,84.68,94.32c56.63-26.92,96.75-54.06,101.7-68.85
	C632.4,923.35,640.81,898.19,597.05,764.42z M128.67,836.97c-13.93,5.84-24.52-24.17-24.58-43.53
	c-0.09-19.38,27.43-23.99,34.67-1.28C141.36,800.34,142.62,831.13,128.67,836.97z M579.45,825.5
	c-3.46,13.02-19.79,12.77-30.61,15.55c-10.82,2.77-29.43,2.82-49.37,3.5c-19.93,0.68-14.57-30.26,6.49-40.4
	c21.05-10.13,37.92-2.04,58.14-0.43C584.33,805.33,579.45,825.5,579.45,825.5z"/>
<g>
	<path class="st5" d="M2400,683.77v40.27h-0.01c-1-0.27-2-0.54-3-0.81c-7.57-2.06-15.07-4.13-22.52-6.2
		c-33.34-9.3-65.47-18.79-96.17-28.28c-0.01,0-0.03-0.01-0.04-0.01c-19.62-6.07-38.65-12.12-57.05-18.14
		c-28.39-9.28-55.26-18.43-80.4-27.29c-19.61-6.9-38.17-13.62-55.57-20.07c-6.99-2.58-13.78-5.13-20.39-7.62
		c-19.53-7.37-38.73-14.82-57.52-22.29c-23.89-9.52-47.1-19.08-69.46-28.62c-26.2-11.17-51.23-22.31-74.78-33.25
		c-14.31-6.65-28.08-13.24-41.24-19.73c-26.21-12.93-49.99-25.46-70.82-37.36c-0.01,0-0.01,0-0.01,0c-3.49-1.99-6.9-3.96-10.22-5.92
		h-0.01c-3.49-2.05-6.87-4.08-10.16-6.09c-7.53-4.59-14.55-9.06-21.03-13.4c-8.89-5.96-11.27-17.99-5.32-26.88
		c5.96-8.89,17.99-11.27,26.88-5.31c6.81,4.56,14.33,9.33,22.54,14.28h0.01c1.09,0.66,2.19,1.32,3.31,1.99
		c6.34,3.77,13.08,7.66,20.18,11.64c19.63,11,42.09,22.7,67.03,34.91c12.5,6.12,25.63,12.36,39.34,18.7
		c26.32,12.18,54.79,24.71,85.09,37.42h0.01c17.25,7.23,35.1,14.52,53.49,21.83c24.83,9.86,50.65,19.77,77.3,29.61
		c13.99,5.18,28.21,10.34,42.64,15.47h0.01c31.18,11.08,63.34,22.03,96.29,32.74c19.64,6.38,39.55,12.66,59.7,18.83
		c21.02,6.44,42.3,12.76,63.79,18.91c2.25,0.64,4.51,1.29,6.77,1.93c0.23,0.07,0.46,0.13,0.69,0.19c1.67,0.48,3.35,0.96,5.03,1.43
		c0.61,0.17,1.23,0.35,1.85,0.52c1.95,0.55,3.9,1.1,5.85,1.65c4.96,1.39,9.93,2.77,14.91,4.13c1,0.28,2,0.55,3,0.82H2400z"/>
	<path class="st5" d="M1966.3,431.77c18.88,12.07,32.24,63.24,11.27,93.06s-46.81,33.58-60.15,24.94
		c-16.84-10.9-42.78-37.34-30.8-68.53C1898.59,450.06,1932.38,410.09,1966.3,431.77z"/>
	<path class="st5" d="M1625.27,369.1c8.4-17.06,57.73-21.77,92.38,4.65c34.65,26.42,43.79,53.28,37.75,65.33
		c-7.63,15.19-29.2,36.94-63.4,19.4C1657.79,440.95,1610.18,399.76,1625.27,369.1z"/>
	<path class="st5" d="M2329.18,556.04c20.94-3.61,60.58,31.08,62.48,72.84c1.9,41.76-14.96,64.41-29.82,66.86
		c-18.76,3.1-53.28-0.55-62.6-36.77C2289.91,622.75,2291.55,562.52,2329.18,556.04z"/>
	<path class="st5" d="M2197.11,512.01c25.6,4.58,65.21,49.75,58.55,87.15s-31.49,51.06-49.64,47.72
		c-22.91-4.23-63.06-20.22-66.39-55.5C2136.3,556.1,2151.11,503.78,2197.11,512.01z"/>
	<path class="st5" d="M2069.68,458.92c20.49-0.18,51.52,41.12,45.53,83.32c-6,42.19-26.17,62.14-40.7,62.16
		c-18.33,0.02-50.31-9.31-52.37-47.16C2020.08,519.38,2032.87,459.24,2069.68,458.92z"/>
	<path class="st5" d="M1794.47,379.3c16.41-5.42,52.77,16.29,59.62,48.2s-3.84,51.49-15.5,55.25c-14.72,4.75-42.99,6.3-55.12-20.42
		C1771.34,435.63,1764.98,389.04,1794.47,379.3z"/>
	<path class="st5" d="M1716.61,529.36c-5.51-16.38,15.98-52.86,47.86-59.9c31.88-7.04,51.51,3.54,55.34,15.18
		c4.84,14.69,6.55,42.95-20.1,55.24C1773.07,552.16,1726.52,558.78,1716.61,529.36z"/>
	<path class="st5" d="M2138.25,757.48c18.4,9,64.23-14.86,77.02-55.51c12.8-40.65,3.2-67.35-9.89-73.64
		c-16.52-7.93-49.4-13.31-67.6,19.94C2119.59,681.53,2105.18,741.3,2138.25,757.48z"/>
	<path class="st5" d="M1828.81,651.59c20.08,13.29,76.55,1.19,97.09-35.37c20.54-36.56,13.15-64.97-1.15-74.31
		c-18.05-11.78-55.41-25.07-81.17,2.95S1792.73,627.72,1828.81,651.59z"/>
	<path class="st5" d="M1991.32,694.5c16.9,11.33,65.03-2.25,82.93-36.73c17.89-34.49,11.97-60.28-0.07-68.23
		c-15.19-10.04-46.78-20.62-69.01,6.25C1982.93,622.66,1960.96,674.14,1991.32,694.5z"/>
	<path class="st5" d="M2279.45,799.57c23.15,8.82,77.45-12.42,90.17-50.09c12.72-37.66-0.93-62.81-17.39-68.98
		c-20.77-7.78-61.35-13.55-81.2,17.09C2251.17,728.24,2237.86,783.72,2279.45,799.57z"/>
	<path class="st5" d="M2396.99,733.1v83.61c-10.27-1.45-18.44-5.13-22.39-10.54C2359.24,785.1,2375.16,755.81,2396.99,733.1z"/>
</g>
<g>
	<g>
		<path class="st0" d="M656.61,179.1H398.84c-7.11,0-12.88-5.77-12.88-12.88c0-7.12,5.77-12.88,12.88-12.88h257.77
			c7.11,0,12.88,5.77,12.88,12.88C669.49,173.33,663.72,179.1,656.61,179.1z"/>
	</g>
	<g>
		<path class="st0" d="M300.87,286.47h-44.68c-7.11,0-12.88-5.77-12.88-12.88c0-7.12,5.77-12.88,12.88-12.88h44.68
			c7.11,0,12.88,5.77,12.88,12.88C313.75,280.71,307.98,286.47,300.87,286.47z"/>
	</g>
	<g>
		<path class="st0" d="M472.71,286.47H355.86c-7.11,0-12.88-5.77-12.88-12.88c0-7.12,5.77-12.88,12.88-12.88h116.85
			c7.11,0,12.88,5.77,12.88,12.88C485.6,280.71,479.83,286.47,472.71,286.47z"/>
	</g>
</g>
<g>
	<g>
		<path class="st0" d="M2366.2,180.18h-257.77c-7.11,0-12.88-5.77-12.88-12.88c0-7.12,5.77-12.88,12.88-12.88h257.77
			c7.11,0,12.88,5.77,12.88,12.88C2379.09,174.41,2373.32,180.18,2366.2,180.18z"/>
	</g>
	<g>
		<path class="st0" d="M2399.99,261.79v25.77h-92.54c-7.11,0-12.88-5.77-12.88-12.89c0-7.11,5.77-12.88,12.88-12.88H2399.99z"/>
	</g>
</g>
<g>
	<g>
		<path class="st1" d="M651.71,339.76c-6.47,0-11.77-5.18-11.9-11.67c-0.29-14.74-6.31-28.49-16.95-38.7
			c-10.64-10.22-24.68-15.74-39.35-15.38c-6.44,0.17-12.01-5.09-12.15-11.67c-0.13-6.58,5.09-12.01,11.67-12.15
			c43.69-0.78,79.72,33.86,80.59,77.42c0.13,6.58-5.09,12.01-11.67,12.15C651.87,339.76,651.79,339.76,651.71,339.76z"/>
	</g>
	<g>
		<path class="st1" d="M651.71,339.76c-6.47,0-11.77-5.18-11.9-11.67c-0.87-43.56,33.86-79.72,77.42-80.59
			c6.56-0.05,12.01,5.09,12.15,11.67c0.13,6.58-5.09,12.01-11.67,12.15c-14.74,0.29-28.49,6.31-38.7,16.95
			c-10.22,10.63-15.68,24.61-15.38,39.35c0.13,6.58-5.09,12.01-11.67,12.15C651.87,339.76,651.79,339.76,651.71,339.76z"/>
	</g>
</g>
<g>
	<g>
		<path class="st3" d="M789.64,432.03c-4.85,0-8.83-3.88-8.93-8.75c-0.22-11.06-4.73-21.37-12.71-29.03
			c-7.98-7.66-18.51-11.81-29.51-11.54c-4.83,0.13-9.01-3.82-9.11-8.75c-0.1-4.93,3.82-9.01,8.75-9.11
			c32.77-0.58,59.79,25.4,60.44,58.07c0.1,4.93-3.82,9.01-8.75,9.11C789.76,432.03,789.7,432.03,789.64,432.03z"/>
	</g>
	<g>
		<path class="st3" d="M789.64,432.03c-4.85,0-8.83-3.88-8.93-8.75c-0.65-32.67,25.39-59.79,58.07-60.44
			c4.92-0.04,9.01,3.82,9.11,8.75c0.1,4.93-3.82,9.01-8.75,9.11c-11.06,0.22-21.37,4.74-29.03,12.71
			c-7.66,7.97-11.76,18.46-11.54,29.51c0.1,4.93-3.82,9.01-8.75,9.11C789.76,432.03,789.7,432.03,789.64,432.03z"/>
	</g>
</g>
<g>
	<g>
		<path class="st1" d="M906.12,320.91c-3.53,0-6.42-2.82-6.49-6.37c-0.16-8.04-3.44-15.54-9.25-21.12
			c-5.8-5.57-13.46-8.59-21.47-8.39c-3.52,0.09-6.55-2.78-6.63-6.37c-0.07-3.59,2.78-6.55,6.37-6.63
			c23.83-0.42,43.49,18.47,43.97,42.24c0.07,3.59-2.78,6.55-6.37,6.63C906.21,320.91,906.16,320.91,906.12,320.91z"/>
	</g>
	<g>
		<path class="st1" d="M906.12,320.91c-3.53,0-6.42-2.82-6.49-6.37c-0.48-23.77,18.47-43.49,42.24-43.97
			c3.58-0.03,6.55,2.78,6.63,6.37c0.07,3.59-2.78,6.55-6.37,6.63c-8.04,0.16-15.54,3.44-21.12,9.25c-5.57,5.8-8.55,13.43-8.39,21.47
			c0.07,3.59-2.78,6.55-6.37,6.63C906.21,320.91,906.16,320.91,906.12,320.91z"/>
	</g>
</g>
<path class="st4" d="M2218.97,452.69c-31.9,10.67-70.42,21.2-112.61,39.2c-19.6,8.35-40,18.32-60.89,30.67
	c14.57,3.76,39.32,10.58,69.61,20.55c8.87,2.92,18.21,6.12,27.91,9.59c34.68,12.38,73.94,28.28,112.42,47.82
	c13.19,6.68,26.28,13.8,39.07,21.35c23.13,13.66,45.26,28.73,65.13,45.25c2.11,1.75,4.19,3.49,6.26,5.21
	c1.17,0.97,2.33,1.94,3.48,2.89c3.31,2.77,6.57,5.5,9.78,8.19c7.22,6.05,14.18,11.93,20.87,17.65V442.28
	C2329.11,433.67,2261.3,438.51,2218.97,452.69z M2255,734.73c-4.25-3.03-8.56-6.04-12.92-9.04c-9.24-6.39-18.73-12.75-28.47-19.03
	c-2.76-1.78-5.53-3.55-8.33-5.31c-8.22-5.19-16.62-10.32-25.19-15.34c-15.47-9.07-31.83-17.45-48.47-25.08
	c-16.61-7.61-33.49-14.47-50.05-20.5c-32.7-11.9-64.13-20.58-89.61-25.46c-13.67-2.63-25.63-4.16-35.16-4.51
	c-7.94-0.28-14.2,0.24-18.35,1.63c-2.69,0.9-4.03,0.75-4.14-0.28c-33.42,35.19-66.77,79.16-98.96,134.71
	c-1.7,2.92-3.38,5.87-5.07,8.85c13.07-1.99,28.07-3.3,45.11-3.55c24.78-0.37,52.63,2.94,81.41,8.47
	c31.93,6.13,65.03,14.99,96.4,24.59c57.28,17.52,108.79,37.5,136.91,47.76c57.32,20.91,124.96,64.15,94.64,128.86
	c-30.3,64.69-134.89-10.22-229.26-51.33c-26.63-11.61-61.84-18.49-98.69-22.36c-22.12-2.33-44.83-3.58-66.62-4.13
	c-54.62-1.39-103.43,1.62-122.72,3.04c-4.12,10.11-8.22,20.55-12.28,31.2c-11.47,30.23-21.92,58.49-31.46,84.85
	c3.79-0.7,7.61-1.37,11.45-2.02c50.39-8.58,104.42-13.28,154.46-8.62c24.19,2.26,46.62,4.44,67.17,6.8
	c102.71,11.8,158.04,28.21,148.05,82.02c-0.2,1.09-0.44,2.15-0.73,3.17c-0.21,0.79-0.45,1.55-0.71,2.29
	c-12.72,36.28-80.12,29.97-174.71,24.32c-0.8-0.06-1.6-0.1-2.4-0.15c-51.56-3.06-111.06-5.82-174.1-1.37
	c-22.65,1.61-45.95,4.91-68.58,9.39c-1.44,4.4-2.84,8.72-4.21,12.97c-7.74,24.06-14.37,45.79-20.02,65.43
	c-8.09,28.09-14.18,51.92-18.71,72.21c-2.25,10.11-4.11,19.34-5.63,27.79c-11.1,61.39-4.4,81.41,0.13,94.88
	c7.84,23.38,71.25,66.27,160.73,108.81c27.78-27.17,109.21-108.13,133.84-149.06c7.58-12.59,16.36-33.84,27.18-54.63
	c5.04-9.67,10.52-19.24,16.53-27.79c15.77-22.46,35.21-37.9,59.86-29.74c13.4,4.46,25.66,14,32.15,29.74
	c3.18,7.72,4.98,16.94,4.83,27.79c-0.28,21.33-8.06,48.95-27.48,83.87c-32.29,58.06-91.45,128.06-128.55,169.62
	c63.86,23.66,132.88,44.28,200.63,57.54c24.27-29.08,94.81-118.24,109.16-189.77c7.66-38.24,10.41-83.2,16.92-121.26
	c1.68-9.8,3.6-19.14,5.93-27.79c9.12-33.97,24.38-57.31,54.73-55.98c40.14,1.78,56.14,25.96,59.68,55.98
	c1.04,8.89,1,18.3,0.17,27.79c-1.14,12.86-3.72,25.88-7,37.97c-13.85,51.13-47.14,213.73-103.34,266.99
	c-8.74,8.29-16.16,15.1-22.41,20.76c3.57,0.2,7.11,0.34,10.65,0.45c59.59,2.14,112.94-0.77,160.61-7.19V843.82
	c-20.5-14.03-43.77-32.36-69.9-52.7C2307.26,773.35,2282.25,754.05,2255,734.73z M1837.82,1245.24c-31.5-1.08-60.92-1.16-78.02-5.54
	c-17.1-4.39-42.89-3.99-48.36-24.57c0,0-2.23-9.21,0.67-18.13c2.5-7.67,8.8-15.12,23.59-16.29c31.95-2.55,58.6-15.33,91.88,0.68
	c7.79,3.75,14.23,9.31,19.11,15.61C1862.63,1217.58,1861.96,1246.06,1837.82,1245.24z"/>
<path class="st4" d="M3536.81,839.54c-0.71-0.75-1.38-1.58-1.98-2.46C3535.46,837.93,3536.13,838.75,3536.81,839.54z"/>
<g>
	<path class="st5" d="M726.42,1079.97c-4.84,3.25-10.27,6.64-16.23,10.14c-1.73,1.02-3.5,2.05-5.31,3.08
		c-10.84,6.19-23.22,12.72-36.87,19.44c0,0,0,0,0,0.01c-6.84,3.37-14,6.79-21.44,10.26c-12.25,5.69-25.28,11.48-38.92,17.3
		c-11.63,4.96-23.71,9.94-36.14,14.89c-9.78,3.89-19.78,7.76-29.94,11.6c-3.44,1.3-6.98,2.62-10.61,3.97
		c-9.06,3.35-18.71,6.84-28.91,10.44c-13.08,4.6-27.07,9.37-41.84,14.2c-9.58,3.13-19.49,6.28-29.7,9.44
		c-15.98,4.94-32.7,9.88-50.05,14.71c-5.22,1.46-10.5,2.91-15.84,4.34c-15.5,4.18-31.46,8.26-47.8,12.17
		c-8.48,2.02-17.07,4.01-25.74,5.94c-12.68,2.82-25.55,5.52-38.59,8.08c-3.98,0.78-7.96,1.62-11.94,2.53
		c-6.75,1.52-13.51,3.22-20.27,5.11c-17.6,4.87-35.21,10.91-52.74,18.09c-7.22,2.95-14.43,6.09-21.62,9.44
		c-10.48,4.86-20.93,10.12-31.32,15.79c-5.27,2.87-10.52,5.84-15.76,8.92c-8.45,4.95-16.85,10.16-25.2,15.63
		c-13.54,8.86-26.95,18.38-40.16,28.52c-6.57,5.05-13.09,10.25-19.56,15.6c-2.57,2.12-5.13,4.28-7.69,6.45
		c-2.11,1.8-4.19,3.59-6.23,5.37v-26.47c1-0.83,2.01-1.66,3.01-2.49c7.65-6.28,15.37-12.36,23.16-18.23
		c13.14-9.9,26.47-19.21,39.94-27.9c10.19-6.58,20.47-12.8,30.8-18.63c1.86-1.06,3.72-2.1,5.58-3.12c0.82-0.45,1.64-0.9,2.46-1.35
		c3.59-1.96,7.18-3.87,10.78-5.73c9.04-4.68,18.11-9.08,27.22-13.17c9.52-4.3,19.07-8.26,28.64-11.9
		c11.85-4.52,23.73-8.54,35.62-12.05c10.47-3.1,20.95-5.8,31.42-8.11c3.33-0.73,6.65-1.43,9.98-2.08
		c10.12-1.99,20.24-4.09,30.34-6.29c12.37-2.69,24.7-5.53,36.98-8.51c12.31-2.98,24.56-6.1,36.72-9.32c8-2.13,15.96-4.3,23.86-6.51
		c14.75-4.13,29.34-8.42,43.69-12.81c10.48-3.21,20.85-6.49,31.07-9.8c17.15-5.58,33.88-11.28,50.11-17.05
		c7.51-2.66,14.9-5.35,22.18-8.03c13.87-5.13,27.3-10.28,40.22-15.42c9.57-3.8,18.86-7.6,27.84-11.36
		c15.77-6.61,30.58-13.13,44.28-19.47c7.13-3.3,13.96-6.54,20.47-9.73c12.98-6.35,24.66-12.44,34.88-18.16
		c4.34-2.43,8.42-4.8,12.22-7.09c4.27-2.58,8.19-5.06,11.73-7.43c4.63-3.1,10.89-1.87,13.99,2.76S731.05,1076.87,726.42,1079.97z"/>
	<path class="st5" d="M592.85,1071.02c-9.82,6.28-16.77,32.91-5.86,48.42c10.91,15.52,24.36,17.47,31.3,12.98
		c8.76-5.67,22.26-19.43,16.03-35.66C628.08,1080.54,610.5,1059.74,592.85,1071.02z"/>
	<path class="st5" d="M3.01,1352.47c-0.37,3.35-1.47,6.33-3.01,8.94v-24.39c0.39,0.88,0.75,1.75,1.08,2.6
		C2.95,1344.38,3.45,1348.66,3.01,1352.47z"/>
	<path class="st5" d="M28.19,1261.89c-12,3.58-26.02,30.17-18.27,50.57c7.75,20.4,21.56,26.93,30.05,24.33
		c10.72-3.28,28.5-13.76,25.91-33.4C63.29,1283.76,49.76,1255.45,28.19,1261.89z"/>
	<path class="st5" d="M770.82,1044.94c-4.37-8.88-30.04-11.33-48.07,2.42s-22.79,27.73-19.64,33.99c3.97,7.91,15.2,19.22,32.99,10.1
		C753.9,1082.32,778.67,1060.9,770.82,1044.94z"/>
	<path class="st5" d="M107.82,1220.51c-12.41,3.5-28.5,29.22-22.12,48.9c6.37,19.68,19.88,25.95,28.67,23.42
		c11.09-3.2,29.83-13.38,28.62-32.34S130.12,1214.22,107.82,1220.51z"/>
	<path class="st5" d="M166.82,1186.03c-10.12,3.36-18.44,28.92-8.38,48.69c10.06,19.76,23.35,26.18,30.51,23.75
		c9.03-3.07,23.2-13.05,17.84-32.04S184.99,1179.99,166.82,1186.03z"/>
	<path class="st5" d="M248.56,1152.06c-12.31,0.93-28.86,27.31-23.13,52.35c5.74,25.04,18.87,36,27.59,35.27
		c11.01-0.91,29.74-8.14,29.07-30.98C281.42,1185.86,270.68,1150.39,248.56,1152.06z"/>
	<path class="st5" d="M329.62,1146.3c-10.66-0.09-26.81,21.4-23.69,43.35c3.12,21.95,13.62,32.33,21.18,32.34
		c9.54,0.01,26.18-4.84,27.25-24.54S348.78,1146.47,329.62,1146.3z"/>
	<path class="st5" d="M404.03,1135.68c-10.9-1.88-31.52,16.17-32.51,37.9s7.78,33.51,15.52,34.79c9.76,1.61,27.72-0.29,32.57-19.13
		C424.47,1170.4,423.61,1139.06,404.03,1135.68z"/>
	<path class="st5" d="M472.75,1112.78c-13.32,2.39-33.93,25.89-30.47,45.35c3.47,19.46,16.39,26.57,25.83,24.83
		c11.92-2.2,32.81-10.52,34.55-28.88C504.39,1135.72,496.69,1108.49,472.75,1112.78z"/>
	<path class="st5" d="M539.06,1085.15c-10.66-0.09-26.81,21.4-23.69,43.35c3.12,21.95,13.62,32.33,21.18,32.34
		c9.54,0.01,26.18-4.84,27.25-24.54C564.87,1116.61,558.21,1085.32,539.06,1085.15z"/>
	<path class="st5" d="M682.26,1043.72c-8.54-2.82-27.46,8.48-31.02,25.08c-3.57,16.61,2,26.79,8.07,28.75
		c7.66,2.47,22.37,3.28,28.68-10.62C694.3,1073.03,697.61,1048.79,682.26,1043.72z"/>
	<path class="st5" d="M722.78,1121.8c2.87-8.52-8.32-27.51-24.9-31.17s-26.8,1.84-28.8,7.9c-2.52,7.64-3.41,22.35,10.46,28.74
		C693.4,1133.67,717.62,1137.11,722.78,1121.8z"/>
	<path class="st5" d="M503.38,1240.5c-9.58,4.68-33.42-7.73-40.08-28.89s-1.67-35.05,5.15-38.32c8.6-4.13,25.7-6.93,35.17,10.38
		C513.09,1200.98,520.59,1232.08,503.38,1240.5z"/>
	<path class="st5" d="M664.39,1185.4c-10.45,6.91-39.83,0.62-50.52-18.41s-6.84-33.81,0.6-38.67c9.39-6.13,28.83-13.04,42.24,1.54
		C670.12,1144.45,683.17,1172.98,664.39,1185.4z"/>
	<path class="st5" d="M579.83,1207.73c-8.79,5.9-33.84-1.17-43.15-19.11c-9.31-17.95-6.23-31.36,0.04-35.5
		c7.9-5.22,24.34-10.73,35.91,3.25S595.63,1197.14,579.83,1207.73z"/>
	<path class="st5" d="M429.91,1262.41c-12.04,4.59-40.3-6.46-46.92-26.06c-6.62-19.6,0.48-32.68,9.05-35.89
		c10.81-4.05,31.92-7.05,42.25,8.89C444.62,1225.29,451.55,1254.16,429.91,1262.41z"/>
	<path class="st5" d="M380.4,1265.84c-6.28,8.61-33.16,8.77-48.93-6.82c-15.77-15.59-17.85-30.21-13.35-36.28
		c5.67-7.66,19.49-18.13,35.95-7.26S391.68,1250.36,380.4,1265.84z"/>
	<path class="st5" d="M289.35,1297.44c-11.4,4.85-38.87-6.17-45.88-26.22c-7.01-20.05-0.64-33.57,7.46-36.96
		c10.23-4.28,30.38-7.61,40.83,8.64S309.83,1288.72,289.35,1297.44z"/>
	<path class="st5" d="M221.72,1309.84c-11.38,6.05-40.79-1.41-49.79-20.04s-3.58-32.49,4.52-36.74c10.22-5.36,30.8-10.96,43.03,3.58
		C231.72,1271.18,242.17,1298.97,221.72,1309.84z"/>
	<path class="st5" d="M157.31,1351.33c-10.48,7.19-40.7-1.99-52.19-24.45c-11.48-22.46-7.98-39.1-0.52-44.14
		c9.42-6.37,29.09-12.95,43.23,4.61C161.96,1304.92,176.14,1338.41,157.31,1351.33z"/>
	<path class="st5" d="M98.92,1376.63c-7.29,9.41-36.34,11.17-52.45-4.25s-17.49-30.62-12.27-37.26c6.58-8.38,22.13-20.17,39.26-9.74
		C90.59,1335.81,112.02,1359.73,98.92,1376.63z"/>
	<path class="st5" d="M44.08,1421.49c-5.27,7.65-28.4,7.1-44.08-6.47v-48.56c4.15-0.48,8.84,0.31,13.92,3.15
		c1,0.55,2.01,1.19,3.03,1.91C32.99,1382.79,54.06,1406.99,44.08,1421.49z"/>
</g>
</svg>
