<?xml version="1.0" encoding="utf-8"?>
<!-- Generator: Adobe Illustrator 24.0.1, SVG Export Plug-In . SVG Version: 6.00 Build 0)  -->
<svg version="1.1" id="Ebene_1" xmlns="http://www.w3.org/2000/svg" xmlns:xlink="http://www.w3.org/1999/xlink" x="0px" y="0px"
	 viewBox="0 0 1080 1131" style="enable-background:new 0 0 1080 1131;" xml:space="preserve">
<style type="text/css">
	.st0{fill:#EB5B30;}
</style>
<path class="st0" d="M539.4,1131c-16.07,0-31.48-6.38-42.84-17.75L17.75,634.43c-23.67-23.66-23.67-62.02,0-85.68
	c23.64-23.67,62.04-23.67,85.68,0L539.4,984.72l435.98-435.96c23.64-23.67,62.04-23.67,85.68,0c23.67,23.66,23.67,62.02,0,85.68
	l-478.82,478.82C570.88,1124.62,555.47,1131,539.4,1131z"/>
<path class="st0" d="M539.4,600c-16.07,0-31.48-6.38-42.84-17.75L17.75,103.43c-23.67-23.66-23.67-62.02,0-85.68
	c23.64-23.67,62.04-23.67,85.68,0L539.4,453.72L975.37,17.75c23.64-23.67,62.04-23.67,85.68,0c23.67,23.66,23.67,62.02,0,85.68
	L582.24,582.25C570.88,593.62,555.47,600,539.4,600z"/>
</svg>
