<?xml version="1.0" encoding="utf-8"?>
<!-- Generator: Adobe Illustrator 24.0.1, SVG Export Plug-In . SVG Version: 6.00 Build 0)  -->
<svg version="1.1" id="Ebene_1" xmlns="http://www.w3.org/2000/svg" xmlns:xlink="http://www.w3.org/1999/xlink" x="0px" y="0px"
	 viewBox="0 0 1080 1131" style="enable-background:new 0 0 1080 1131;" xml:space="preserve">
<style type="text/css">
	.st0{fill:#EB5B30;}
</style>
<path class="st0" d="M539.41,0c16.07,0,31.48,6.38,42.84,17.75l478.8,478.82c23.67,23.66,23.67,62.02,0,85.68
	c-23.64,23.67-62.04,23.67-85.68,0L539.41,146.28L103.43,582.25c-23.64,23.67-62.04,23.67-85.68,0c-23.67-23.66-23.67-62.02,0-85.68
	L496.57,17.75C507.93,6.38,523.34,0,539.41,0z"/>
<path class="st0" d="M539.41,531c16.07,0,31.48,6.38,42.84,17.75l478.8,478.82c23.67,23.66,23.67,62.02,0,85.68
	c-23.64,23.67-62.04,23.67-85.68,0L539.41,677.28l-435.98,435.96c-23.64,23.67-62.04,23.67-85.68,0
	c-23.67-23.66-23.67-62.02,0-85.68l478.82-478.82C507.93,537.38,523.34,531,539.41,531z"/>
</svg>
