<?xml version="1.0" encoding="utf-8"?>
<!-- Generator: Adobe Illustrator 24.0.1, SVG Export Plug-In . SVG Version: 6.00 Build 0)  -->
<svg version="1.1" id="Ebene_1" xmlns="http://www.w3.org/2000/svg" xmlns:xlink="http://www.w3.org/1999/xlink" x="0px" y="0px"
	 viewBox="0 0 1080 1080" style="enable-background:new 0 0 1080 1080;" xml:space="preserve">
<style type="text/css">
	.st0{fill:#EB5B2F;}
	.st1{fill:#FFFFFF;}
	.st2{fill:#5F536D;}
	.st3{fill:#6FC3BD;}
</style>
<circle class="st0" cx="540.34" cy="648.22" r="431.78"/>
<g>
	<g>
		<g>
			<path class="st1" d="M755.22,703.89H540.93c-5.3,0-9.6-4.3-9.6-9.6c0-5.3,4.3-9.6,9.6-9.6h214.29c5.3,0,9.6,4.3,9.6,9.6
				C764.82,699.59,760.52,703.89,755.22,703.89z"/>
		</g>
		<g>
			<path class="st1" d="M873.81,776.26h-37.14c-5.3,0-9.6-4.3-9.6-9.6c0-5.3,4.3-9.6,9.6-9.6h37.14c5.3,0,9.6,4.3,9.6,9.6
				C883.41,771.97,879.11,776.26,873.81,776.26z"/>
		</g>
		<g>
			<path class="st1" d="M790.95,776.26h-97.15c-5.3,0-9.6-4.3-9.6-9.6c0-5.3,4.3-9.6,9.6-9.6h97.15c5.3,0,9.6,4.3,9.6,9.6
				C800.55,771.97,796.25,776.26,790.95,776.26z"/>
		</g>
	</g>
	<g>
		<g>
			<path class="st1" d="M527.72,542.89H335.68c-5.3,0-9.6-4.3-9.6-9.6c0-5.3,4.3-9.6,9.6-9.6h192.04c5.3,0,9.6,4.3,9.6,9.6
				C537.31,538.59,533.02,542.89,527.72,542.89z"/>
		</g>
		<g>
			<path class="st1" d="M262.69,622.88H229.4c-5.3,0-9.6-4.3-9.6-9.6c0-5.3,4.3-9.6,9.6-9.6h33.29c5.3,0,9.6,4.3,9.6,9.6
				C272.29,618.58,267.99,622.88,262.69,622.88z"/>
		</g>
		<g>
			<path class="st1" d="M390.71,622.88h-87.06c-5.3,0-9.6-4.3-9.6-9.6c0-5.3,4.3-9.6,9.6-9.6h87.06c5.3,0,9.6,4.3,9.6,9.6
				C400.31,618.58,396.01,622.88,390.71,622.88z"/>
		</g>
	</g>
	<path class="st1" d="M713.68,377.33c-8.61-68.85-38.98-152.55-90.26-248.79c-38.03-71.39-74.11-123.47-74.47-124
		C546.98,1.71,543.73,0,540.29,0c-3.46,0-6.71,1.71-8.68,4.54c-0.36,0.53-36.44,52.62-74.47,124
		c-51.29,96.24-81.65,179.93-90.26,248.79c-22.36,178.86,51.07,292.98,83.7,333.75c34.06,42.57,67.75,70.92,79.26,80.11
		c2.39,1.9,3.82,2.98,4.12,3.19c1.86,1.41,4.1,2.11,6.33,2.11c2.22,0,4.45-0.7,6.33-2.11c0.3-0.23,1.82-1.37,4.33-3.38
		c11.72-9.37,45.2-37.62,79.03-79.92C662.6,670.3,736.04,556.18,713.68,377.33z M613.49,697.88c-23.5,29.39-47.21,51.98-62.54,65.5
		c-4.27,3.74-7.9,6.8-10.68,9.08c-2.72-2.24-6.27-5.22-10.43-8.89c-15.29-13.43-39.08-36.08-62.77-65.69
		c-30.93-38.66-100.59-147.06-79.24-317.93c16.91-135.3,121.43-303.03,152.46-350.39C571.31,76.9,675.8,244.58,692.73,379.95
		C714.08,550.82,644.42,659.22,613.49,697.88z"/>
	<path class="st2" d="M613.49,697.88c-23.5,29.39-47.21,51.98-62.54,65.5V633.95l79.81-71.72c4.35-3.91,4.71-10.58,0.8-14.91
		c-3.88-4.35-10.58-4.71-14.91-0.8l-65.71,59.06v-80.4l79.81-71.75c4.35-3.88,4.71-10.56,0.8-14.91
		c-3.88-4.33-10.58-4.69-14.91-0.78l-65.71,59.03v-82.85l79.81-71.72c4.35-3.89,4.71-10.58,0.8-14.91
		c-3.88-4.33-10.58-4.69-14.91-0.8l-65.71,59.06V186.52c0-5.85-4.73-10.56-10.56-10.56s-10.56,4.71-10.56,10.56v199.21l-65.92-59.25
		c-4.33-3.88-11-3.53-14.91,0.8c-3.91,4.33-3.55,11.02,0.8,14.91l80.02,71.91v82.85l-65.92-59.22c-4.33-3.91-11-3.55-14.91,0.78
		c-3.91,4.35-3.55,11.02,0.8,14.91l80.02,71.94v80.4l-65.92-59.25c-4.33-3.91-11-3.55-14.91,0.8c-3.91,4.33-3.55,11,0.8,14.91
		l80.02,71.91v129.43c-15.29-13.43-39.08-36.08-62.77-65.69c-30.93-38.66-100.59-147.06-79.24-317.93
		c16.91-135.3,121.43-303.03,152.46-350.39C571.31,76.9,675.8,244.58,692.73,379.95C714.08,550.82,644.42,659.22,613.49,697.88z"/>
	<path class="st1" d="M540.4,892.27c-2.8,0-5.48-1.11-7.46-3.09l-83.42-83.42c-4.12-4.12-4.12-10.81,0-14.93
		c4.12-4.12,10.81-4.12,14.93,0l75.96,75.96l75.96-75.96c4.12-4.12,10.81-4.12,14.93,0c4.12,4.12,4.12,10.81,0,14.93l-83.42,83.42
		C545.88,891.16,543.2,892.27,540.4,892.27z"/>
	<path class="st3" d="M630.76,342.19l-79.81,71.72l-3.61,3.25c-2.01,1.82-4.52,2.7-7.05,2.7c-2.53,0-5.05-0.89-7.05-2.7l-3.4-3.06
		l-80.02-71.91c-4.35-3.89-4.71-10.58-0.8-14.91c3.91-4.33,10.58-4.69,14.91-0.8l65.92,59.25l10.45,9.4l10.66-9.59l65.71-59.06
		c4.33-3.88,11.02-3.53,14.91,0.8C635.47,331.62,635.11,338.31,630.76,342.19z"/>
	<path class="st3" d="M630.76,453.42l-79.81,71.75l-3.61,3.25c-2.01,1.79-4.52,2.7-7.05,2.7c-2.53,0-5.05-0.91-7.05-2.7l-3.4-3.06
		l-80.02-71.94c-4.35-3.88-4.71-10.56-0.8-14.91c3.91-4.33,10.58-4.69,14.91-0.78l65.92,59.22l10.45,9.4l10.66-9.59l65.71-59.03
		c4.33-3.91,11.02-3.55,14.91,0.78C635.47,442.86,635.11,449.54,630.76,453.42z"/>
	<path class="st3" d="M630.76,562.22l-79.81,71.72l-3.61,3.25c-2.01,1.79-4.52,2.7-7.05,2.7c-2.53,0-5.05-0.91-7.05-2.7l-3.4-3.06
		l-80.02-71.91c-4.35-3.91-4.71-10.58-0.8-14.91c3.91-4.35,10.58-4.71,14.91-0.8l65.92,59.25l10.45,9.4l10.66-9.59l65.71-59.06
		c4.33-3.91,11.02-3.55,14.91,0.8C635.47,551.64,635.11,558.32,630.76,562.22z"/>
	<path class="st1" d="M550.95,186.52v806.43c0,5.83-4.73,10.56-10.56,10.56s-10.56-4.73-10.56-10.56V186.52
		c0-5.85,4.73-10.56,10.56-10.56S550.95,180.67,550.95,186.52z"/>
</g>
</svg>
