<?xml version="1.0" encoding="utf-8"?>
<!-- Generator: Adobe Illustrator 24.0.1, SVG Export Plug-In . SVG Version: 6.00 Build 0)  -->
<svg version="1.1" id="Ebene_1" xmlns="http://www.w3.org/2000/svg" xmlns:xlink="http://www.w3.org/1999/xlink" x="0px" y="0px"
	 viewBox="0 0 1080 1080" style="enable-background:new 0 0 1080 1080;" xml:space="preserve">
<style type="text/css">
	.st0{fill:#EB5B2F;}
	.st1{fill:#5F536D;}
	.st2{fill:#6FC3BD;}
	.st3{fill:#FFFFFF;stroke:#FFFFFF;stroke-width:2;stroke-miterlimit:10;}
	.st4{fill:#FFFFFF;}
</style>
<g>
	<circle class="st0" cx="539.69" cy="647.28" r="432.46"/>
	<g>
		<circle class="st1" cx="540.94" cy="646.09" r="332.25"/>
		<path class="st2" d="M239.4,510.03c0,0,0.45,25.96,11.59,24.63s22.73-7.58,36.1-19.17c13.37-11.59,29.86-33.88,55.27-41.45
			c25.41-7.58,57.05-12.93,71.32-28.53c14.26-15.6,6.24-37,15.16-41.9c8.91-4.9,37.44-29.42,38.33-38.78s22.29-4.46,9.81,9.81
			c-12.48,14.26-34.32,33.43-25.85,40.12c8.47,6.69,22.73-7.58,28.53-13.82s30.76-10.25,37.44-13.82
			c6.69-3.57,36.1-35.21,11.59-41.01c-24.52-5.79-47.69-2.23-64.19-2.67s-35.66-5.79-42.35-5.79s-66.86,27.19-88.26,46.8
			c-21.4,19.61-92.71,118.12-92.71,118.12L239.4,510.03z"/>
		<path class="st2" d="M217.56,701.37c2.23-1.34,6.69-6.24,7.13-18.72c0.45-12.48,0.45-29.86,8.47-30.31
			c8.02-0.45,30.31,8.02,35.21,24.52c4.9,16.49,5.79,28.97,12.93,31.65c7.13,2.67,23.18,10.25,28.08,28.08
			c4.9,17.83,28.08,39.22,41.45,45.02c13.37,5.79,41.45,16.94,31.2,41.45c-10.25,24.52-6.24,32.98-5.35,45.47
			c0.89,12.48-1.34,12.48-9.36,16.49c-8.02,4.01-2.67,14.71,1.34,21.84c4.01,7.13,9.81,29.86,9.81,29.86l-41.9-24.96l-73.1-78.45
			l-37.89-73.1L213.1,708.5L217.56,701.37z"/>
		<path class="st2" d="M652.6,338.98c0,0,0.89,4.46-2.23,4.9s-13.37-5.79-16.05-2.67c-2.67,3.12-4.01,9.36,0.89,12.03
			c4.9,2.67,12.26,3.12,10.03,5.35s-9.58,0.22-11.59,0.22c-2.01,0-5.13,2.01,0,4.46c5.13,2.45,17.16,6.02,15.38,7.13
			s-8.69,0.67-11.14,3.57c-2.45,2.9-7.58,4.68-6.46,10.25c1.11,5.57,2.9,10.47,0.45,12.26c-2.45,1.78-7.13,0-8.91-1.56
			s-6.46-5.35-5.79-6.69c0.67-1.34,5.79,1.11,7.58,0.67c1.78-0.45,4.46-5.13-0.22-6.69c-4.68-1.56-18.28-2.9-21.4-4.23
			s-13.37-4.46-17.83,1.11c-4.46,5.57-2.9,10.47-4.9,17.16c-2.01,6.69-8.91,11.14-8.91,16.27c0,5.13,1.34,13.6,4.68,14.49
			s4.46-1.34,6.24-2.9s4.46-1.11,5.13,0.67c0.67,1.78,2.67,5.57,4.68,7.13s0,4.01,2.23,5.79c2.23,1.78,9.14,0.45,10.03-3.34
			c0.89-3.79,2.45-14.04,0.67-15.38s-6.69-2.45-7.58-4.9c-0.89-2.45-0.89-8.91,0.22-11.81c1.11-2.9,1.34-8.02,4.9-7.8
			s4.01,5.13,2.67,7.8s0,10.03,4.23,12.93c4.23,2.9,7.13,0.45,9.36-0.67c2.23-1.11,3.79-2.67,5.13-1.56
			c1.34,1.11,4.23,4.9,0.45,5.79c-3.79,0.89-7.13-0.22-7.58,1.34c-0.45,1.56,0.45,3.34,3.12,4.68s5.13,3.34,3.12,4.23
			c-2.01,0.89-5.79-2.45-6.91-0.67c-1.11,1.78-1.78,3.12-0.45,5.13s3.79,8.47,1.78,8.91c-2.01,0.45-5.13-2.67-8.25-1.11
			c-3.12,1.56-25.85,5.57-32.09,10.7c-6.24,5.13-6.91,13.6-13.37,17.38c-6.46,3.79-18.05,5.13-16.05,9.14
			c2.01,4.01,10.03,8.47,10.03,14.71s2.01,14.04-3.79,13.82s-22.84-5.68-24.18-2.67c-1.34,3.01-0.67,5.35,1.67,6.35
			c2.34,1,4.01,2.34,3.01,3.34c-1,1-6.69,0-7.02,3.68c-0.33,3.68-4.01,20.39-1.67,22.4c2.34,2.01,5.35-0.67,7.35,0.67
			s3.01,6.02,7.69,4.35s15.04-4.68,18.72-8.36c3.68-3.68,1.67-9.69,3.34-12.7c1.67-3.01,5.68-7.02,8.36-7.69s3.68-3.01,3.68-4.35
			s-1.34-8.36,0.67-8.69c2.01-0.33,6.35,2.34,9.36,1c3.01-1.34,6.69-2.67,8.36-4.68s4.35-2.34,6.35-0.33
			c2.01,2.01,10.36,12.03,15.04,14.04c4.68,2.01,11.37,5.35,13.04,7.69c1.67,2.34,5.01,4.35,4.35,7.35
			c-0.67,3.01-1.34,2.84-0.67,3.01c0.67,0.17,2.84,0.08,2.84-3.59c0-3.68-0.5-6.18-1.92-7.77c-1.42-1.59,0.25-3.09,1.17-2.34
			c0.92,0.75,4.85,2.51,4.85,1.5c0-1-9.44-6.27-17.72-12.03c-8.27-5.77-13.79-8.94-13.87-11.78c-0.08-2.84,2.42-5.01,4.43-5.01
			s16.55,12.54,19.47,13.71c2.93,1.17,8.02,3.26,11.78,10.53c3.76,7.27,3.09,8.02,10.2,14.04c7.1,6.02,6.07,6.88,9.19,7.77
			c3.12,0.89,0.67-4.46,2.01-5.79s4.23-0.45,6.02,0.22c1.78,0.67,1.84-2.54,0.59-2.95c-1.25-0.42-5.52-2.76-8.02-4.76
			c-2.51-2.01-7.02-6.44-6.27-6.94c0.75-0.5,5.68,1.5,6.02-0.17c0.33-1.67-0.5-5.35,0.67-5.18c1.17,0.17,7.35,3.84,8.69,6.18
			c1.34,2.34,4.51,15.38,9.03,15.55c4.51,0.17,13.21-3.34,15.55-2.67c2.34,0.67,6.35,4.01,8.36,3.34c2.01-0.67,5.68-8.02,8.02-6.35
			c2.34,1.67,9.36,9.86,8.19,13.71s2.67,18.72-0.84,20.06s-11.87-1.17-14.71,1.84c-2.84,3.01-2.17,5.68-8.02,4.68
			c-5.85-1-22.73-3.18-26.08-4.35c-3.34-1.17-10.7-5.35-12.2,3.01c-1.5,8.36,1,12.2-7.35,12.2c-8.36,0-17.89-11.7-20.73-12.7
			s-8.19,0-10.7,0c-2.51,0-10.53-2.67-10.36-5.68c0.17-3.01,4.35-5.52,3.84-8.19s-1.5-3.51-3.18-6.02s-5.68-6.18-9.53-4.51
			c-3.84,1.67-24.91,0-31.26,3.84c-6.35,3.84-11.03,9.19-14.04,9.19s-15.04-5.18-17.55-1.5c-2.51,3.68-15.66,12.48-18.33,19.61
			c-2.67,7.13-11.14,21.4-16.05,26.74s-25.41,29.86-25.41,36.55c0,6.69,1.78,30.76-0.89,37.44c-2.67,6.69-6.69,20.95,0.45,30.76
			c7.13,9.81,11.59,22.29,15.6,25.85c4.01,3.57,22.29,20.5,29.42,20.5c7.13,0,16.49-4.01,27.19-4.01c10.7,0,16.05-3.12,22.73-5.79
			c6.69-2.67,18.72-3.12,22.73,4.01c4.01,7.13,14.71,3.57,20.5,5.35c5.79,1.78,4.01,12.03,0.89,19.17
			c-3.12,7.13-5.79,9.81-1.78,15.6c4.01,5.79,22.29,18.28,21.4,34.32s-3.57,28.97-8.02,36.1c-4.46,7.13-5.79,20.06-2.23,25.85
			c3.57,5.79-2.67,21.84,0,27.19c2.67,5.35,6.24,15.16,4.46,19.17s1.78,7.13,6.24,5.35s43.24-7.58,65.52-38.33
			s27.64-39.67,33.43-41.9s20.5-10.7,22.29-28.08c1.78-17.38-1.78-32.98,3.12-43.68c4.9-10.7,26.3-31.65,34.32-53.49
			c8.02-21.84,16.05-53.93,14.71-58.39s-9.36,3.57-15.16,5.79c-5.79,2.23-9.36,6.69-12.03,0c-2.67-6.69-4.01-8.02-7.13-10.25
			c-3.12-2.23-16.16-19.84-20.17-26.69c-4.01-6.85-21.4-39.78-25.07-43.96c-3.68-4.18-13.87-16.55-14.21-18.89
			c-0.33-2.34,2.67-1.34,5.18,2.34c2.51,3.68,4.35,3.01,3.68-2.01c-0.67-5.01-5.01-9.86-4.85-10.53c0.17-0.67,0.5-2.17,2.01-0.33
			c1.5,1.84,6.85,5.18,7.52,11.2c0.67,6.02,34.6,46.47,38.44,53.49c3.84,7.02,10.7,11.03,11.03,17.89
			c0.33,6.85,2.01,19.89,4.35,19.89c2.34,0,22.4-14.88,23.57-26.24s18.55-27.75,13.99-43.24c-4.57-15.49-9.14-12.93-11.48-16.6
			c-2.34-3.68-4.79-11.92-6.02-11.59c-1.23,0.33,0.78,9.36-1.23,12.7c-2.01,3.34-5.79,5.24-7.91,4.23
			c-2.12-1-18.28-18.72-20.5-21.28s-3.68-12.37,5.35-8.69c9.03,3.68,12.81,11.7,15.16,12.48s7.47-0.45,6.8-3.34
			c-0.67-2.9,0.45-2.56,1.11-2.45c0.67,0.11,4.01,7.47,6.69,7.13c2.67-0.33,12.7-3.68,14.6-5.01c1.89-1.34,3.23-4.9,7.47-0.33
			c4.23,4.57,17.61,5.35,24.74,38.78c7.13,33.43,2.67,48.14,2.23,50.81c-0.45,2.67,7.86-12.59,7.86-12.59l4.51-16.05l-7.69-54.83
			l-32.09-88.26l-81.24-94.27l-80.23-47.14L652.6,338.98z"/>
		<path class="st2" d="M858.53,653.67c0,0-12.7,38.89-7.69,41.57c5.01,2.67,22.06-22.4,22.06-30.76s-1-29.08-1-29.08l-7.69,0.33
			L858.53,653.67z"/>
		<path class="st2" d="M839.47,619.35c0,0-9.03,44.46-6.02,47.14s11.03,7.69,12.03-4.35c1-12.03,3.68-19.06,1.67-22.06
			C845.16,637.07,845.49,621.36,839.47,619.35z"/>
		<path class="st2" d="M829.44,691.23c-4.23,0.47-2.67,13.04,4.35,13.04c7.02,0,16.72-3.34,13.71-6.02S838.47,690.22,829.44,691.23z
			"/>
		<path class="st2" d="M229.59,568.54c0.92,3.36,6.24,24.52,8.91,24.96c2.67,0.45,10.25,4.01,5.79-5.35
			c-4.46-9.36-7.13-28.53-11.14-26.74S228.25,563.63,229.59,568.54z"/>
		<path class="st2" d="M244.3,598.85c0,0,1.34,8.02,0,7.58c-1.34-0.45-7.58-0.89-5.35,0.89c2.23,1.78,8.47,1.78,10.7,4.01
			c2.23,2.23,4.01,3.12,4.9,1.78s-0.45-9.36-3.12-10.25S246.53,598.85,244.3,598.85z"/>
		<path class="st2" d="M258.12,617.12c0,0,2.23,4.01,4.46,3.57s3.12-1.34,1.34-3.57S259.9,616.23,258.12,617.12z"/>
		<path class="st2" d="M510.85,399.16c0,0-1.78,6.24,5.79,5.35c7.58-0.89,13.82-2.67,13.37-5.35c-0.45-2.67-0.61-3.96-2.95-3.96
			c-2.34,0-5.52,1.5-7.19,2.17c-1.67,0.67-4.35,1.34-4.68-0.17c-0.33-1.5-1.34-2.51-2.84-1.84
			C510.85,396.04,510.85,399.16,510.85,399.16z"/>
		<path class="st2" d="M538.6,442.84c1.33-0.13,5.85,0.17,4.18,5.35s-1.17,8.36-3.18,9.53c-2.01,1.17-8.19,6.02-10.2,4.18
			c-2.01-1.84-1.84-4.85,0.17-6.02c2.01-1.17,2.01-3.34,1.34-4.01c-0.67-0.67-1.34-3.68,0.17-4.85
			C532.58,445.85,535.09,443.17,538.6,442.84z"/>
		<path class="st2" d="M544.95,466.07c0.84,0.84,10.86,1.34,14.04,0.17c3.18-1.17,8.19-8.02,6.18-11.53
			c-2.01-3.51-8.86-6.02-9.53-9.69c-0.67-3.68-0.67-4.85-2.67-4.85c-2.01,0-4.51-1.5-3.01-2.67c1.5-1.17,4.85-3.18,4.18-5.18
			c-0.67-2.01-4.68-1.17-4.51-2.01c0.17-0.84,3.84-3.68,3.34-4.68c-0.5-1-3.18-0.5-6.18,2.17c-3.01,2.67-4.68-0.67-6.02,1.5
			s-3.51,7.19-0.67,9.03c2.84,1.84,6.52,4.68,6.85,7.69c0.33,3.01-0.84,10.36-1,13.71c-0.17,3.34-3.51,6.52-2.67,7.35
			s1.84,2.34,5.01,1.17c3.18-1.17,7.02-3.01,7.02-3.01l0.67-3.01"/>
		<path class="st2" d="M585.29,430.36c-0.65,0.17-2.56,6.13-2.56,7.35c0,1.23,0.67,5.01,2.9,4.9c2.23-0.11,4.9-1.78,4.68-4.12
			c-0.22-2.34-1.89-7.58-2.56-7.8C587.07,430.47,586.96,429.91,585.29,430.36z"/>
		<path class="st2" d="M561.67,354.14c0.24,2.6,3.57,7.8,6.46,7.13c2.9-0.67,0.22-4.23,1.34-4.46c1.11-0.22,2.45,1.34,3.57,1.11
			c1.11-0.22,1.11-1.78,0.22-3.12c-0.89-1.34-0.22-3.12-0.22-3.12s-2.23-1.34-5.35-0.67C564.56,351.68,561.44,351.68,561.67,354.14z
			"/>
		<path class="st2" d="M614.49,351.68c-1.61,0.2-3.57,2.45-2.9,4.23c0.67,1.78,7.35,11.14,10.92,11.81s5.35,1.78,8.02,1.78
			s2.9-1.11,2.01-1.34s-2.01-0.89-6.46-3.57c-4.46-2.67-7.13-3.34-8.47-6.91c-1.34-3.57,0.45-4.01-0.67-4.9
			C615.82,351.91,616.27,351.46,614.49,351.68z"/>
		<path class="st2" d="M600,517.94c1.14,0,3.79,2.67,3.34,5.79s-2.01,4.68-2.9,4.68s-2.01-4.9-2.01-7.35
			C598.44,518.61,598.89,517.94,600,517.94z"/>
		<path class="st2" d="M617.83,533.55c0,1.41,6.46,5.35,8.25,5.35s3.34-6.46,2.01-7.13C626.74,531.09,617.83,532.21,617.83,533.55z"
			/>
		<path class="st2" d="M668.87,542.46c-1.34,0,3.34,3.57,6.24,3.57s4.9-0.89,4.46-2.23S669.98,542.46,668.87,542.46z"/>
		<path class="st2" d="M739.96,880.33c2.24,3.92,30.98-31.2,35.21-37.44c4.23-6.24,13.15-14.71,13.15-18.28s2.67-14.04-0.89-10.25
			c-3.57,3.79-19.84,23.85-20.95,23.62c-1.11-0.22-3.34-0.22-1.11-3.57c2.23-3.34,20.5-26.97,26.3-37
			c5.79-10.03,6.91-22.96,5.35-22.51c-1.56,0.45-31.2,49.48-33.65,52.37c-2.45,2.9-12.48,10.7-11.59,15.82
			c0.89,5.13,1.11,5.79,3.79,4.9s3.34-0.67,2.45,1.11s-5.57,12.48-8.69,16.05C746.2,868.74,737.29,875.65,739.96,880.33z"/>
		<path class="st3" d="M539.69,985.76c-90.41,0-175.41-35.21-239.34-99.14s-99.14-148.93-99.14-239.34
			c0-90.41,35.21-175.41,99.14-239.34s148.93-99.14,239.34-99.14c90.41,0,175.41,35.21,239.34,99.14s99.14,148.93,99.14,239.34
			c0,90.41-35.21,175.41-99.14,239.34S630.1,985.76,539.69,985.76z M539.69,321.25c-87.08,0-168.96,33.91-230.54,95.49
			s-95.49,143.45-95.49,230.54s33.91,168.96,95.49,230.53s143.45,95.49,230.54,95.49s168.96-33.91,230.53-95.49
			s95.49-143.45,95.49-230.53s-33.91-168.96-95.49-230.54S626.78,321.25,539.69,321.25z"/>
	</g>
	<g>
		<path class="st4" d="M1053.1,619.28c0,20.44-5.75,39.56-15.78,55.72c-4.35,7.07-9.48,13.44-15.31,19.27
			c-0.08,0.16-0.08,0.16-0.16,0.16L911.97,804.7l-46.78,46.78c-2.1,2.1-4.9,3.34-8.08,3.34c-2.95,0-5.75-1.09-7.77-3.03
			c-0.23-0.16-0.54-0.46-0.7-0.7l-46.63-46.55L689.79,692.33c-5.13-5.52-9.71-11.5-13.6-17.87c0-0.08-0.08-0.16-0.08-0.23
			c-9.64-16.01-15.15-34.66-15.15-54.63c0-58.6,47.72-106.31,106.31-106.31c37.61,0,70.8,19.66,89.68,49.19
			c18.81-29.76,52.07-49.5,89.84-49.5C1005.46,512.96,1053.1,560.52,1053.1,619.28z"/>
		<path class="st4" d="M857.11,873.86c-7.56,0-14.69-2.7-20.18-7.62c-0.82-0.69-1.6-1.45-2.32-2.25l-46.04-45.97L675.85,705.28
			c-6.07-6.54-11.42-13.57-15.91-20.92l-2.78-4.57v-0.38c-9.98-18.31-15.23-38.88-15.23-59.83c0-69.11,56.23-125.34,125.35-125.34
			c34.22,0,66.25,13.74,89.6,37.66c23.32-24.12,55.47-37.97,89.91-37.97c69.11,0,125.34,56.23,125.34,125.34
			c0,23.36-6.44,46.1-18.63,65.75c-4.78,7.76-10.6,15.16-17.29,21.96c-0.51,0.58-1.06,1.13-1.64,1.65l-109.12,109.5l-46.81,46.81
			C872.9,870.69,865.25,873.86,857.11,873.86z M703.5,679.13l111.96,111.96l41.64,41.57l41.41-41.41l110.4-110.79
			c4.81-4.86,8.81-9.91,12.2-15.43c8.49-13.68,12.95-29.48,12.95-45.74c0-48.13-39.15-87.28-87.28-87.28
			c-30.1,0-57.67,15.19-73.75,40.64l-15.99,25.31l-16.13-25.22c-16.18-25.3-43.72-40.41-73.65-40.41
			c-48.13,0-87.28,39.15-87.28,87.28c0,15.81,4.3,31.31,12.43,44.82l1.39,2.31C696.61,671.02,699.87,675.19,703.5,679.13z"/>
	</g>
	<path class="st1" d="M1052.63,619.25c0,20.44-5.75,39.56-15.78,55.72c-4.35,7.07-9.48,13.44-15.31,19.27
		c-0.08,0.16-0.08,0.16-0.16,0.16L911.51,804.68l-46.78,46.78c-2.1,2.1-4.9,3.34-8.08,3.34c-2.95,0-5.75-1.09-7.77-3.03
		c-0.23-0.16-0.54-0.46-0.7-0.7l-46.63-46.55L689.32,692.3c-5.13-5.52-9.71-11.5-13.6-17.87c0-0.08-0.08-0.16-0.08-0.23
		c-9.64-16.01-15.15-34.66-15.15-54.63c0-58.6,47.72-106.31,106.31-106.31c37.61,0,70.8,19.66,89.68,49.19
		c18.81-29.76,52.07-49.5,89.84-49.5C1004.99,512.94,1052.63,560.5,1052.63,619.25z"/>
</g>
</svg>
