<?xml version="1.0" encoding="utf-8"?>
<!-- Generator: Adobe Illustrator 23.1.1, SVG Export Plug-In . SVG Version: 6.00 Build 0)  -->
<svg version="1.1" id="Ebene_1" xmlns="http://www.w3.org/2000/svg" xmlns:xlink="http://www.w3.org/1999/xlink" x="0px" y="0px"
	 viewBox="0 0 1366 768" style="enable-background:new 0 0 1366 768;" xml:space="preserve">
<style type="text/css">
	.st0{fill:#4B4059;}
	.st1{fill:#F3C6BD;}
	.st2{fill:#3040C4;}
	.st3{fill:#F9BA06;}
	.st4{fill:#5DBCB1;}
	.st5{fill:#E74322;}
	.st6{fill:#FFFFFF;}
</style>
<g>
	<path class="st0" d="M1366,0v657.9l-21,30.1l-199.3-40l-19.7-4l-71.1-86.7l-3.9-4.8l-76.5-93.4c0,0,0,0,0,0l-70.2-85.7l-27.8-33.9
		L844,300l25.4-37.5L960,129l63-42.7L1150.5,0H1366z"/>
</g>
<g>
	<path class="st1" d="M1304,69c-17.2,56.1-45.6,127.8-126.4,200.1c-27.3,24.4-60.7,48.9-101.6,72.9c-22.1,13-45.8,21.6-70.2,26.8
		c-13.3,2.8-26.9,4.7-40.5,5.6c-20.4,1.4-40.9,0.9-61.2-1c-16.1-1.5-32.1-3.9-47.7-7c-77.4-15.2-144.7-46.1-173.5-60.6
		C673.3,301,668,298,668,298l-8.9-21.6v0l-40.9-98.7L550,13l22.7-13h738.2C1311.2,27.3,1309.3,51.7,1304,69z"/>
</g>
<g>
	<path class="st1" d="M927.3,768H125.6c-0.7,0.3-1.4,0.6-2,0.9l-24-0.9l2-3l22.2-33.9h0L189,631l13.6-10.3l0,0l94.7-72l0,0l4.6-3.5
		l83.2-63.2l17.6-13.4l3.6-2.7L418,457c0,0,7.8-1.8,21.5-3.9c9.8-1.5,22.7-3.1,37.8-4.3c12-0.9,25.4-1.6,39.9-1.7
		c17.5-0.1,36.5,0.6,56.6,2.7c15.7,1.6,31.9,4,48.5,7.5c1.8,0.4,3.6,0.8,5.3,1.1c0.7,0.2,1.3,0.3,2,0.5c1.3,0.3,2.7,0.6,4,0.9
		c2.6,0.6,5.2,1.3,7.8,1.9c12.9,3.3,25.8,7.4,38.7,12.2c3,1.1,5.9,2.3,8.8,3.5c1.4,0.6,2.8,1.2,4.2,1.8c5.3,2.2,10.4,4.6,15.4,7.1
		c0.5,0.2,0.9,0.5,1.4,0.7c3.2,1.6,6.4,3.3,9.6,5h0c22,12.1,41.5,26.5,59.1,42.9C842,593.7,881,676.9,925,762c0.5,1,1,2,1.3,3
		C926.7,766,927.1,767,927.3,768z"/>
</g>
<g>
	<path class="st2" d="M450.2,410.5l-5.7,22.6l-5,20l-5.6,22.2c0,0-2.3,28.7-12.3,70.8c-12.4,52.2,8.9,157.3-37.6,221.8H125.6
		c-0.7,0.3-1.4,0.6-2,0.9c0.1-0.3,0.3-0.6,0.5-0.9c38.4-76.3,118.7-163.9,177.9-222.8c40.9-40.6,71.6-67.5,71.6-67.5l6.1-5.3
		l31.4-27.5v0l20.5-17.9L450.2,410.5z"/>
</g>
<g>
	<polygon class="st3" points="452,385 418.3,420.7 414,425.2 375.8,465.6 297.3,548.7 297.3,548.7 126,730 123.7,731.1 123.7,731.1 
		41.9,768 0,768 0,151 23,130 267.8,275.5 267.8,275.5 411.7,361 414.2,362.5 	"/>
</g>
<g>
	<path class="st4" d="M697,196.1c-0.9,14.2-2.2,28.2-3.8,42c-2.7,23.4-6.2,46.1-10.3,67.7c-2.8,14.8-5.8,29-9,42.7
		c-10.5,45.4-22.6,84.3-32.7,113.3c-1.3,3.8-2.6,7.4-3.9,10.9v0C627.3,500.8,620,517,620,517l-50.6-24.2l-92.1-44l-32.8-15.7
		l-13-6.2l-13.1-6.3l-3.6-1.7l-42.9-20.5L324.9,376L0,220.8V0h682.5C698.3,65.5,701.2,132.7,697,196.1z"/>
</g>
<g>
	<path class="st0" d="M702,549c0,42.4-2.2,77.9-6.2,111.8c-4.1,34.4-10.2,67.2-17.9,104.2c-0.2,1-0.4,2-0.6,3H547.6l-1.7-3
		l-45.6-80.3l-78.7-138.6l-3.3-5.9l-22.7-39.9l-4.6-8.1l-5.8-10.2l-5.5-9.7l-3.8-6.7l-26.3-46.3L324.9,376l-57.1-100.5h0L259,260
		c0,0,61.1-24.8,135.8-23.7c23.8,0.4,49,3.4,73.9,10.7c31,9,61.7,24.6,89.3,50c5.3,4.9,10.4,9.6,15.1,14.2
		c13.7,13.4,24.7,25.7,32.9,38.4c2.2,3.4,4.2,6.9,6,10.4c13.1,25.5,16.4,15.8,24.2,36.7c0.9,2.3,1.8,5.1,2.8,8.3
		c0.2,0.6,0.9,1.3,1.9,2.1c0.6,0.5,1.4,1,2.2,1.6c3.5,2.2,8.5,4.8,13,7.2c5.1,2.8,9.4,5.4,9.9,7.1c0,0,18,18,18,18
		c1.8,6,5,18.8,8.3,34.3c0.3,1.3,0.5,2.6,0.8,3.9c0.5,2.3,0.9,4.7,1.4,7.1c1,5.1,1.9,10.4,2.8,15.7C700,518.4,702,535.2,702,549z"/>
</g>
<g>
	<path class="st5" d="M123.5,768.9c0.7-0.3,1.3-0.6,2-0.9c49.6-21.9,103.2-54.1,154.2-101.3c62.8-58.2,97.2-116.5,115.8-166.4
		c4.5-12,8-23.5,10.8-34.5c1.9-7.3,3.4-14.3,4.6-21v0c1.3-6.9,2.3-13.4,3-19.7c0.3-2.1,0.5-4.2,0.7-6.3c2.9-28.6,0.6-48.8-0.5-56.4
		c-0.3-2.2-0.6-3.3-0.6-3.3l-1.9,1.8l-39.9,37.4l-22.3,20.9L0,746.8V768h41.9h57.6L123.5,768.9z"/>
</g>
<g>
	<path class="st2" d="M1366,603.2V768h-216.8c-0.6-1-1.3-2-1.9-3c-2.6-4.2-5.1-8.5-7.3-13c-46.6-91.7-75.9-162-87.6-195.5
		c-0.5-1.4-1-2.8-1.4-4c-3.8-11.4-5.2-17.5-4-17.5c0.4,0,17.6,12,44,26.3c9.1,4.9,19.3,10.2,30.4,15.3c30.5,14.2,67.1,27.7,103.2,32
		c0.9,0.1,1.8,0.2,2.8,0.3c0.2,0,0.3,0,0.5,0c13.3,1.4,26.5,1.5,39.2-0.1C1307.3,604,1339.5,602.2,1366,603.2z"/>
</g>
<g>
	<path class="st4" d="M1366,289.7v119.7c-24.2,25.1-45,45.8-54,52.5c-48,36-79.1,56.5-166.5,87.9c-11.2,4-21.6,6.8-31.2,8.7
		c-8.3,1.6-16.1,2.5-23.3,2.7c-13.7,0.5-25.7-1.1-36.1-4c-0.9-0.2-1.7-0.5-2.5-0.8c-26.5-8.2-42.4-25-51.1-35.7
		c-8.7-10.7-19.1-38.5-26.9-61.8c0,0,0,0,0,0c-6.5-19.5-11.1-35.8-11.1-35.8s-3.4-21.4,2-48.9c2.2-11.3,5.9-23.7,12-36
		c14.1-28.7,41-57,91.3-71.3c40.8-11.6,77.8-5.9,108.9,2c22.1,5.6,41.3,12.2,56.9,14.5C1276,289.6,1323.5,290.7,1366,289.7z"/>
</g>
<path class="st5" d="M1227.8,609.1c-0.1,3-0.3,6-0.5,9c-0.6,9-1.6,17.8-2.8,26.7c-0.8,6.2-1.8,12.4-2.8,18.5
	c-0.5,2.9-0.9,5.8-1.4,8.7c-1.5,8.8-2.9,17.5-4.3,26.1c-2.2,13.5-16.2,43.4-28.1,69.9H651.4c-9.7-17.7-18-36.7-24.4-57
	c-1-3.2-2-6.5-2.9-9.7c-0.8-2.8-1.5-5.6-2.2-8.5c-6.8-27.4-10-56.9-10.3-87.4c0-3,0-6,0-9c0.1-11.4,0.6-22.9,1.5-34.6
	c0.3-3.8,0.6-7.7,1-11.6c0.8-8.5,1.8-17,3-25.6c0.2-1.8,0.5-3.6,0.8-5.3c0.1-1,0.3-2.1,0.5-3.1c0.3-2.1,0.6-4.3,1-6.4
	c0.9-5.5,1.8-11,2.8-16.4c1.6-8.6,3.4-17.2,5.3-25.9c0.6-2.8,1.3-5.7,2-8.5c2.1-8.8,4.3-17.6,6.7-26.3c1.5-5.5,3.1-11.1,4.7-16.5
	c0.7-2.5,1.5-5,2.2-7.4c6-19.6,12.7-39,19.9-57.7c2-5.2,4-10.8,5.8-16.5c2.4-7.4,4.7-15.2,6.8-23.4c2.1-7.8,4-15.8,5.8-24
	c6.3-28.2,11.3-58.2,15.2-85.7c0.3-1.8,0.5-3.6,0.8-5.3c0.1-0.6,0.2-1.3,0.3-1.9c0.3-2.1,0.6-4.3,0.9-6.4c0-0.4,0.1-0.8,0.2-1.2
	c0.1-0.5,0.1-1.1,0.2-1.6c0.5-3.5,0.9-6.8,1.3-10.2C705.7,131.3,708,99,708,99s16.6,15.8,39.4,36.3c1.8,1.6,3.6,3.2,5.4,4.9
	c13.3,11.9,28.4,25.1,43.4,37.6c7.6,6.4,15.2,12.5,22.5,18.3c1.8,1.4,3.6,2.8,5.4,4.2c14.3,11,27.3,19.9,36.9,24.8
	c8.8,4.4,17.1,8.6,25.2,12.8c0.3,0.2,0.7,0.3,1,0.5c1.2,0.6,2.4,1.2,3.5,1.8c0.2,0.1,0.5,0.2,0.7,0.4c4.4,2.2,8.6,4.5,12.8,6.7
	c15,7.9,29.1,15.5,42.4,23.2c19.4,11.1,37.3,22.3,54.8,34.4c1.8,1.3,3.7,2.5,5.5,3.8c6.1,4.3,12.2,8.8,18.4,13.3
	c13.8,10.4,27.7,21.5,42.1,33.9c0.1,0.1,0.1,0.1,0.2,0.2c4.3,3.7,8.7,7.5,13.1,11.5c1.7,1.5,3.5,3.1,5.2,4.6
	c3.7,3.3,7.5,6.8,11.3,10.3c3.2,2.9,6.4,5.9,9.6,9c1.1,1.1,2.2,2.1,3.4,3.2c0.7,0.7,1.4,1.3,2.1,2c0.8,0.7,1.5,1.4,2.3,2.1
	c2,1.9,4,3.8,6,5.7c5.1,4.8,10.2,9.9,15.5,15c0.5,0.4,0.9,0.9,1.4,1.3c6.3,6.2,12.8,12.6,19.5,19.3c0.3,0.3,0.7,0.7,1,1
	c2.9,2.9,5.7,5.8,8.4,8.7c23.1,24.9,38.2,49.1,47.6,72.7c1,2.6,2,5.1,2.9,7.7c2.8,8,5,16,6.7,23.8
	C1227.5,572.6,1228.5,591,1227.8,609.1z"/>
<g>
	<path class="st3" d="M1001.5,0c-9.9,23.8-23.9,57.6-35.5,86.3c-5.9,14.6-11.2,27.8-15,37.7c-9.6,24.8-48.8,93.4-95.7,163.6
		c-11.6,17.4-23.7,34.9-35.9,51.8c-6.6,9.2-13.3,18.2-19.9,26.9c-19.4,25.6-38.6,49-56.5,67.6c-24.3,25.4-52.5,44.2-80.5,58h0
		c-2.6,1.3-5.2,2.5-7.8,3.7c-21.7,10-43.1,17.1-62.4,22.2c-44.9,11.8-78.7,12.5-79.2,12c0,0-1.5-14.4-0.6-37.2
		c0.5-12.2,1.8-26.8,4.3-43c3.9-24.5,10.9-52.5,23.1-80.8c10.1-23.4,23.7-47,42.2-69c3-3.5,5.9-7.1,8.9-10.5
		c3.7-4.4,7.5-8.8,11.2-13v0c11.5-13.4,22.9-26.1,34.2-38.3c10.8-11.7,21.6-22.9,32.5-33.7C719.6,154,772.7,112.5,843,71
		c51-30.1,91.5-54,120.2-71H1001.5z"/>
</g>
<g>
	<path class="st6" d="M335.8,560.8c0.4-0.4,0.6-0.9,0.8-1.4C393.4,445.9,450.2,332.3,507,218.8c0.3-0.5,0.5-1.1,0.8-1.6
		c2.2-3.5,7.2-3.5,9.4,0c0.3,0.5,0.5,1,0.8,1.4c11.6,23.3,23.2,46.5,34.9,69.7c1.2,2.5,1.2,4.6,0,7.1
		c-25.7,51.4-51.4,102.8-77.1,154.2c-0.3,0.6-0.7,1.3-0.9,1.9c-1.6,3.7,0.8,7.5,4.8,7.6c1.9,0,3.8,0,5.7,0
		c15.4,0.1,30.4,2.3,44.9,7.4c8.8,3.1,17.1,7.2,24.9,12.2c3.8,2.4,7.4,5.1,11.1,7.7c5.8,4,12,7.1,18.6,9.7c7,2.7,14.2,4.7,21.7,5.5
		c4.5,0.5,9,0.5,13.5,0.2c7.6-0.6,14.9-2.4,21.9-5.3c6.8-2.8,12.9-6.6,18.5-11.4c7.2-6.1,13-13.3,17.4-21.7
		c3.8-7.3,6.3-15.1,7.4-23.3c0.5-3.5,0.7-7,0.7-10.5c0-2,0.8-3.6,2.4-4.8c0.9-0.7,1.9-0.9,3.1-0.9c2.7,0,5.3,0,8,0
		c15.7,0,31.5,0,47.2,0c1.6,0,3,0.3,4.2,1.5c1.1,1.1,1.7,2.3,1.7,3.9c0,4.4-0.2,8.8-0.6,13.2c-0.6,6.1-1.6,12.1-2.9,18.1
		c-1.9,8.3-4.6,16.3-8,24.1c-3.3,7.6-7.3,14.9-12,21.8c-3.4,5-7.1,9.7-11.1,14.3c-3.3,3.7-6.8,7.3-10.5,10.7
		c-5.9,5.5-12.4,10.3-19.3,14.7c-7.4,4.6-15.1,8.6-23.2,11.7c-9.8,3.8-19.9,6.4-30.3,8c-4.4,0.7-8.9,1.3-13.4,1.6
		c-0.3,0-0.6,0.2-0.9,0.3c-8.4,0-16.7,0-25.1,0c-0.8-0.4-1.6-0.2-2.4-0.3c-3.9-0.2-7.8-0.6-11.6-1.5c-7.1-1.8-13.9-4.4-20.5-7.3
		c-6.2-2.7-12.3-5.5-18-9c-4.6-2.8-9.1-5.7-13.6-8.6c-6.3-3.9-12.8-7.5-19.7-10.4c-11.2-4.6-22.9-6.2-34.9-4.8
		c-5.7,0.6-11.2,2-16.6,4c-8.3,3-15.8,7.5-22.4,13.3c-6.9,6.1-12.6,13.2-16.7,21.4c-0.7,1.4-1.8,2.4-3.4,2.9
		c-0.3,0.1-0.6,0.2-0.9,0.4c-24.5,0-49.1,0-73.6,0c-2.1-0.7-3.6-2-4.5-4c-0.1-0.2-0.3-0.3-0.4-0.5
		C335.8,562.3,335.8,561.5,335.8,560.8z"/>
	<path class="st6" d="M659.9,143c0.5,0.3,1,0.2,1.6,0.3c20.7,0.9,40.4,5.9,58.8,15.7c8.1,4.3,15.6,9.5,22.6,15.6
		c14.7,12.8,25.8,28.2,33.9,45.9c1.9,4.1,3.4,8.2,5,12.4c2.8,7.2,5.9,14.2,9.9,20.9c3.6,6.2,7.7,11.9,12.2,17.4
		c7.9,9.7,16.5,18.8,25.5,27.4c2.9,2.7,5.9,5.3,8.9,7.9c2.3,2,2.6,5,0.9,7.5c-0.9,1.3-2.2,2-3.7,2.1c-0.7,0.1-1.4,0.1-2.1,0.1
		c-24.4,0-48.7,0-73.1,0c-0.4,0-0.9,0-1.3,0c-2.2,0.1-3.9-1-5-2.8c-2.2-3.6-4.4-7.2-6.4-10.9c-5.8-10.4-11.3-20.9-16.8-31.4
		c-3.3-6.4-6.6-12.8-9.6-19.4c-4-8.5-9.3-16-16.1-22.5c-9.9-9.3-21.5-15.3-34.8-18.1c-6.5-1.4-13.1-1.7-19.8-1.3
		c-8.5,0.6-16.7,2.7-24.5,6.3c-8,3.7-15.2,8.7-21.3,15c-6.6,6.7-11.7,14.5-15.3,23.2c-0.2,0.6-0.5,1.2-0.8,1.8
		c-1.9,3.6-7,3.9-9.3,0.5c-0.4-0.5-0.7-1.1-0.9-1.7c-2.8-5.7-5.6-11.4-8.4-17.1c-4.7-9.5-9.4-18.9-14.1-28.4c-2-4.1-4-8.2-6-12.3
		c-1.4-2.8-1.1-4.7,0.9-7c13.4-15.2,29.4-26.9,47.9-35.1c11.7-5.2,24-8.6,36.7-10.4c4-0.6,8.1-1,12.1-1.1c0.5,0,1,0,1.4-0.3
		C652.5,143,656.2,143,659.9,143z"/>
	<path class="st6" d="M1026.6,331.5c-2.3,0-2.3,0-2.3,2.4c0,7.4,0,14.9,0,22.3c0,0.5,0.2,1.1-0.3,1.7c-4.6-4.8-10.1-6.2-16.3-5.1
		c-6.7,1.2-11.2,5.3-13.7,11.7c-1,2.6-1.5,5.3-1.6,8c0,2.1,0.2,4.2,0.8,6.4c0.1,0.2,0.1,0.4,0.2,0.6c0.9,3.4,2.6,6.4,5.3,8.8
		c2.4,2.2,5,3.5,7.9,4.2c1.9,0.5,3.8,0.6,5.9,0.5c0.2,0,0.4,0,0.5,0c4.3-0.3,8.2-1.8,11-5.4c0.1-0.2,0.3-0.4,0.7-0.1c0,0.9,0,2,0,3
		c0,1.4,0.2,1.6,1.6,1.6c2.6,0,5.2,0,7.8,0v-60.6C1031.6,331.3,1029.1,331.5,1026.6,331.5z M1013.4,384c-6.3,0.3-11-5-11-11.2
		c-0.1-6.5,5.3-11.4,11.1-11.4c5.1,0.1,11,3.6,11,11.3C1024.5,380.4,1018.7,384.3,1013.4,384z"/>
	<path class="st6" d="M935.1,375.2c-0.3-5-2.4-8.8-6.7-11.4c-1.4-0.8-2.9-1.3-4.8-1.8c1.1-0.5,1.9-0.9,2.6-1.3
		c2.2-1.3,4.1-2.9,5.2-5.2c2.7-5.6,1.5-13.7-5.3-17.6c-0.1-0.1-0.3-0.1-0.4-0.2c-3.5-1.9-7.3-2.4-11.2-2.5c-6.4-0.1-12.8,0-19.2,0
		c-2.4,0-2.4,0.1-2.4,2.5v52.1c0,0.4,0,0.9,0,1.3c0,0.7,0.4,1.1,1.1,1.1c0.5,0,1,0,1.5,0c5.9,0,11.8,0,17.7,0c3.1,0,6.1-0.3,9-1
		c2.9-0.7,5.7-1.9,7.9-3.9C934,384,935.4,380,935.1,375.2z M903.5,351.2C903.5,351.2,903.5,351.2,903.5,351.2c0-1.9,0-3.8,0-5.7
		c0-0.8,0.2-1.3,1.1-1.3c3.8,0.1,7.7-0.3,11.5,0.3c0.4,0.1,0.7,0.1,1.1,0.2c3.8,1,5.6,3.7,5,7.5c-0.3,2.3-1.8,3.8-3.8,4.7
		c-1.5,0.7-3.1,1-4.7,1c-2.9,0-5.7,0-8.6,0c-1.5,0-1.6-0.1-1.6-1.6C903.5,354.8,903.5,353,903.5,351.2z M919.8,382.1
		c-1.2,0.5-2.5,0.8-3.8,0.8c-3.6,0.1-7.3,0.1-10.9,0.1c-1.3,0-1.5-0.2-1.5-1.5c0-2.2,0-4.3,0-6.5c0-2.1,0-4.2,0-6.3
		c0-1.3,0.2-1.5,1.5-1.5c4,0,7.9-0.1,11.9,0.3c1.6,0.2,3.2,0.5,4.7,1.3c1.8,1,2.8,2.5,3,4.5c0.1,0.5,0,1.1,0.1,1.6
		C924.8,378.9,922.9,380.9,919.8,382.1z"/>
	<path class="st6" d="M831.3,353.6c-2,0-3.9,0-5.9,0c-1.6,0-1.8,0.2-1.8,1.8c0,1,0,2,0,3c-0.7,0.1-0.8-0.3-1-0.5
		c-1.6-2-3.6-3.4-6-4.3c-2.4-0.9-4.9-0.9-7.4-1c-7.3,0-14.2,4.8-16.6,12c-1.1,3.4-1.6,6.8-1.2,10.3c0.5,5.7,2.8,10.4,7.5,13.9
		c4.2,3.1,8.9,4.2,14,3.6c3.4-0.4,6.7-1.6,9.1-4.2c0.2-0.2,0.4-0.6,1-0.4c0.2,3.2,0.2,6.4-1.4,9.4c-0.8,1.6-2,2.8-3.6,3.6
		c-1.7,0.8-3.4,1.3-5.3,1.4c-4.1,0.4-7.9-0.5-11.3-2.8c-0.9-0.6-1.8-1.2-2.6-1.9c-0.7-0.5-1.1-0.5-1.6,0.2c-1.5,2-3,4-4.4,6
		c-0.6,0.9-0.6,1,0.2,1.7c1.6,1.4,3.5,2.6,5.5,3.4c3.1,1.2,6.4,1.9,9.8,2.1c3.4,0.2,6.8,0.1,10.2-0.7c6.3-1.7,10.8-5.5,12.9-11.7
		c0.9-2.6,1.4-5.4,1.4-8.1c0-11.6,0-23.2,0-34.8c0-0.2,0-0.3,0-0.5C832.8,353.9,832.6,353.7,831.3,353.6z M815.8,383.2
		c-5.3,1.4-10.4-0.5-13-4.8c-1.1-1.8-1.7-3.8-1.5-5.6c0-5.6,2.9-9.6,7.8-10.9c2.9-0.7,5.9-0.7,8.7,0.6c4.3,2.1,5.9,5.8,5.9,10.4
		C823.6,377.9,820.3,382,815.8,383.2z"/>
	<path class="st6" d="M883.3,369.6c-0.7-5.2-3.1-9.5-7.2-12.6c-0.3-0.2-0.6-0.5-0.9-0.7c-3.7-2.6-8-3.8-12.6-3.6c-0.5,0-1,0-1.5,0
		c-6.3,0.3-11.6,2.7-15.4,7.8c-0.1,0.1-0.1,0.2-0.2,0.3c-3.3,4.4-4.3,9.5-3.6,14.9c0.9,6.9,4.5,12,10.7,15.1c4.3,2.2,8.9,2.7,13.6,2
		c1.7-0.3,3.4-0.7,4.9-1.3c2.2-0.8,4.2-2,6-3.6c1.3-1.2,2.4-2.5,3.4-4.1C883.2,379.4,884,374.6,883.3,369.6z M864.9,383.9
		c-0.7,0.1-1.5,0.2-2.3,0.2c-6.2,0-11.2-4.4-11.2-11.5c0-1.6,0.3-3,0.7-4.3c1.7-4.7,6.1-7.2,10.4-6.9c5.8-0.3,11.2,4.2,11.2,11.2
		C873.8,378.7,870.1,383,864.9,383.9z"/>
	<path class="st6" d="M756.9,358.8c0.6-0.4,0.8-1,1.2-1.4c2.3-3,5.2-4.7,9-4.7c1.6,0,3.3-0.1,4.9,0.2c5.6,1.1,9.5,5.3,10.3,11.2
		c0.2,1.7,0.3,3.3,0.3,5c0,6.8,0,13.6,0,20.3c0,0.4,0,0.9,0,1.3c-0.1,1.1-0.2,1.4-1.3,1.4c-2.4,0-4.8,0-7.2,0c-1,0-1.2-0.3-1.3-1.3
		c0-0.5,0-1,0-1.5c0-5.9,0-11.7,0-17.6c0-1.4-0.1-2.8-0.4-4.2c-1.3-5.7-4.3-6.7-9-5.8c-2.4,0.4-4.1,1.9-5.1,4.1
		c-0.7,1.6-1.1,3.3-1.1,5.1c0,6.1,0,12.3,0,18.4c0,0.4,0,0.9,0,1.3c-0.1,1.3-0.2,1.5-1.6,1.5c-2.2,0-4.5,0-6.7,0
		c-1.3,0-1.5-0.2-1.5-1.5c0-0.8,0-1.6,0-2.4c0-10.7,0-21.4,0-32.1c0-2.4,0-2.4,2.5-2.4c1.6,0,3.1,0,4.7,0c1.9,0,2,0.1,2,2.1
		c0,0.9,0,1.8,0.1,2.8C756.7,358.5,756.8,358.6,756.9,358.8z"/>
	<path class="st6" d="M686.2,363.7c0-8.6,0-17.2,0-25.9c0-2.4,0-2.4,2.4-2.4c2.1,0,4.1,0,6.2,0c1.3,0,1.5,0.2,1.6,1.5
		c0,0.5,0,1,0,1.5c0,13.9,0,27.8,0,41.7c0,2.6,0,2.6,2.6,2.6c6.3,0,12.6,0,18.9,0c0.5,0,1,0,1.5,0c0.7,0,1.1,0.4,1.1,1.1
		c0,2.4,0,4.8,0,7.2c0,0.7-0.4,1.1-1.1,1.1c-0.4,0-0.8,0-1.1,0c-9.9,0-19.7,0-29.6,0c-2.3,0-2.4,0-2.4-2.3
		C686.2,381.1,686.2,372.4,686.2,363.7z"/>
	<path class="st6" d="M974.8,358.5c1.3-1.4,2.1-2.7,3.4-3.5c2.9-2,6.1-2.9,9.7-2.2c1.4,0.3,1.6,0.5,1.6,2c0,2.1,0,4.2,0,6.3
		c0,1.4-0.2,1.5-1.7,1.3c-1.7-0.3-3.3-0.4-5-0.2c-4.6,0.5-8.1,4.6-8.1,9.3c0,6,0,12,0,18.1c0,2.7,0,2.7-2.7,2.7c-2,0-3.9,0-5.9,0
		c-1.3,0-1.5-0.2-1.6-1.5c0-0.3,0-0.7,0-1c0-11.2,0-22.4,0-33.7c0-2.6,0-2.6,2.7-2.6c1.9,0,3.8,0,5.7,0c1.5,0,1.7,0.2,1.7,1.7
		C974.8,356.1,974.8,357.1,974.8,358.5z"/>
	<path class="st6" d="M944.1,372.7c0-5.6,0-11.2,0-16.8c0-0.4,0-0.9,0-1.3c0.1-1,0.2-1.2,1.3-1.3c2.4,0,4.9,0,7.3,0
		c1,0,1.2,0.3,1.3,1.3c0,0.4,0,0.8,0,1.1c0,11.3,0,22.6,0,33.9c0,2.4,0,2.4-2.5,2.4c-1.8,0-3.7,0-5.5,0c-1.8,0-1.9-0.1-1.9-2
		C944.1,384.3,944.1,378.5,944.1,372.7z"/>
	<path class="st6" d="M736.7,372.9c0,5.4,0,10.8,0,16.3c0,0.4,0,0.9,0,1.3c-0.1,1.4-0.3,1.6-1.6,1.6c-2.2,0-4.4,0-6.7,0
		c-1.2,0-1.4-0.2-1.5-1.4c0-0.4,0-0.8,0-1.1c0-11.1,0-22.1,0-33.2c0-0.1,0-0.2,0-0.3c0-2.3,0-2.4,2.4-2.4c1.7,0,3.5,0,5.2,0
		c2.1,0,2.2,0.1,2.2,2.2c0,4.2,0,8.5,0,12.7C736.7,369.9,736.7,371.4,736.7,372.9z"/>
	<path class="st6" d="M949.1,334.7c1.5,0,2.9,0.4,4.1,1.4c2.7,2.1,2.8,6.6,0.2,8.8c-2.3,2-6.1,2.2-8.4,0.3c-2-1.6-2.8-4.3-2-6.6
		C943.9,336.2,946.2,334.7,949.1,334.7z"/>
	<path class="st6" d="M725.5,340.4c0.2-3.5,2.9-5.8,6.6-5.6c3.4,0.1,6,2.8,5.9,5.9c-0.1,3.3-3.2,6-6.6,5.8
		C727.9,346.3,725.4,343.6,725.5,340.4z"/>
</g>
</svg>
