<?xml version="1.0" encoding="utf-8"?>
<!-- Generator: Adobe Illustrator 24.1.2, SVG Export Plug-In . SVG Version: 6.00 Build 0)  -->
<svg version="1.1" xmlns="http://www.w3.org/2000/svg" xmlns:xlink="http://www.w3.org/1999/xlink" x="0px" y="0px"
	 viewBox="0 0 1366 500" style="enable-background:new 0 0 1366 500;" xml:space="preserve">
<style type="text/css">
	.st0{fill:#4B4059;}
	.st1{fill:#F3C6BD;}
	.st2{fill:#3040C4;}
	.st3{fill:#F9BA06;}
	.st4{fill:#5DBCB1;}
	.st5{fill:#E74322;}
	.st6{display:none;}
	.st7{display:inline;fill:#3040C4;}
	.st8{display:none;fill:#E74322;}
	.st9{fill:#FFFFFF;}
	.st10{display:none;fill:#FFFFFF;}
</style>
<g id="Ebene_1">
	<g>
		<path class="st0" d="M1365.98,0v500h-269.55l-41.55-50.67l-0.1-0.12v-0.01l-3.8-4.67l-76.5-93.4l-0.05-0.06l-0.01-0.01
			l-55.11-67.28l-7.19-8.78l-7.82-9.55l-0.02-0.02l-0.7-0.85l-10.7-13.05l-16.4-20l-15.64-19.01c0-0.01,0-0.01,0-0.01l-16.86-20.48
			l25.4-37.5l17.98-26.49l55.73-82.13c0.01-0.01,0.01-0.02,0.01-0.02l16.88-24.86L991.01,0H1365.98z"/>
	</g>
	<g>
		<path class="st1" d="M1290.62,0c-18.79,48.54-49.9,104.58-112.89,160.99c-0.05,0.05-0.1,0.09-0.15,0.14
			c-26.59,23.76-58.96,47.62-98.42,71.02c-1.05,0.63-2.11,1.26-3.18,1.88c-13.44,7.91-27.47,14.19-41.9,19.06
			c-4.12,1.4-8.28,2.68-12.46,3.85c-5.24,1.46-10.52,2.76-15.84,3.89c-0.97,0.21-1.95,0.41-2.93,0.6
			c-3.44,0.69-6.91,1.32-10.39,1.88c-5.89,0.96-11.83,1.75-17.78,2.34c-3.13,0.31-6.27,0.57-9.4,0.78h-0.04
			c-0.25,0.02-0.51,0.04-0.76,0.05c-3.5,0.23-7,0.41-10.5,0.53c-3.3,0.12-6.6,0.19-9.9,0.21c-3,0.02-6,0.01-9.01-0.05
			c-3.44-0.05-6.87-0.16-10.3-0.32c-6.84-0.29-13.66-0.77-20.47-1.4c-0.07-0.01-0.15-0.01-0.22-0.02c-0.17-0.02-0.33-0.03-0.5-0.05
			c-3.57-0.33-7.14-0.72-10.7-1.14c-3.16-0.38-6.31-0.79-9.45-1.23c-3.39-0.47-6.77-0.98-10.14-1.53
			c-5.68-0.92-11.32-1.94-16.91-3.05c-1.01-0.2-2.01-0.4-3.01-0.6c-3.26-0.66-6.5-1.35-9.71-2.06c-2.85-0.62-5.68-1.27-8.49-1.94
			c-0.8-0.19-1.6-0.38-2.39-0.57c-9.91-2.39-19.6-5-28.99-7.75c-54.35-15.91-98.89-36.59-120.91-47.68c-9.6-4.8-14.9-7.8-14.9-7.8
			l-2.62-6.35l-4.7-11.41l-1.58-3.84l-26.14-63.08l-14.76-35.62l-10.84-26.19L589.31,0H1290.62z"/>
	</g>
	<g>
		<path class="st1" d="M839.7,500H219.32l77.96-59.27l4.6-3.5l56.03-42.56l11.41-8.67l15.76-11.97l17.6-13.4l3.57-2.68l0.03-0.02
			l11.7-8.9c0,0,7.8-1.8,21.5-3.9c9.55-1.46,22.04-3.02,36.65-4.21c0.38-0.03,0.76-0.06,1.15-0.09c10.69-0.8,22.48-1.44,35.18-1.65
			c1.56-0.02,3.13-0.04,4.72-0.05c17.5-0.1,36.5,0.6,56.6,2.7c8.33,0.85,16.8,1.92,25.39,3.27c7.61,1.18,15.32,2.59,23.11,4.23
			c1.8,0.4,3.6,0.8,5.3,1.1c0.7,0.2,1.3,0.3,2,0.5c1.3,0.3,2.7,0.6,4,0.9c0.08,0.02,0.17,0.04,0.25,0.06
			c2.47,0.57,4.93,1.23,7.4,1.8c0.05,0.02,0.1,0.03,0.15,0.04c10.55,2.7,21.11,5.94,31.66,9.66c2.35,0.82,4.69,1.67,7.04,2.54
			c3,1.1,5.9,2.3,8.8,3.5c1.4,0.6,2.8,1.2,4.2,1.8c5.3,2.2,10.4,4.6,15.4,7.1c0.5,0.2,0.9,0.5,1.4,0.7c3.2,1.6,6.4,3.3,9.6,5
			c4.68,2.57,9.25,5.25,13.71,8.04c0.89,0.55,1.77,1.1,2.65,1.67c5.09,3.24,10.03,6.62,14.84,10.13c9.82,7.16,19.1,14.86,27.9,23.06
			C801.73,448.4,821.62,473.12,839.7,500z"/>
	</g>
	<g>
		<path class="st2" d="M456.18,302.53l-5.7,22.6l-5,20l-5.6,22.2c0,0-2.3,28.7-12.3,70.8c-1.37,5.75-2.32,12.14-3,19.04
			c-1.22,12.29-1.58,26.2-1.82,41.05c-0.02,0.59-0.03,1.19-0.03,1.78H247.79c20.81-22.93,41.49-44.26,60.09-62.77l0.1-0.1
			c20.84-20.68,39.03-37.81,51.86-49.63c12.35-11.39,19.74-17.87,19.74-17.87l6.1-5.3l0.86-0.75l30.3-26.54l0.24-0.21l20.46-17.87
			l0.04-0.03L456.18,302.53z"/>
	</g>
	<g>
		<polygon class="st3" points="451.98,277.03 418.38,312.63 418.28,312.73 413.98,317.23 413.85,317.37 392.2,340.27 375.78,357.63 
			351.48,383.35 297.28,440.73 241.28,500 -0.02,500 -0.02,43.03 22.98,22.03 267.78,167.53 325.78,201.99 411.55,252.95 
			411.68,253.03 414.09,254.47 414.18,254.53 430.29,264.12 		"/>
	</g>
	<g>
		<path class="st4" d="M698.7,41.88c-0.11,15.59-0.71,31.03-1.72,46.25c-0.54,8.45-1.21,16.83-2.01,25.14
			c-0.54,5.65-1.14,11.27-1.79,16.86c-0.63,5.45-1.3,10.85-2.01,16.21v0.01c-2.35,17.69-5.14,34.91-8.29,51.48
			c-2.8,14.8-5.8,29-9,42.7c-10.48,45.33-22.56,84.18-32.65,113.16c-0.02,0.05-0.03,0.09-0.05,0.14c-1.08,3.16-2.16,6.18-3.24,9.12
			v0.01c-0.22,0.6-0.44,1.18-0.66,1.77c-4.1,11.52-7.74,21.05-10.62,28.27c-0.63,1.59-1.23,3.06-1.78,4.42
			c-3.08,7.56-4.9,11.61-4.9,11.61l-37.96-18.15l-12.64-6.05l-64.77-30.95h-0.01l-4-1.91l-0.01-0.01l-23.31-11.13l-0.89-0.42
			l-31.91-15.28l-12.94-6.17l-0.06-0.03l-13.1-6.3l-3.6-1.7l-0.2-0.1l-6.18-2.95l-36.52-17.45l-0.2-0.1l-46.8-22.3l-53.55-25.58
			L-0.02,112.83V0h697.79C698.5,14.04,698.79,28.02,698.7,41.88z"/>
	</g>
	<g>
		<path class="st0" d="M417.77,500l-1.01-1.78l-21.58-37.92l-0.21-0.37l-4.39-7.73l-5.8-10.2l-5.5-9.7l-0.78-1.37l-3.02-5.33
			l-13.81-24.31l-3.76-6.62l-4.07-7.17l-2.36-4.15l-2.3-4.05l-24.7-43.3l-0.53-0.93l-52.62-92.62l-3.95-6.95l-8.8-15.5
			c0,0,27.07-10.99,67.2-18.01c20.16-3.53,43.62-6.06,68.6-5.69c21.17,0.36,43.44,2.77,65.62,8.43c2.76,0.71,5.52,1.46,8.28,2.27
			c20.71,6.01,41.29,14.97,60.9,27.84c9.74,6.38,19.24,13.73,28.4,22.16c3.65,3.37,7.2,6.65,10.59,9.87
			c1.54,1.45,3.04,2.89,4.51,4.33c13.7,13.4,24.7,25.7,32.9,38.4c1.91,2.95,3.67,5.97,5.26,9.01c0.26,0.46,0.5,0.93,0.74,1.39
			c11.96,23.28,15.75,17.22,22.25,31.89c0.62,1.4,1.27,2.99,1.95,4.81c0.7,1.79,1.4,3.89,2.16,6.25v0.01
			c0.21,0.66,0.42,1.34,0.64,2.04c0.2,0.6,0.9,1.3,1.9,2.1c0.6,0.5,1.4,1,2.2,1.6c3.5,2.2,8.5,4.8,13,7.2
			c1.32,0.72,2.58,1.43,3.74,2.12c3.33,1.96,5.79,3.72,6.16,4.98l18,18c1.8,6,5,18.8,8.3,34.3c0.03,0.14,0.06,0.29,0.09,0.43
			c0.26,1.16,0.44,2.31,0.71,3.47c0.17,0.77,0.32,1.54,0.47,2.33c0.31,1.57,0.6,3.17,0.93,4.77c1,5.1,1.9,10.4,2.8,15.7
			c2.14,12.98,3.83,26.21,4.45,38H417.77z"/>
	</g>
	<g>
		<path class="st5" d="M415.82,293.05c-0.21,5.48-0.59,11.43-1.24,17.78c-0.2,2.1-0.4,4.2-0.7,6.3c-0.01,0.08-0.02,0.16-0.03,0.24
			c-0.7,6.22-1.69,12.65-2.97,19.46c-0.01,0.07-0.02,0.14-0.04,0.21c-1.19,6.64-2.68,13.57-4.56,20.79
			c-0.01,0.04-0.02,0.08-0.03,0.12c-2.8,10.96-6.29,22.42-10.77,34.38c-4.62,12.39-10.21,25.3-16.98,38.6
			c-4.81,9.48-10.23,19.17-16.31,29c-8.12,13.13-17.42,26.52-28.07,40.07H148.05l175.9-164.93l25.43-23.84l22.3-20.9l39.87-37.38
			l0.03-0.02l1.9-1.8c0,0,0.3,1.1,0.6,3.3c0,0.01,0,0.03,0.01,0.04C414.94,260.4,416.52,273.92,415.82,293.05z"/>
	</g>
	<g class="st6">
		<path class="st7" d="M1365.98,495.23v164.8h-216.8c-0.6-1-1.3-2-1.9-3c-2.6-4.2-5.1-8.5-7.3-13c-46.6-91.7-75.9-162-87.6-195.5
			c-0.5-1.4-1-2.8-1.4-4c-3.8-11.4-5.2-17.5-4-17.5c0.4,0,17.6,12,44,26.3c9.1,4.9,19.3,10.2,30.4,15.3
			c30.5,14.2,67.1,27.7,103.2,32c0.9,0.1,1.8,0.2,2.8,0.3c0.2,0,0.3,0,0.5,0c13.3,1.4,26.5,1.5,39.2-0.1
			C1307.28,496.03,1339.48,494.23,1365.98,495.23z"/>
	</g>
	<g>
		<path class="st4" d="M1365.98,181.73v119.7c-24.2,25.1-45,45.8-54,52.5c-48,36-79.1,56.5-166.5,87.9c-11.2,4-21.6,6.8-31.2,8.7
			c-8.3,1.6-16.1,2.5-23.3,2.7c-13.7,0.5-25.7-1.1-36.1-4c-0.9-0.2-1.7-0.5-2.5-0.8c-26.5-8.2-42.4-25-51.1-35.7
			c-8.7-10.7-19.1-38.5-26.9-61.8l0,0c-6.5-19.5-11.1-35.8-11.1-35.8s-3.4-21.4,2-48.9c2.2-11.3,5.9-23.7,12-36
			c14.1-28.7,41-57,91.3-71.3c40.8-11.6,77.8-5.9,108.9,2c22.1,5.6,41.3,12.2,56.9,14.5
			C1275.98,181.63,1323.48,182.73,1365.98,181.73z"/>
	</g>
	<path class="st8" d="M1215.78,491.13c-0.1,3-0.3,6-0.5,9c-0.6,9-1.6,17.8-2.8,26.7c-0.8,6.2-1.8,12.4-2.8,18.5
		c-0.5,2.9-0.9,5.8-1.4,8.7c-1.5,8.8-2.9,17.5-4.3,26.1c-2.2,13.5-16.2,43.4-28.1,69.9h-536.5c-9.7-17.7-18-36.7-24.4-57
		c-1-3.2-2-6.5-2.9-9.7c-0.8-2.8-1.5-5.6-2.2-8.5c-6.8-27.4-10-56.9-10.3-87.4c0-3,0-6,0-9c0.1-11.4,0.6-22.9,1.5-34.6
		c0.3-3.8,0.6-7.7,1-11.6c0.8-8.5,1.8-17,3-25.6c0.2-1.8,0.5-3.6,0.8-5.3c0.1-1,0.3-2.1,0.5-3.1c0.3-2.1,0.6-4.3,1-6.4
		c0.9-5.5,1.8-11,2.8-16.4c1.6-8.6,3.4-17.2,5.3-25.9c0.6-2.8,1.3-5.7,2-8.5c2.1-8.8,4.3-17.6,6.7-26.3c1.5-5.5,3.1-11.1,4.7-16.5
		c0.7-2.5,1.5-5,2.2-7.4c6-19.6,12.7-39,19.9-57.7c2-5.2,4-10.8,5.8-16.5c2.4-7.4,4.7-15.2,6.8-23.4c2.1-7.8,4-15.8,5.8-24
		c6.3-28.2,11.3-58.2,15.2-85.7c0.3-1.8,0.5-3.6,0.8-5.3c0.1-0.6,0.2-1.3,0.3-1.9c0.3-2.1,0.6-4.3,0.9-6.4c0-0.4,0.1-0.8,0.2-1.2
		c0.1-0.5,0.1-1.1,0.2-1.6c0.5-3.5,0.9-6.8,1.3-10.2c5.4-43.6,7.7-75.9,7.7-75.9s16.6,15.8,39.4,36.3c1.8,1.6,3.6,3.2,5.4,4.9
		c13.3,11.9,28.4,25.1,43.4,37.6c7.6,6.4,15.2,12.5,22.5,18.3c1.8,1.4,3.6,2.8,5.4,4.2c14.3,11,27.3,19.9,36.9,24.8
		c8.8,4.4,17.1,8.6,25.2,12.8c0.3,0.2,0.7,0.3,1,0.5c1.2,0.6,2.4,1.2,3.5,1.8c0.2,0.1,0.5,0.2,0.7,0.4c4.4,2.2,8.6,4.5,12.8,6.7
		c15,7.9,29.1,15.5,42.4,23.2c19.4,11.1,37.3,22.3,54.8,34.4c1.8,1.3,3.7,2.5,5.5,3.8c6.1,4.3,12.2,8.8,18.4,13.3
		c13.8,10.4,25.32,19.57,39.72,31.97c0.1,0.1-0.1-0.1,0,0c4.3,3.7,11.28,9.63,15.68,13.63c1.7,1.5,5.62,4.87,7.32,6.37
		c3.7,3.3,5.38,5.03,9.18,8.53c3.2,2.9,6.4,5.9,9.6,9c1.1,1.1,2.2,2.1,3.4,3.2c0.7,0.7,1.4,1.3,2.1,2c0.8,0.7,1.5,1.4,2.3,2.1
		c2,1.9,7.42,7.27,9.42,9.17c5.1,4.8,6.78,6.43,12.08,11.53c0.5,0.4,0.9,0.9,1.4,1.3c6.3,6.2,12.8,12.6,19.5,19.3
		c0.3,0.3,0.7,0.7,1,1c2.9,2.9,5.7,5.8,8.4,8.7c23.1,24.9,38.2,49.1,47.6,72.7c1,2.6,2,5.1,2.9,7.7c2.8,8,5,16,6.7,23.8
		C1215.48,454.63,1216.48,473.03,1215.78,491.13z"/>
	<path class="st5" d="M1213.03,500H562.74c0.2-15.94,1.64-31.55,4.05-46.76c3.41-21.61,8.76-42.44,15.23-62.36
		c0.37-1.15,0.75-2.3,1.13-3.45c4.87-14.63,10.32-28.76,16.02-42.33c3.81-9.09,7.74-17.92,11.67-26.49
		C630.9,274.93,651.32,238.04,659,210c2.2-8.04,4.33-16.91,6.36-26.32c1.33-6.1,2.61-12.43,3.85-18.92v-0.01
		c3.66-19.04,6.98-39.42,9.9-59.2c3.59-24.32,6.56-47.74,8.81-66.66c2.14-18.16,3.61-32.18,4.3-38.89h26.58
		c17.96,17.79,48.17,46.66,79.84,72.27c17.27,13.99,34.97,27,51.36,36.73c11.34,6.73,23.89,12.92,37.36,19.04
		c5.25,2.39,10.63,4.76,16.14,7.15c33.35,14.47,71.13,29.5,109.32,51.18c22.23,12.61,44.61,27.48,66.34,45.78
		c9.08,7.66,18.04,15.91,26.84,24.85c62.16,63.19,88.9,118.61,100.09,160.96c10.43,39.41,7.39,67.51,6.91,80.04
		C1212.98,498.46,1212.99,499.13,1213.03,500z"/>
	<g>
		<path class="st3" d="M973,0c-5.66,13.61-12.54,29.48-19.4,45.39c0,0,0,0.01-0.01,0.02c-5.12,11.91-10.53,24.11-16.09,36.09
			c-5.9,14.6-18.2,40.1-22,50c-0.48,1.03-0.98,2.1-1.5,3.19c-8.71,18.2-23,44.64-42.66,77.32c0,0,0,0,0,0.01
			c-7.73,12.84-16.29,26.65-25.67,41.31c-0.79,1.23-1.59,2.48-2.39,3.73c-5.48,8.52-11.24,17.32-17.26,26.38
			c-0.81,1.22-1.62,2.44-2.44,3.66c-1.46,2.19-2.93,4.39-4.41,6.59c-1.81,2.69-3.63,5.37-5.46,8.06
			c-8.53,12.52-17.25,24.99-26.03,37.15c-6.6,9.2-13.3,18.2-19.9,26.9c-7.2,9.5-14.36,18.69-21.44,27.44
			c-12.02,14.86-23.8,28.46-35.06,40.16c-2.5,2.62-5.05,5.16-7.63,7.63c-22.48,21.59-47.75,37.99-72.87,50.37
			c-2.6,1.3-5.2,2.5-7.8,3.7c-3.33,1.53-7.67,3.5-10.98,4.9H481c0.05-2.35-0.32-5.32-0.22-7.9c0.5-12.2,1.8-26.8,4.3-43
			c1.62-10.18,3.78-20.98,6.62-32.14c4-15.69,9.35-32.12,16.48-48.66c2.14-4.97,4.45-9.95,6.92-14.92h0.01
			c0.22-0.45,0.44-0.9,0.68-1.35c2.24-4.46,4.63-8.92,7.17-13.35c7.69-13.43,16.74-26.67,27.42-39.38c3-3.5,5.9-7.1,8.9-10.5
			c3.7-4.4,7.5-8.8,11.2-13c2.73-3.18,5.46-6.33,8.19-9.43c8.72-9.98,17.39-19.57,26.01-28.87c10.8-11.7,21.6-22.9,32.5-33.7
			c11.16-11.07,22.43-21.71,33.98-32.03c2.83-2.52,5.68-5.03,8.55-7.51v-0.01c7.19-6.25,14.5-12.37,21.96-18.4v-0.01
			c7-5.65,14.13-11.22,21.43-16.73c16.71-12.6,34.29-24.86,53.11-36.99c10.56-6.81,21.52-13.58,32.93-20.35
			c0.71-0.42,1.42-0.85,2.14-1.27C862.28,40.4,901.3,17,930,0H973z"/>
	</g>
	<g>
		<path class="st9" d="M399.51,417.23c0.32-0.32,0.49-0.73,0.65-1.14c46.12-92.16,92.24-184.4,138.36-276.55
			c0.24-0.41,0.41-0.89,0.65-1.3c1.79-2.84,5.85-2.84,7.63,0c0.24,0.41,0.41,0.81,0.65,1.14c9.42,18.92,18.84,37.76,28.34,56.59
			c0.97,2.03,0.97,3.74,0,5.76c-20.87,41.73-41.73,83.47-62.6,125.2c-0.24,0.49-0.57,1.06-0.73,1.54c-1.3,3,0.65,6.09,3.9,6.17
			c1.54,0,3.09,0,4.63,0c12.5,0.08,24.68,1.87,36.46,6.01c7.15,2.52,13.88,5.85,20.22,9.91c3.09,1.95,6.01,4.14,9.01,6.25
			c4.71,3.25,9.74,5.76,15.1,7.88c5.68,2.19,11.53,3.82,17.62,4.47c3.65,0.41,7.31,0.41,10.96,0.16c6.17-0.49,12.1-1.95,17.78-4.3
			c5.52-2.27,10.47-5.36,15.02-9.26c5.85-4.95,10.56-10.8,14.13-17.62c3.09-5.93,5.12-12.26,6.01-18.92
			c0.41-2.84,0.57-5.68,0.57-8.53c0-1.62,0.65-2.92,1.95-3.9c0.73-0.57,1.54-0.73,2.52-0.73c2.19,0,4.3,0,6.5,0
			c12.75,0,25.58,0,38.32,0c1.3,0,2.44,0.24,3.41,1.22c0.89,0.89,1.38,1.87,1.38,3.17c0,3.57-0.16,7.15-0.49,10.72
			c-0.49,4.95-1.3,9.82-2.35,14.7c-1.54,6.74-3.73,13.23-6.5,19.57c-2.68,6.17-5.93,12.1-9.74,17.7c-2.76,4.06-5.76,7.88-9.01,11.61
			c-2.68,3-5.52,5.93-8.53,8.69c-4.79,4.47-10.07,8.36-15.67,11.94c-6.01,3.73-12.26,6.98-18.84,9.5c-7.96,3.09-16.16,5.2-24.6,6.5
			c-3.57,0.57-7.23,1.06-10.88,1.3c-0.24,0-0.49,0.16-0.73,0.24c-6.82,0-13.56,0-20.38,0c-0.65-0.32-1.3-0.16-1.95-0.24
			c-3.17-0.16-6.33-0.49-9.42-1.22c-5.76-1.46-11.29-3.57-16.65-5.93c-5.03-2.19-9.99-4.47-14.62-7.31
			c-3.73-2.27-7.39-4.63-11.04-6.98c-5.12-3.17-10.39-6.09-16-8.44c-9.09-3.73-18.59-5.03-28.34-3.9
			c-4.63,0.49-9.09,1.62-13.48,3.25c-6.74,2.44-12.83,6.09-18.19,10.8c-5.6,4.95-10.23,10.72-13.56,17.38
			c-0.57,1.14-1.46,1.95-2.76,2.35c-0.24,0.08-0.49,0.16-0.73,0.32c-19.89,0-39.87,0-59.76,0c-1.71-0.57-2.92-1.62-3.65-3.25
			c-0.08-0.16-0.24-0.24-0.32-0.41C399.51,418.45,399.51,417.8,399.51,417.23z"/>
		<path class="st9" d="M662.66,78c0.41,0.24,0.81,0.16,1.3,0.24c16.81,0.73,32.8,4.79,47.74,12.75c6.58,3.49,12.67,7.71,18.35,12.67
			c11.94,10.39,20.95,22.9,27.53,37.27c1.54,3.33,2.76,6.66,4.06,10.07c2.27,5.85,4.79,11.53,8.04,16.97
			c2.92,5.03,6.25,9.66,9.91,14.13c6.41,7.88,13.4,15.26,20.7,22.25c2.35,2.19,4.79,4.3,7.23,6.41c1.87,1.62,2.11,4.06,0.73,6.09
			c-0.73,1.06-1.79,1.62-3,1.71c-0.57,0.08-1.14,0.08-1.71,0.08c-19.81,0-39.54,0-59.35,0c-0.32,0-0.73,0-1.06,0
			c-1.79,0.08-3.17-0.81-4.06-2.27c-1.79-2.92-3.57-5.85-5.2-8.85c-4.71-8.44-9.18-16.97-13.64-25.5
			c-2.68-5.2-5.36-10.39-7.79-15.75c-3.25-6.9-7.55-12.99-13.07-18.27c-8.04-7.55-17.46-12.42-28.26-14.7
			c-5.28-1.14-10.64-1.38-16.08-1.06c-6.9,0.49-13.56,2.19-19.89,5.12c-6.5,3-12.34,7.06-17.29,12.18
			c-5.36,5.44-9.5,11.77-12.42,18.84c-0.16,0.49-0.41,0.97-0.65,1.46c-1.54,2.92-5.68,3.17-7.55,0.41
			c-0.32-0.41-0.57-0.89-0.73-1.38c-2.27-4.63-4.55-9.26-6.82-13.88c-3.82-7.71-7.63-15.35-11.45-23.06
			c-1.62-3.33-3.25-6.66-4.87-9.99c-1.14-2.27-0.89-3.82,0.73-5.68c10.88-12.34,23.87-21.84,38.89-28.5
			c9.5-4.22,19.49-6.98,29.8-8.44c3.25-0.49,6.58-0.81,9.82-0.89c0.41,0,0.81,0,1.14-0.24C656.65,78,659.66,78,662.66,78z"/>
		<path class="st9" d="M960.4,231.05c-1.87,0-1.87,0-1.87,1.95v18.11c0,0.41,0.16,0.89-0.24,1.38c-3.73-3.9-8.2-5.03-13.23-4.14
			c-5.44,0.97-9.09,4.3-11.12,9.5c-0.69,1.79-1.09,3.65-1.23,5.51c-0.03,0.32-0.05,0.66-0.06,0.99c0,1.71,0.16,3.41,0.65,5.2
			c0.08,0.16,0.08,0.32,0.16,0.49c0.73,2.76,2.11,5.2,4.3,7.15c1.95,1.79,4.06,2.84,6.41,3.41c1.54,0.41,3.09,0.49,4.79,0.41h0.41
			c3.49-0.24,6.66-1.46,8.93-4.38c0.08-0.16,0.24-0.32,0.57-0.08v2.44c0,1.14,0.16,1.3,1.3,1.3h6.33v-49.2
			C964.46,230.89,962.43,231.05,960.4,231.05z M958.7,264.5c0,6.25-4.71,9.42-9.01,9.18c-5.12,0.24-8.93-4.06-8.93-9.09
			c-0.02-0.97,0.12-1.89,0.38-2.76c1.15-3.84,4.78-6.5,8.63-6.5c2.32,0.05,4.84,0.96,6.61,2.85
			C957.76,259.66,958.7,261.75,958.7,264.5z"/>
		<path class="st9" d="M886.11,266.53c0-0.02,0-0.03-0.01-0.05c-0.25-4.04-1.96-7.1-5.43-9.21c-1.14-0.65-2.35-1.06-3.9-1.46
			c0.89-0.41,1.54-0.73,2.11-1.06c1.79-1.06,3.33-2.35,4.22-4.22c2.19-4.55,1.22-11.12-4.3-14.29c-0.08-0.08-0.24-0.08-0.32-0.16
			c-2.84-1.54-5.93-1.95-9.09-2.03c-5.2-0.08-10.39,0-15.59,0c-1.95,0-1.95,0.08-1.95,2.03v43.36c0,0.57,0.32,0.89,0.89,0.89h15.59
			c1.7,0,3.35-0.11,4.98-0.37c0.79-0.11,1.56-0.26,2.33-0.45c2.35-0.57,4.63-1.54,6.41-3.17
			C885.22,273.68,886.35,270.43,886.11,266.53z M860.45,242.42c0-0.65,0.16-1.06,0.89-1.06c3.09,0.08,6.25-0.24,9.34,0.24
			c0.32,0.08,0.57,0.08,0.89,0.16c3.09,0.81,4.55,3,4.06,6.09c-0.24,1.87-1.46,3.09-3.09,3.82c-1.22,0.57-2.52,0.81-3.82,0.81h-6.98
			c-1.22,0-1.3-0.08-1.3-1.3V242.42z M873.69,272.14c-0.97,0.41-2.03,0.65-3.09,0.65c-1.04,0.03-2.08,0.05-3.13,0.06
			c-1.91,0.02-3.83,0.02-5.72,0.02c-1.06,0-1.22-0.16-1.22-1.22v-10.39c0-1.06,0.16-1.22,1.22-1.22c3.25,0,6.41-0.08,9.66,0.24
			c1.3,0.16,2.6,0.41,3.82,1.06c1.46,0.81,2.27,2.03,2.44,3.65c0.07,0.38,0.01,0.84,0.07,1.23c0,0.02,0,0.04,0.01,0.06
			C877.75,269.54,876.2,271.16,873.69,272.14z"/>
		<path class="st9" d="M801.83,248.99h-4.79c-1.3,0-1.46,0.16-1.46,1.46v2.44c-0.57,0.08-0.65-0.24-0.81-0.41
			c-1.3-1.62-2.92-2.76-4.87-3.49c-1.95-0.73-3.98-0.73-6.01-0.81c-1.49,0-2.97,0.25-4.38,0.71c-4.15,1.38-7.65,4.66-9.1,9.03
			c-0.89,2.76-1.3,5.52-0.97,8.36c0.41,4.63,2.27,8.44,6.09,11.29c3.41,2.52,7.23,3.41,11.37,2.92c0.72-0.08,1.45-0.21,2.14-0.4
			c1.97-0.52,3.81-1.45,5.25-3.01c0.16-0.16,0.32-0.49,0.81-0.32c0.16,2.6,0.16,5.2-1.14,7.63c-0.65,1.3-1.62,2.27-2.92,2.92
			c-1.38,0.65-2.76,1.06-4.3,1.14c-1.11,0.11-2.2,0.1-3.26-0.03c-2.1-0.26-4.08-1-5.92-2.24c-0.73-0.49-1.46-0.97-2.11-1.54
			c-0.57-0.41-0.89-0.41-1.3,0.16c-1.22,1.62-2.44,3.25-3.57,4.87c-0.49,0.73-0.49,0.81,0.16,1.38c1.3,1.14,2.84,2.11,4.47,2.76
			c1.24,0.48,2.53,0.86,3.84,1.15c1.34,0.28,2.72,0.47,4.12,0.55c2.76,0.16,5.52,0.08,8.28-0.57c5.12-1.38,8.77-4.47,10.47-9.5
			c0.73-2.11,1.14-4.38,1.14-6.58v-28.66C803.05,249.24,802.88,249.08,801.83,248.99z M778.69,269.13
			c-0.89-1.46-1.38-3.09-1.22-4.55c0-4.55,2.35-7.79,6.33-8.85c2.35-0.57,4.79-0.57,7.06,0.49c3.49,1.71,4.79,4.71,4.79,8.44
			c-0.08,4.06-2.76,7.39-6.41,8.36C784.94,274.17,780.8,272.62,778.69,269.13z"/>
		<path class="st9" d="M844.17,263.11c-0.02-0.37-0.06-0.75-0.12-1.12c-0.57-4.22-2.52-7.71-5.85-10.23
			c-0.24-0.16-0.49-0.41-0.73-0.57c-3-2.11-6.5-3.09-10.23-2.92h-1.22c-5.12,0.24-9.42,2.19-12.5,6.33
			c-0.08,0.08-0.08,0.16-0.16,0.24c-0.58,0.77-1.07,1.57-1.48,2.39c-1.49,2.99-1.89,6.28-1.45,9.71c0.73,5.6,3.65,9.74,8.69,12.26
			c3.49,1.79,7.23,2.19,11.04,1.62c1.38-0.24,2.76-0.57,3.98-1.06c1.79-0.65,3.41-1.62,4.87-2.92c1.06-0.97,1.95-2.03,2.76-3.33
			C843.77,270.28,844.49,266.76,844.17,263.11z M829.11,273.6c-0.57,0.08-1.22,0.16-1.87,0.16c-5.03,0-9.09-3.57-9.09-9.34
			c0-1.3,0.24-2.44,0.57-3.49c0.27-0.75,0.63-1.42,1.05-2.03c1.73-2.49,4.59-3.77,7.4-3.57c3.95-0.2,7.69,2.35,8.78,6.54
			c0.2,0.8,0.32,1.65,0.32,2.56C836.34,269.38,833.33,272.87,829.11,273.6z"/>
		<path class="st9" d="M741.42,253.22c0.49-0.32,0.65-0.81,0.97-1.14c1.87-2.44,4.22-3.82,7.31-3.82c1.3,0,2.68-0.08,3.98,0.16
			c4.55,0.89,7.71,4.3,8.36,9.09c0.16,1.38,0.24,2.68,0.24,4.06c0,5.52,0,11.04,0,16.48c0,0.32,0,0.73,0,1.06
			c-0.08,0.89-0.16,1.14-1.06,1.14c-1.95,0-3.9,0-5.85,0c-0.81,0-0.97-0.24-1.06-1.06c0-0.41,0-0.81,0-1.22c0-4.79,0-9.5,0-14.29
			c0-1.14-0.08-2.27-0.32-3.41c-1.06-4.63-3.49-5.44-7.31-4.71c-1.95,0.32-3.33,1.54-4.14,3.33c-0.57,1.3-0.89,2.68-0.89,4.14
			c0,4.95,0,9.99,0,14.94c0,0.32,0,0.73,0,1.06c-0.08,1.06-0.16,1.22-1.3,1.22c-1.79,0-3.65,0-5.44,0c-1.06,0-1.22-0.16-1.22-1.22
			c0-0.65,0-1.3,0-1.95c0-8.69,0-17.38,0-26.06c0-1.95,0-1.95,2.03-1.95c1.3,0,2.52,0,3.82,0c1.54,0,1.62,0.08,1.62,1.71
			c0,0.73,0,1.46,0.08,2.27C741.26,252.98,741.34,253.06,741.42,253.22z"/>
		<path class="st9" d="M684.02,257.2c0-6.98,0-13.97,0-21.03c0-1.95,0-1.95,1.95-1.95c1.71,0,3.33,0,5.03,0
			c1.06,0,1.22,0.16,1.3,1.22c0,0.41,0,0.81,0,1.22c0,11.29,0,22.57,0,33.86c0,2.11,0,2.11,2.11,2.11c5.12,0,10.23,0,15.35,0
			c0.41,0,0.81,0,1.22,0c0.57,0,0.89,0.32,0.89,0.89c0,1.95,0,3.9,0,5.85c0,0.57-0.32,0.89-0.89,0.89c-0.32,0-0.65,0-0.89,0
			c-8.04,0-16,0-24.03,0c-1.87,0-1.95,0-1.95-1.87C684.02,271.33,684.02,264.26,684.02,257.2z"/>
		<path class="st9" d="M918.35,252.98c1.06-1.14,1.71-2.19,2.76-2.84c2.35-1.62,4.95-2.35,7.88-1.79c1.14,0.24,1.3,0.41,1.3,1.62
			c0,1.71,0,3.41,0,5.12c0,1.14-0.16,1.22-1.38,1.06c-1.38-0.24-2.68-0.32-4.06-0.16c-3.73,0.41-6.58,3.74-6.58,7.55
			c0,4.87,0,9.74,0,14.7c0,2.19,0,2.19-2.19,2.19c-1.62,0-3.17,0-4.79,0c-1.06,0-1.22-0.16-1.3-1.22c0-0.24,0-0.57,0-0.81
			c0-9.09,0-18.19,0-27.36c0-2.11,0-2.11,2.19-2.11c1.54,0,3.09,0,4.63,0c1.22,0,1.38,0.16,1.38,1.38
			C918.35,251.03,918.35,251.84,918.35,252.98z"/>
		<path class="st9" d="M893.42,264.51c0-4.55,0-9.09,0-13.64c0-0.32,0-0.73,0-1.06c0.08-0.81,0.16-0.97,1.06-1.06
			c1.95,0,3.98,0,5.93,0c0.81,0,0.97,0.24,1.06,1.06c0,0.32,0,0.65,0,0.89c0,9.18,0,18.35,0,27.53c0,1.95,0,1.95-2.03,1.95
			c-1.46,0-3,0-4.47,0c-1.46,0-1.54-0.08-1.54-1.62C893.42,273.92,893.42,269.22,893.42,264.51z"/>
		<path class="st9" d="M725.02,264.67c0,4.38,0,8.77,0,13.23c0,0.32,0,0.73,0,1.06c-0.08,1.14-0.24,1.3-1.3,1.3
			c-1.79,0-3.57,0-5.44,0c-0.97,0-1.14-0.16-1.22-1.14c0-0.32,0-0.65,0-0.89c0-9.01,0-17.94,0-26.96c0-0.08,0-0.16,0-0.24
			c0-1.87,0-1.95,1.95-1.95c1.38,0,2.84,0,4.22,0c1.71,0,1.79,0.08,1.79,1.79c0,3.41,0,6.9,0,10.31
			C725.02,262.23,725.02,263.45,725.02,264.67z"/>
		<path class="st9" d="M897.48,233.65c1.22,0,2.35,0.32,3.33,1.14c2.19,1.71,2.27,5.36,0.16,7.15c-1.87,1.62-4.95,1.79-6.82,0.24
			c-1.62-1.3-2.27-3.49-1.62-5.36C893.26,234.87,895.12,233.65,897.48,233.65z"/>
		<path class="st9" d="M715.93,238.28c0.16-2.84,2.35-4.71,5.36-4.55c2.76,0.08,4.87,2.27,4.79,4.79c-0.08,2.68-2.6,4.87-5.36,4.71
			C717.87,243.07,715.84,240.88,715.93,238.28z"/>
	</g>
	<rect y="0" class="st10" width="1366" height="500"/>
</g>
<g id="Ebene_2" class="st6">
</g>
</svg>
