<?xml version="1.0" encoding="utf-8"?>
<!-- Generator: Adobe Illustrator 24.0.1, SVG Export Plug-In . SVG Version: 6.00 Build 0)  -->
<svg version="1.1" id="Ebene_1" xmlns="http://www.w3.org/2000/svg" xmlns:xlink="http://www.w3.org/1999/xlink" x="0px" y="0px"
	 viewBox="0 0 1080 1080" style="enable-background:new 0 0 1080 1080;" xml:space="preserve">
<style type="text/css">
	.st0{fill-rule:evenodd;clip-rule:evenodd;fill:#EB5B2F;}
	.st1{fill:#5F536D;}
	.st2{fill:#6FC3BD;}
</style>
<path class="st0" d="M522.4,613.2c-147,0-266.1-119.1-266.1-266.1c0-147,119.1-266.1,266.1-266.1c147,0,266.1,119.1,266.1,266.1
	C788.5,494.1,669.4,613.2,522.4,613.2L522.4,613.2z M859.6,238.4C811.2,99.6,679.2,0,523.8,0C363,0,227.1,106.8,183.2,253.4
	c-29.6,98.8-7.5,183.3,35.5,272.4C306.1,707,456.5,959.7,523.5,1080c68-122,229.3-378.5,309.2-563.5
	C876.7,415,897.1,345.8,859.6,238.4L859.6,238.4z"/>
<g>
	<path class="st1" d="M713,305.9c0,19.8-5.6,38.4-15.3,54c-4.2,6.9-9.2,13-14.9,18.7c-0.1,0.2-0.1,0.2-0.2,0.2l-106.6,107
		l-45.4,45.4c-2,2-4.8,3.2-7.8,3.2c-2.9,0-5.6-1.1-7.5-2.9c-0.2-0.2-0.5-0.4-0.7-0.7l-45.2-45.2L360.6,376.7
		c-5-5.4-9.4-11.2-13.2-17.3c0-0.1-0.1-0.2-0.1-0.2c-9.4-15.5-14.7-33.6-14.7-53c0-56.8,46.3-103.1,103.1-103.1
		c36.5,0,68.7,19.1,87,47.7c18.2-28.9,50.5-48,87.1-48C666.8,202.8,713,248.9,713,305.9z"/>
	<path class="st1" d="M522.9,552.8c-7.3,0-14.2-2.6-19.6-7.4c-0.8-0.7-1.6-1.4-2.3-2.2l-44.7-44.6L347.1,389.3
		c-5.9-6.3-11.1-13.2-15.4-20.3l-2.7-4.4v-0.4c-9.7-17.8-14.8-37.7-14.8-58c0-67,54.5-121.6,121.6-121.6c33.2,0,64.3,13.3,86.9,36.5
		c22.6-23.4,53.8-36.8,87.2-36.8c67,0,121.6,54.5,121.6,121.6c0,22.7-6.2,44.7-18.1,63.8c-4.6,7.5-10.3,14.7-16.8,21.3
		c-0.5,0.6-1,1.1-1.6,1.6L589.2,498.8l-45.4,45.4C538.2,549.8,530.8,552.8,522.9,552.8z M373.9,363.9l108.6,108.6l40.4,40.3
		l40.2-40.2l107.1-107.5c4.7-4.7,8.5-9.6,11.8-15c8.2-13.3,12.6-28.6,12.6-44.4c0-46.7-38-84.7-84.7-84.7
		c-29.2,0-55.9,14.7-71.5,39.4l-15.5,24.5l-15.6-24.5c-15.7-24.5-42.4-39.2-71.4-39.2c-46.7,0-84.7,38-84.7,84.7
		c0,15.3,4.2,30.4,12.1,43.5l1.3,2.2C367.2,356.1,370.4,360.1,373.9,363.9z"/>
</g>
<g>
	<g>
		<g>
			<path class="st2" d="M659.3,318.5c-3,2.5-7.5,2.1-10.1-0.9l-19.6-23.5l-23.5,19.6c-3,2.5-7.5,2.1-10.1-0.9
				c-2.5-3-2.1-7.5,0.9-10.1l23.5-19.6l-19.6-23.5c-2.5-3-2.1-7.5,0.9-10.1c3-2.5,7.5-2.1,10.1,0.9l19.6,23.5l23.5-19.6
				c3-2.5,7.5-2.1,10.1,0.9c2.5,3,2.1,7.6-0.9,10.1l-23.5,19.6l19.6,23.5C662.7,311.4,662.3,316,659.3,318.5z"/>
		</g>
	</g>
</g>
</svg>
