<?xml version="1.0" encoding="utf-8"?>
<!-- Generator: Adobe Illustrator 24.0.1, SVG Export Plug-In . SVG Version: 6.00 Build 0)  -->
<svg version="1.1" id="Ebene_1" xmlns="http://www.w3.org/2000/svg" xmlns:xlink="http://www.w3.org/1999/xlink" x="0px" y="0px"
	 viewBox="0 0 1080 1131" style="enable-background:new 0 0 1080 1131;" xml:space="preserve">
<style type="text/css">
	.st0{fill:#4C3F5A;}
	.st1{fill:#FFFFFF;}
</style>
<rect class="st0" width="1080" height="1131"/>
<g>
	<path id="Pfad_74" class="st1" d="M398,479c0.2-0.2,0.4-0.5,0.5-0.8c32-63.9,64-127.8,95.9-191.7c0.2-0.3,0.3-0.6,0.5-0.9
		c0.9-1.5,2.8-1.9,4.3-1c0.4,0.3,0.8,0.6,1,1c0.2,0.3,0.3,0.6,0.5,0.8c6.5,13.1,13.1,26.2,19.6,39.2c0.7,1.2,0.7,2.8,0,4l-43.4,86.8
		c-0.2,0.3-0.4,0.7-0.5,1.1c-0.7,1.5-0.1,3.3,1.4,4c0.4,0.2,0.9,0.3,1.3,0.3h3.2c8.6,0,17.1,1.4,25.3,4.2c4.9,1.7,9.6,4,14,6.9
		c2.1,1.4,4.2,2.9,6.2,4.3c3.3,2.2,6.8,4,10.5,5.5c3.9,1.6,8,2.6,12.2,3.1c2.5,0.3,5.1,0.3,7.6,0.1c4.2-0.3,8.4-1.3,12.3-3
		c3.8-1.6,7.3-3.7,10.4-6.4c4-3.4,7.4-7.5,9.8-12.2c2.1-4.1,3.6-8.5,4.2-13.1c0.3-2,0.4-3.9,0.4-5.9c0-1.1,0.5-2.1,1.4-2.7
		c0.5-0.4,1.1-0.5,1.7-0.5h31.1c0.9-0.1,1.7,0.2,2.4,0.8c0.6,0.6,1,1.4,1,2.2c0,2.5-0.1,5-0.3,7.4c-0.3,3.4-0.9,6.8-1.6,10.2
		c-1.1,4.7-2.6,9.2-4.5,13.6c-1.9,4.3-4.1,8.4-6.8,12.3c-1.9,2.8-4,5.5-6.2,8.1c-1.9,2.1-3.8,4.1-5.9,6c-3.4,3.1-7,5.9-10.9,8.3
		c-4.1,2.6-8.5,4.8-13.1,6.6c-5.5,2.1-11.2,3.6-17.1,4.5c-2.5,0.4-5,0.7-7.5,0.9c-0.2,0-0.3,0.1-0.5,0.2h-14.1
		c-0.4-0.1-0.9-0.2-1.4-0.2c-2.2-0.1-4.4-0.4-6.5-0.8c-4-1-7.8-2.4-11.5-4.1c-3.5-1.4-6.9-3.1-10.1-5.1c-2.6-1.6-5.1-3.2-7.7-4.8
		c-3.5-2.2-7.2-4.2-11.1-5.9c-6.2-2.6-13-3.5-19.6-2.7c-3.2,0.4-6.3,1.1-9.3,2.3c-4.6,1.7-8.9,4.2-12.6,7.5
		c-3.9,3.4-7.1,7.5-9.4,12.1c-0.4,0.8-1.1,1.4-1.9,1.6c-0.2,0.1-0.4,0.1-0.5,0.2h-41.4c-1.1-0.3-2.1-1.2-2.5-2.3
		c-0.1-0.1-0.2-0.2-0.2-0.3C398,480,398,479.5,398,479z"/>
	<path id="Pfad_75" class="st1" d="M580.5,243.8c0.3,0.1,0.6,0.2,0.9,0.2c11.6,0.4,22.9,3.4,33.1,8.8c4.6,2.4,8.8,5.4,12.7,8.8
		c8.1,7.1,14.7,16,19.1,25.8c1.1,2.3,1.9,4.6,2.8,7c1.5,4.1,3.4,8,5.6,11.8c2,3.4,4.3,6.7,6.9,9.8c4.5,5.4,9.3,10.6,14.4,15.4
		c1.6,1.5,3.3,3,5,4.4c1.3,1,1.5,2.9,0.5,4.2c-0.5,0.7-1.2,1.1-2.1,1.2c-0.4,0-0.8,0.1-1.2,0.1h-41.9c-1.2,0.1-2.3-0.6-2.8-1.6
		c-1.2-2-2.5-4.1-3.6-6.1c-3.3-5.9-6.4-11.8-9.5-17.7c-1.9-3.6-3.7-7.2-5.4-10.9c-2.2-4.8-5.3-9-9.1-12.7
		c-5.4-5.2-12.2-8.7-19.6-10.2c-3.7-0.8-7.4-1-11.1-0.7c-4.8,0.3-9.5,1.5-13.8,3.5c-4.5,2-8.5,4.9-12,8.4c-3.7,3.8-6.6,8.2-8.6,13.1
		c-0.1,0.3-0.3,0.7-0.5,1c-0.8,1.5-2.7,2.1-4.1,1.3c-0.4-0.2-0.8-0.6-1.1-1c-0.2-0.3-0.4-0.6-0.5-1l-4.7-9.6
		c-2.6-5.3-5.3-10.6-7.9-16l-3.4-6.9c-0.8-1.3-0.6-2.9,0.5-3.9c12.3-14,29.2-23.1,47.6-25.6c2.3-0.3,4.5-0.6,6.8-0.6
		c0.3,0,0.6,0,0.8-0.2C576.3,243.8,578.4,243.8,580.5,243.8z"/>
</g>
</svg>
