<?xml version="1.0" encoding="utf-8"?>
<!-- Generator: Adobe Illustrator 24.0.1, SVG Export Plug-In . SVG Version: 6.00 Build 0)  -->
<svg version="1.1" id="Ebene_1" xmlns="http://www.w3.org/2000/svg" xmlns:xlink="http://www.w3.org/1999/xlink" x="0px" y="0px"
	 viewBox="0 0 1080 1131" style="enable-background:new 0 0 1080 1131;" xml:space="preserve">
<style type="text/css">
	.st0{fill:#4C3F5A;}
	.st1{fill:#FFFFFF;}
</style>
<rect class="st0" width="1080" height="1131"/>
<g>
	<path id="Pfad_74" class="st1" d="M261,714.8c0.3-0.3,0.5-0.8,0.7-1.2c48.6-97.2,97.3-194.4,145.9-291.7c0.3-0.4,0.4-0.9,0.7-1.4
		c1.4-2.2,4.3-2.9,6.5-1.5c0.6,0.4,1.2,0.9,1.5,1.5c0.3,0.4,0.4,0.9,0.7,1.2c9.9,20,19.9,39.8,29.9,59.7c1,1.9,1,4.2,0,6.1l-66,132
		c-0.3,0.5-0.5,1.1-0.8,1.6c-1.1,2.3-0.1,5,2.1,6.1c0.6,0.3,1.3,0.5,2,0.5h4.9c13.1,0,26.1,2.1,38.4,6.3c7.5,2.6,14.6,6.1,21.3,10.4
		c3.3,2.1,6.3,4.4,9.5,6.6c5,3.4,10.3,6.2,15.9,8.3c6,2.4,12.2,4,18.6,4.7c3.8,0.4,7.7,0.5,11.6,0.2c6.5-0.5,12.8-2,18.8-4.5
		c5.8-2.4,11.1-5.7,15.8-9.8c6.1-5.2,11.2-11.5,14.9-18.6c3.3-6.2,5.4-13,6.3-20c0.4-3,0.6-6,0.6-9c0-1.6,0.7-3.2,2.1-4.1
		c0.8-0.6,1.7-0.8,2.7-0.8h47.3c1.3-0.1,2.6,0.4,3.6,1.3c0.9,0.9,1.5,2.1,1.5,3.3c0,3.8-0.2,7.5-0.5,11.3
		c-0.5,5.2-1.4,10.4-2.5,15.5c-1.6,7.1-3.9,14-6.9,20.6c-2.8,6.5-6.3,12.8-10.3,18.7c-2.9,4.3-6.1,8.4-9.5,12.2
		c-2.8,3.2-5.8,6.3-9,9.2c-5.1,4.7-10.6,8.9-16.5,12.6c-6.3,4-12.9,7.3-19.9,10c-8.4,3.2-17.1,5.5-26,6.9c-3.8,0.6-7.6,1.1-11.5,1.4
		c-0.3,0-0.5,0.1-0.8,0.3h-21.5c-0.7-0.2-1.4-0.3-2.1-0.3c-3.3-0.1-6.7-0.6-9.9-1.3c-6-1.6-11.9-3.7-17.6-6.3
		c-5.3-2.2-10.5-4.8-15.4-7.7c-3.9-2.4-7.8-4.9-11.6-7.4c-5.4-3.4-11-6.4-16.9-8.9c-9.4-3.9-19.7-5.3-29.9-4.1
		c-4.9,0.5-9.6,1.7-14.2,3.4c-7,2.6-13.5,6.4-19.2,11.4c-5.9,5.1-10.8,11.4-14.3,18.3c-0.6,1.2-1.6,2.1-2.9,2.5
		c-0.3,0.1-0.5,0.2-0.8,0.3h-63c-1.7-0.5-3.1-1.8-3.9-3.4c-0.1-0.2-0.3-0.3-0.3-0.4C261.1,716.3,261,715.5,261,714.8z"/>
	<path id="Pfad_75" class="st1" d="M538.5,357c0.4,0.2,0.9,0.3,1.4,0.3c17.6,0.6,34.8,5.2,50.4,13.4c6.9,3.7,13.4,8.2,19.4,13.4
		c12.4,10.9,22.3,24.3,29,39.3c1.6,3.5,2.9,7,4.3,10.6c2.3,6.2,5.2,12.2,8.5,17.9c3.1,5.2,6.6,10.2,10.4,14.9
		c6.8,8.3,14.1,16.1,21.8,23.5c2.5,2.3,5.1,4.5,7.6,6.8c1.9,1.6,2.3,4.4,0.8,6.4c-0.7,1.1-1.9,1.7-3.2,1.8c-0.6,0.1-1.2,0.1-1.8,0.1
		h-63.7c-1.8,0.1-3.4-0.8-4.3-2.4c-1.9-3.1-3.8-6.2-5.5-9.3c-5-8.9-9.7-17.9-14.4-26.9c-2.8-5.5-5.7-11-8.2-16.6
		c-3.4-7.2-8-13.8-13.8-19.3c-8.3-7.9-18.6-13.2-29.8-15.5c-5.6-1.1-11.3-1.5-17-1.1c-7.3,0.5-14.4,2.3-21,5.4
		c-6.8,3.1-13,7.5-18.2,12.8c-5.6,5.7-10.1,12.5-13.1,19.9c-0.2,0.5-0.4,1-0.7,1.5c-1.2,2.3-4,3.1-6.3,1.9c-0.7-0.4-1.2-0.9-1.7-1.5
		c-0.3-0.4-0.6-0.9-0.8-1.5l-7.2-14.6c-4-8.1-8-16.2-12.1-24.3l-5.1-10.5c-1.2-1.9-0.9-4.5,0.8-6c18.7-21.3,44.4-35.1,72.4-39
		c3.4-0.5,6.9-0.8,10.4-0.9c0.4,0,0.8,0,1.2-0.3C532.2,357,535.4,357,538.5,357z"/>
</g>
</svg>
