<?xml version="1.0" encoding="utf-8"?>
<!-- Generator: Adobe Illustrator 24.0.1, SVG Export Plug-In . SVG Version: 6.00 Build 0)  -->
<svg version="1.1" id="Ebene_1" xmlns="http://www.w3.org/2000/svg" xmlns:xlink="http://www.w3.org/1999/xlink" x="0px" y="0px"
	 viewBox="0 0 1080 1131" style="enable-background:new 0 0 1080 1131;" xml:space="preserve">
<style type="text/css">
	.st0{fill:#4C3F5A;}
	.st1{fill:#FFFFFF;}
</style>
<rect x="0.17" y="0.42" class="st0" width="1080" height="1131"/>
<g>
	<path id="Pfad_74" class="st1" d="M143.19,889.09c0.57-0.64,1.01-1.39,1.27-2.2c89.39-178.63,178.79-357.31,268.18-536.04
		c0.47-0.79,0.79-1.73,1.27-2.54c2.52-4.08,7.87-5.36,11.95-2.84c1.16,0.71,2.13,1.68,2.84,2.84c0.47,0.79,0.79,1.57,1.27,2.2
		c18.26,36.67,36.57,73.23,54.93,109.7c1.89,3.49,1.89,7.69,0,11.17L363.57,714.06c-0.54,0.96-1.01,1.96-1.42,2.99
		c-2.01,4.14-0.27,9.12,3.87,11.13c1.15,0.56,2.41,0.84,3.69,0.83h8.97c24.04-0.09,47.92,3.85,70.66,11.64
		c13.76,4.86,26.91,11.3,39.19,19.2c5.98,3.78,11.64,8.03,17.47,12.12c9.13,6.19,18.95,11.32,29.25,15.26
		c10.95,4.37,22.44,7.28,34.15,8.66c7.06,0.73,14.17,0.84,21.25,0.31c11.86-0.95,23.49-3.76,34.47-8.34
		c10.6-4.38,20.44-10.44,29.11-17.94c11.27-9.49,20.57-21.09,27.38-34.15c5.99-11.45,9.93-23.86,11.64-36.67
		c0.76-5.48,1.13-11,1.1-16.53c-0.08-2.99,1.34-5.82,3.78-7.56c1.41-1.03,3.14-1.53,4.88-1.42h86.87c2.44-0.19,4.84,0.67,6.61,2.36
		c1.72,1.57,2.7,3.8,2.68,6.14c0,6.92-0.31,13.85-0.94,20.78c-0.97,9.58-2.5,19.09-4.57,28.48c-3.01,13.01-7.22,25.71-12.59,37.93
		c-5.2,12-11.53,23.49-18.89,34.31c-5.37,7.84-11.2,15.36-17.47,22.51c-5.2,5.83-10.7,11.49-16.53,16.84
		c-9.4,8.62-19.56,16.37-30.37,23.14c-11.55,7.3-23.78,13.47-36.51,18.44c-15.39,5.92-31.39,10.14-47.7,12.59
		c-6.93,1.1-13.99,2.05-21.09,2.54c-0.49,0.09-0.97,0.24-1.42,0.47h-39.51c-1.22-0.39-2.5-0.55-3.78-0.47
		c-6.14-0.23-12.26-1.02-18.26-2.36c-11.05-2.93-21.84-6.78-32.26-11.49c-9.76-4.05-19.23-8.79-28.33-14.16
		c-7.24-4.41-14.32-8.97-21.41-13.53c-9.89-6.26-20.26-11.73-31-16.37c-17.36-7.2-36.27-9.8-54.93-7.56
		c-8.94,1-17.72,3.11-26.13,6.3c-12.95,4.7-24.9,11.79-35.23,20.92c-10.85,9.43-19.78,20.88-26.28,33.71
		c-1.05,2.21-3,3.87-5.35,4.57c-0.5,0.14-0.98,0.36-1.42,0.64H151.38c-3.17-0.96-5.76-3.26-7.08-6.3c-0.16-0.31-0.47-0.47-0.64-0.79
		C143.3,891.87,143.14,890.48,143.19,889.09z"/>
	<path id="Pfad_75" class="st1" d="M653.26,231.55c0.81,0.33,1.67,0.49,2.54,0.47c32.32,1.14,63.95,9.59,92.54,24.71
		c12.76,6.79,24.69,15.03,35.57,24.55c22.78,19.96,40.98,44.6,53.35,72.24c2.99,6.45,5.35,12.9,7.87,19.52
		c4.26,11.38,9.47,22.38,15.58,32.89c5.66,9.63,12.08,18.79,19.2,27.38c12.47,15.19,25.87,29.6,40.13,43.12
		c4.57,4.25,9.29,8.34,13.99,12.43c3.55,2.93,4.17,8.12,1.42,11.8c-1.31,1.96-3.47,3.18-5.83,3.31c-1.1,0.13-2.2,0.18-3.31,0.16
		H809.26c-3.25,0.16-6.3-1.55-7.87-4.41c-3.46-5.67-6.93-11.33-10.07-17.17c-9.13-16.37-17.81-32.89-26.44-49.42
		c-5.2-10.07-10.39-20.15-15.11-30.53c-6.17-13.28-14.76-25.28-25.34-35.41c-15.23-14.43-34.21-24.3-54.77-28.48
		c-10.25-2.1-20.73-2.79-31.16-2.05c-13.35,0.93-26.42,4.29-38.56,9.91c-12.54,5.73-23.9,13.73-33.52,23.61
		c-10.32,10.49-18.5,22.89-24.08,36.51c-0.36,0.97-0.78,1.92-1.27,2.83c-2.23,4.17-7.41,5.75-11.58,3.52
		c-1.22-0.65-2.27-1.59-3.05-2.73c-0.62-0.8-1.1-1.71-1.42-2.68l-13.22-26.91c-7.4-14.95-14.79-29.74-22.19-44.69l-9.44-19.36
		c-2.27-3.53-1.67-8.18,1.42-11.01c34.35-39.08,81.61-64.49,133.14-71.61c6.31-0.97,12.66-1.54,19.04-1.73
		c0.77,0.09,1.54-0.08,2.2-0.47C641.62,231.55,647.44,231.55,653.26,231.55z"/>
</g>
</svg>
