<?xml version="1.0" encoding="utf-8"?>
<!-- Generator: Adobe Illustrator 24.0.1, SVG Export Plug-In . SVG Version: 6.00 Build 0)  -->
<svg version="1.1" id="Ebene_1" xmlns="http://www.w3.org/2000/svg" xmlns:xlink="http://www.w3.org/1999/xlink" x="0px" y="0px"
	 viewBox="0 0 1080 1131" style="enable-background:new 0 0 1080 1131;" xml:space="preserve">
<style type="text/css">
	.st0{fill:#FFFFFF;}
</style>
<g>
	<path id="Pfad_74" class="st0" d="M4.93,1001.43c0.77-0.86,1.36-1.87,1.72-2.97c120.54-240.86,241.07-481.79,361.6-722.78
		c0.63-1.06,1.06-2.33,1.72-3.43c3.39-5.51,10.61-7.22,16.12-3.83c1.56,0.96,2.87,2.27,3.83,3.83c0.63,1.06,1.06,2.12,1.72,2.97
		c24.62,49.44,49.3,98.75,74.06,147.91c2.55,4.7,2.55,10.37,0,15.07L302.07,765.42c-0.72,1.3-1.36,2.65-1.91,4.03
		c-2.7,5.58-0.37,12.3,5.21,15.01c1.55,0.75,3.25,1.13,4.97,1.12h12.1c32.41-0.12,64.62,5.19,95.28,15.7
		c18.56,6.56,36.29,15.24,52.84,25.89c8.06,5.09,15.7,10.82,23.56,16.34c12.31,8.35,25.55,15.26,39.45,20.58
		c14.77,5.89,30.25,9.82,46.05,11.67c9.52,0.99,19.11,1.13,28.65,0.42c15.99-1.28,31.68-5.07,46.48-11.25
		c14.3-5.9,27.55-14.07,39.26-24.19c15.19-12.8,27.73-28.44,36.92-46.05c8.07-15.44,13.38-32.17,15.7-49.44
		c1.02-7.39,1.52-14.84,1.48-22.3c-0.11-4.03,1.8-7.85,5.09-10.19c1.9-1.39,4.23-2.06,6.58-1.91h117.14
		c3.29-0.25,6.52,0.91,8.91,3.18c2.32,2.12,3.64,5.13,3.61,8.27c0,9.34-0.42,18.67-1.27,28.01c-1.31,12.91-3.37,25.73-6.16,38.41
		c-4.05,17.54-9.74,34.66-16.98,51.14c-7.02,16.19-15.54,31.68-25.47,46.26c-7.24,10.57-15.11,20.71-23.56,30.35
		c-7.01,7.85-14.43,15.5-22.3,22.71c-12.67,11.63-26.38,22.07-40.95,31.2c-15.58,9.84-32.07,18.16-49.23,24.87
		c-20.76,7.98-42.32,13.68-64.31,16.98c-9.34,1.48-18.87,2.76-28.43,3.43c-0.67,0.11-1.31,0.33-1.91,0.63h-53.27
		c-1.64-0.52-3.37-0.74-5.09-0.63c-8.29-0.31-16.53-1.38-24.62-3.18c-14.9-3.95-29.45-9.14-43.5-15.5
		c-13.16-5.47-25.92-11.85-38.19-19.1c-9.76-5.94-19.31-12.1-28.86-18.25c-13.34-8.44-27.31-15.82-41.8-22.07
		c-23.4-9.7-48.91-13.21-74.06-10.19c-12.05,1.34-23.89,4.19-35.23,8.49c-17.46,6.33-33.58,15.9-47.5,28.2
		c-14.63,12.72-26.67,28.15-35.44,45.45c-1.42,2.98-4.04,5.22-7.21,6.16c-0.67,0.2-1.32,0.48-1.91,0.86H15.96
		c-4.28-1.29-7.77-4.39-9.55-8.49c-0.21-0.42-0.63-0.63-0.86-1.06C5.07,1005.18,4.86,1003.3,4.93,1001.43z"/>
	<path id="Pfad_75" class="st0" d="M692.69,114.82c1.09,0.44,2.26,0.65,3.43,0.63c43.57,1.54,86.23,12.93,124.78,33.31
		c17.2,9.16,33.3,20.27,47.96,33.11c30.71,26.91,55.25,60.13,71.94,97.4c4.03,8.7,7.21,17.4,10.61,26.32
		c5.75,15.35,12.77,30.18,21.01,44.35c7.63,12.98,16.28,25.33,25.89,36.92c16.81,20.49,34.88,39.91,54.11,58.15
		c6.16,5.73,12.52,11.25,18.87,16.76c4.78,3.95,5.62,10.95,1.91,15.92c-1.77,2.64-4.68,4.29-7.85,4.46
		c-1.48,0.18-2.97,0.25-4.46,0.21H903.03c-4.38,0.21-8.5-2.09-10.61-5.94c-4.66-7.64-9.34-15.28-13.58-23.15
		c-12.31-22.07-24.01-44.35-35.65-66.64c-7.01-13.58-14-27.17-20.37-41.16c-8.32-17.9-19.91-34.09-34.16-47.75
		c-20.54-19.46-46.13-32.76-73.85-38.41c-13.81-2.83-27.95-3.76-42.02-2.76c-18,1.25-35.62,5.78-51.99,13.37
		c-16.9,7.73-32.23,18.52-45.2,31.83c-13.91,14.15-24.94,30.87-32.47,49.23c-0.48,1.31-1.06,2.59-1.72,3.82
		c-3,5.62-9.99,7.75-15.62,4.75c-1.65-0.88-3.06-2.14-4.11-3.69c-0.84-1.08-1.49-2.3-1.91-3.61l-17.83-36.29
		c-9.97-20.16-19.95-40.11-29.92-60.27l-12.73-26.1c-3.06-4.76-2.26-11.03,1.91-14.85c46.31-52.69,110.04-86.96,179.53-96.56
		c8.5-1.3,17.08-2.08,25.67-2.33c1.03,0.12,2.07-0.1,2.97-0.63C676.99,114.82,684.84,114.82,692.69,114.82z"/>
</g>
</svg>
