<?xml version="1.0" encoding="utf-8"?>
<!-- Generator: Adobe Illustrator 24.0.1, SVG Export Plug-In . SVG Version: 6.00 Build 0)  -->
<svg version="1.1" id="Ebene_1" xmlns="http://www.w3.org/2000/svg" xmlns:xlink="http://www.w3.org/1999/xlink" x="0px" y="0px"
	 viewBox="0 0 1080 1080" style="enable-background:new 0 0 1080 1080;" xml:space="preserve">
<style type="text/css">
	.st0{fill:#5F536D;}
	.st1{fill:#FFFFFF;}
	.st2{fill:#EB5B2F;}
	.st3{fill:#6FC3BD;}
</style>
<path class="st0" d="M628.9,719.4c-29.6-43.3-74.1-95.3-125.4-146.5c-51.2-51.2-103.3-95.8-146.5-125.4
	c-53.4-36.5-84.8-45.3-101.8-28.4c0,0,0,0,0,0.1c-0.1,0.1-0.2,0.2-0.3,0.4c-4.2,4.3-6.7,9.6-7.6,15.9L3.2,1051.5
	c-2.5,6.2-1,13.3,3.7,18c3.2,3.2,7.5,4.9,11.8,4.9c2.1,0,4.2-0.4,6.2-1.2l616-244.1c6.4-0.9,11.7-3.5,16.1-7.7
	c0.1-0.1,0.1-0.1,0.2-0.2c0,0,0,0,0,0c5.5-5.5,8.3-12.6,8.3-21.4C665.5,781.5,653.5,755.5,628.9,719.4z M262.7,487.3
	c5.5,10.1,12.4,21.2,20.9,33.6c4.1,6,8.5,12.1,13.1,18.4h-54.5L262.7,487.3z M228.8,572.7h93.8c17.6,21.6,37.6,44.1,59.1,66.9H202.3
	L228.8,572.7z M189.1,673.1h225.5c24.5,24.2,49,46.8,72.6,66.9H162.6L189.1,673.1z M48.5,1027.9l21.3-53.8h114.5L48.5,1027.9z
	 M268.7,940.6H83.1l26.5-66.9h328L268.7,940.6z M522,840.3H122.8l26.5-66.9h379.3c9.2,7,18.2,13.5,26.9,19.4
	c12.3,8.4,23.5,15.4,33.6,20.9L522,840.3z M432.6,643.8c-103.1-103-147.8-176.9-151.9-199.2c22.3,4.2,96.1,48.8,199.2,151.9
	c103.1,103.1,147.8,176.9,151.9,199.2C609.4,791.6,535.6,746.9,432.6,643.8z"/>
<polygon class="st1" points="184.3,974.1 48.5,1027.9 69.8,974.1 "/>
<polygon class="st1" points="437.5,873.7 268.7,940.6 83.1,940.6 109.6,873.7 "/>
<path class="st1" d="M589,813.7L522,840.3H122.8l26.5-66.9h379.3c9.2,7,18.2,13.5,26.9,19.4C567.8,801.3,578.9,808.2,589,813.7z"/>
<path class="st1" d="M487.2,740H162.6l26.5-66.9h225.5C439,697.3,463.5,719.8,487.2,740z"/>
<path class="st1" d="M296.6,539.3h-54.5l20.6-51.9c5.5,10.1,12.4,21.2,20.9,33.6C287.6,526.9,292,533,296.6,539.3z"/>
<path class="st1" d="M381.8,639.6H202.3l26.5-66.9h93.8C340.3,594.3,360.2,616.9,381.8,639.6z"/>
<path class="st2" d="M590.3,144.1c3.7,5.2,9.9,7.9,16.2,6.9l40.4-6.2l28,29.8c2.5,2.7,5.9,4.4,9.4,5c2.5,0.4,5.1,0.3,7.7-0.5
	c6.1-1.9,10.6-7,11.6-13.3l6.6-40.3l37-17.4c5.8-2.7,9.5-8.5,9.6-14.8c0.1-6.4-3.4-12.2-9.1-15.2l-36.3-18.7l-5.2-40.5
	C705.4,12.5,701,7.2,695,5.1C689,3,682.3,4.5,677.8,9l-29,28.8l-40.2-7.6c-0.1,0-0.2,0-0.3-0.1c-6.1-1-12.4,1.4-16.1,6.4
	c-3.8,5.1-4.4,11.9-1.6,17.6L609,90.6l-19.6,35.8C586.3,132.1,586.6,138.9,590.3,144.1z M642.8,83.4l-7.1-14.1l15.5,2.9
	c5.3,0.9,11-0.7,14.9-4.6l11.2-11.1l2,15.7c0.7,5.5,4,10.2,8.9,12.7l14,7.2L688,99c-5,2.3-8.5,7-9.4,12.4l-2.5,15.6l-10.8-11.5
	c-2.5-2.7-5.8-4.4-9.4-5c-1.7-0.3-3.5-0.3-5.3,0l-15.6,2.4l7.6-13.8C645.2,94.2,645.3,88.4,642.8,83.4z"/>
<path class="st2" d="M1048.1,362.3l16.4-37.5c2.6-5.8,1.6-12.6-2.5-17.5c-4.1-4.8-10.6-7-16.8-5.5l-39.7,9.8l-30.6-27.1
	c-0.1-0.1-0.2-0.2-0.3-0.2c-4.7-4-11.4-5.1-17.1-2.8c-5.9,2.4-9.9,7.9-10.4,14.3l-3,40.8l-35.3,20.7c-5.5,3.2-8.7,9.3-8.2,15.6
	c0.5,6.3,4.5,11.9,10.4,14.3l37.9,15.4l8.8,39.9c0.8,3.6,2.8,6.8,5.5,9.1c1.9,1.7,4.3,2.9,6.8,3.5c6.2,1.5,12.7-0.6,16.8-5.5
	l26.3-31.2l40.7,4c6.3,0.6,12.5-2.4,15.8-7.8c3.4-5.4,3.4-12.2,0-17.7L1048.1,362.3z M1007.7,384.4c-5.5-0.5-10.9,1.7-14.4,5.9
	l-10.2,12.1l-3.4-15.4c-0.8-3.6-2.7-6.8-5.5-9.1c-1.3-1.1-2.9-2.1-4.5-2.8l-14.6-5.9l13.6-8c4.7-2.8,7.8-7.7,8.2-13.2l1.1-15.7
	l11.8,10.5c4.1,3.5,9.8,5.1,15.1,3.7l15.3-3.8l-6.3,14.5c-2.2,5-1.8,10.8,1.1,15.5l8.3,13.4L1007.7,384.4z"/>
<path class="st3" d="M301.9,238.3c4.6,8,14.8,10.7,22.8,6.1l18.4-10.6V255c0,9.2,7.5,16.7,16.7,16.7c9.2,0,16.7-7.5,16.7-16.7v-21.2
	l18.4,10.6c8,4.6,18.2,1.9,22.8-6.1c4.6-8,1.9-18.2-6.1-22.8l-18.4-10.6l18.4-10.6c8-4.6,10.7-14.8,6.1-22.8
	c-4.6-8-14.8-10.7-22.8-6.1l-18.4,10.6v-21.2c0-9.2-7.5-16.7-16.7-16.7c-9.2,0-16.7,7.5-16.7,16.7v21.2l-18.4-10.6
	c-8-4.6-18.2-1.9-22.8,6.1s-1.9,18.2,6.1,22.8l18.4,10.6l-18.4,10.6C300.1,220.1,297.3,230.3,301.9,238.3z"/>
<path class="st3" d="M956.2,673.1c-4.6-8-14.8-10.7-22.8-6.1L915,677.5v-21.2c0-9.2-7.5-16.7-16.7-16.7c-9.2,0-16.7,7.5-16.7,16.7
	v21.2l-18.4-10.6c-8-4.6-18.2-1.9-22.8,6.1c-4.6,8-1.9,18.2,6.1,22.8l18.4,10.6l-18.4,10.6c-8,4.6-10.7,14.8-6.1,22.8
	c4.6,8,14.8,10.7,22.8,6.1l18.4-10.6v21.2c0,9.2,7.5,16.7,16.7,16.7c9.2,0,16.7-7.5,16.7-16.7v-21.2l18.4,10.6
	c8,4.6,18.2,1.9,22.8-6.1s1.9-18.2-6.1-22.8l-18.4-10.6l18.4-10.6C958.1,691.3,960.8,681.1,956.2,673.1z"/>
<path class="st3" d="M1067.1,81.7l-18.4-10.6l18.4-10.6c8-4.6,10.7-14.8,6.1-22.8c-4.6-8-14.8-10.7-22.8-6.1L1032,42.1V20.9
	c0-9.2-7.5-16.7-16.7-16.7c-9.2,0-16.7,7.5-16.7,16.7v21.2l-18.4-10.6c-8-4.6-18.2-1.9-22.8,6.1s-1.9,18.2,6.1,22.8l18.4,10.6
	l-18.4,10.6c-8,4.6-10.7,14.8-6.1,22.8s14.8,10.7,22.8,6.1l18.4-10.6v21.2c0,9.2,7.5,16.7,16.7,16.7c9.2,0,16.7-7.5,16.7-16.7V100
	l18.4,10.6c8,4.6,18.2,1.9,22.8-6.1C1077.9,96.5,1075.1,86.3,1067.1,81.7z"/>
<circle class="st2" cx="553.8" cy="188.1" r="16.7"/>
<circle class="st2" cx="921.7" cy="188.1" r="16.7"/>
<circle class="st2" cx="821.4" cy="54.4" r="16.7"/>
<circle class="st2" cx="955.1" cy="556" r="16.7"/>
<circle class="st2" cx="721" cy="656.3" r="16.7"/>
<circle class="st2" cx="119" cy="355.3" r="16.7"/>
<circle class="st2" cx="754.5" cy="857" r="16.7"/>
<circle class="st2" cx="687.6" cy="957.3" r="16.7"/>
<circle class="st2" cx="486.9" cy="87.8" r="16.7"/>
<circle class="st2" cx="687.6" cy="522.6" r="16.7"/>
<circle class="st2" cx="854.8" cy="455.7" r="16.7"/>
<path class="st0" d="M495.7,521.6c6.5,6.5,17.1,6.5,23.6,0c9.3-9.3,23.8-5.9,46.7,0.4c12.5,3.5,26.5,7.4,40.4,7.4
	c13.7,0,27.2-3.8,38.9-15.5c23.6-23.6,15.1-54.5,8.2-79.3c-6.3-22.9-9.8-37.4-0.4-46.7c9.3-9.4,23.8-5.9,46.7,0.4
	c24.8,6.9,55.7,15.4,79.3-8.2c23.6-23.6,15.1-54.5,8.2-79.3c-6.3-22.9-9.8-37.4-0.4-46.7c9.4-9.4,23.8-5.9,46.7,0.4
	c24.8,6.9,55.7,15.4,79.3-8.2c6.5-6.5,6.5-17.1,0-23.6c-6.5-6.5-17.1-6.5-23.6,0c-9.4,9.4-23.8,5.9-46.7-0.4
	c-24.8-6.9-55.7-15.4-79.3,8.2c-23.6,23.6-15.1,54.5-8.2,79.3c6.3,22.9,9.8,37.4,0.4,46.7c-9.4,9.3-23.8,5.9-46.7-0.4
	c-24.8-6.9-55.7-15.4-79.3,8.2c-23.6,23.6-15.1,54.5-8.2,79.3c6.3,22.9,9.8,37.4,0.4,46.7c-9.3,9.3-23.8,5.9-46.7-0.4
	c-24.8-6.9-55.7-15.5-79.3,8.2C489.2,504.4,489.2,515,495.7,521.6z"/>
<path class="st0" d="M888.1,574.9c1.2-9.2-5.2-17.6-14.4-18.8c-162.7-21.7-260.4,67.4-264.5,71.2c-6.8,6.3-7.1,16.9-0.8,23.6
	c3.3,3.5,7.8,5.3,12.2,5.3c4.1,0,8.2-1.5,11.4-4.5c0.9-0.8,90-82.2,237.2-62.5C878.5,590.5,886.9,584.1,888.1,574.9z"/>
<path class="st0" d="M481.3,288.3c0.8,0.1,1.6,0.2,2.3,0.2c8.2,0,15.4-6.1,16.5-14.4c3.8-27.4,4.5-55.7,1.9-84.3
	c-0.8-9.2-8.9-16-18.1-15.2c-9.2,0.8-16,8.9-15.2,18.1c2.3,26,1.7,51.8-1.7,76.7C465.8,278.6,472.2,287,481.3,288.3z"/>
<path class="st0" d="M395.8,450.7c3.3,3.3,7.6,5,11.9,5c4.2,0,8.5-1.6,11.7-4.8c1.6-1.6,39-38.8,63.4-106.6
	c3.1-8.7-1.4-18.3-10.1-21.4c-8.7-3.1-18.3,1.4-21.4,10.1c-21.6,60-54.8,93.5-55.4,94.1C389.4,433.5,389.3,444.1,395.8,450.7z"/>
<circle class="st2" cx="185.9" cy="221.6" r="16.7"/>
<circle class="st2" cx="319.7" cy="355.3" r="16.7"/>
<circle class="st2" cx="921.7" cy="890.5" r="16.7"/>
<circle class="st2" cx="587.3" cy="288.5" r="16.7"/>
</svg>
