<?xml version="1.0" encoding="utf-8"?>
<!-- Generator: Adobe Illustrator 24.0.1, SVG Export Plug-In . SVG Version: 6.00 Build 0)  -->
<svg version="1.1" xmlns="http://www.w3.org/2000/svg" xmlns:xlink="http://www.w3.org/1999/xlink" x="0px" y="0px"
	 viewBox="0 0 1080 1131" style="enable-background:new 0 0 1080 1131;" xml:space="preserve">
<style type="text/css">
	.st0{fill:#5F536D;}
	.st1{fill:#FFFFFF;}
	.st2{fill:none;}
	.st3{opacity:0.76;fill:#5F536D;}
	.st4{font-family:'AvenirNext-Regular';}
	.st5{font-size:230px;}
	.st6{letter-spacing:11;}
</style>
<g id="Ebene_1">
	<rect class="st0" width="1080" height="1131"/>
	<g>
		<g>
			<g>
				<path class="st1" d="M21,927.8c-2.7,0.3-5.5,0.5-8.4,0.6c-0.7-1.2-1.4-2.3-2.1-3.5c-0.8-1.3-1.5-2.6-2.3-3.9
					c-2.8-4.8-5.5-9.6-8.2-14.5v-15.8C5.4,901,11,911,16.8,920.7c0.7,1.3,1.5,2.5,2.2,3.8C19.7,925.6,20.3,926.7,21,927.8z"/>
				<path class="st1" d="M80.3,1014.5h-9.5c-0.3-0.4-0.6-0.8-0.9-1.2c-0.6-0.8-1.3-1.7-2-2.6c-0.8-1.1-1.6-2.1-2.4-3.3
					c-0.1-0.2-0.3-0.3-0.4-0.5c-9-12.2-20.2-27.9-32.1-46c-0.8-1.2-1.5-2.3-2.3-3.5c-0.8-1.2-1.6-2.4-2.4-3.7
					c-0.4-0.6-0.8-1.2-1.1-1.8c1.7,0.4,3.4,0.7,5.1,1c1.7,0.3,3.4,0.6,5.1,0.9c1.2,1.8,2.3,3.5,3.4,5.2c0.7,1.1,1.5,2.2,2.2,3.3
					c8.1,12.1,15.7,23,22.5,32.3c2.7,3.7,5.2,7.1,7.5,10.2c0.5,0.7,1,1.3,1.5,2c1,1.3,1.9,2.6,2.8,3.8
					C78.4,1012.1,79.4,1013.3,80.3,1014.5z"/>
				<path class="st1" d="M91.8,1032.8c-0.2,0.4-0.5,0.8-0.9,1.1c-0.7,0.6-1.5,0.9-2.4,0.9c-1.1,0-2.2-0.5-2.9-1.4
					c0,0-0.2-0.2-0.5-0.6c-0.5-0.6-1.4-1.7-2.6-3.2H92C92.4,1030.7,92.3,1031.9,91.8,1032.8z"/>
			</g>
		</g>
		<g>
			<path class="st1" d="M23.4,1029.6v1.2c0,2.1-1.7,3.8-3.8,3.8c-2.1,0-3.8-1.7-3.8-3.8v-1.2c-0.2-27.2-5.2-53.8-14.4-77.1
				c-0.5-1.2-1-2.4-1.4-3.6v-5.3c2.2,1,4.5,1.9,6.8,2.7h0.4c0,0,0,0.1,0.1,0.2c0.8,1.8,1.5,3.7,2.2,5.5c0.2,0.6,0.5,1.2,0.7,1.8
				c0.2,0.6,0.5,1.3,0.7,1.9C18.9,978.3,23.2,1003.4,23.4,1029.6z"/>
		</g>
		<g>
			<g>
				<path class="st1" d="M149.2,578.2c-0.2,0-6.7,0-64.5-1.1c-60.4-1.1-73.1-35.6-73.6-37c-0.7-2,0.4-4.1,2.3-4.8
					c2-0.7,4.1,0.4,4.8,2.3c0.5,1.3,11.8,31,66.6,32c57.5,1,64.1,1.1,64.4,1.1c2.1,0,3.8,1.7,3.8,3.8
					C153,576.6,151.3,578.2,149.2,578.2z"/>
			</g>
			<g>
				<path class="st1" d="M27.6,542.3c-8.3,0-13.6-0.9-14.2-1.1c-2-0.4-3.4-2.3-3-4.4c0.4-2,2.3-3.4,4.4-3
					c0.6,0.1,44.6,7.6,80.6-24.5c32.3-28.7,41.5-55.5,41.5-55.8c0.7-2,2.8-3,4.8-2.4c2,0.7,3,2.8,2.4,4.8c-0.4,1.2-9.9,29-43.7,59
					C74.1,538.3,44.6,542.3,27.6,542.3z"/>
			</g>
			<g>
				<path class="st1" d="M81,551.7c-1.6,0-3.2-1.1-3.6-2.8c-0.6-2,0.6-4.1,2.6-4.6c13.5-3.8,26-10.7,38.3-21.2
					c9-7.7,16.4-16.1,22-25c1.1-1.8,3.4-2.3,5.2-1.2c1.8,1.1,2.3,3.4,1.2,5.2c-6,9.5-13.9,18.5-23.5,26.7
					c-13.1,11.2-26.6,18.6-41.2,22.7C81.7,551.7,81.3,551.7,81,551.7z"/>
			</g>
			<g>
				<path class="st1" d="M138.9,578.2c-2.1,0-3.8-1.7-3.8-3.8c0-2.1,1.7-3.8,3.8-3.8c0.3,0,6.9,0,64.4-1.1c55.2-1,66.5-31.7,66.6-32
					c0.7-2,2.8-3,4.8-2.3c2,0.7,3,2.8,2.3,4.8c-0.5,1.5-13.2,36-73.6,37C145.6,578.2,139.1,578.2,138.9,578.2z"/>
			</g>
			<g>
				<g>
					<path class="st1" d="M151,674.5c0,2.1-1.7,4.1-3.8,4.1H76.1c-1,0-2-0.1-3-0.1c-2.6-0.1-5.1-0.2-7.5-0.4
						C22.6,674.5,6,654.8,0,643.6v-12.3c0.4-0.1,0.9-0.1,1.4,0c0.2,0.1,22.2,4.8,41.1-1.5c16.8-5.6,22.6-10.7,23.6-11.6
						c0.1-0.1,0.1-0.1,0.2-0.2c0.7-0.8,1.7-1.4,2.8-1.4h77.1c2.1,0,3.8,1.8,3.8,3.8c0,2.1-1.7,3.8-3.8,3.8H70.5
						c-2.7,2.1-9.8,7.2-25.6,12.5c-14.3,4.8-29.6,3.9-38.2,2.8c1.8,3.3,4.8,7.6,9.7,12c13.1,11.9,33.8,18.7,59.8,18.7h71.1
						C149.3,670.4,151,672.4,151,674.5z"/>
				</g>
				<g>
					<path class="st1" d="M138.6,678.5c-2.1,0-3.8-2-3.8-4c0-2.1,1.7-4,3.8-4h72.3c47.2-0.9,64-20.7,69.5-30.8
						c-8.6,1.1-24,2-38.3-2.8c-15.8-5.3-22.9-10.3-25.6-12.4h-76.8c-2.1,0-3.8-1.8-3.8-3.8s1.7-3.8,3.8-3.8H218
						c1.1,0,2.1,0.6,2.8,1.4c0,0,5.2,5.4,23.7,11.6c19,6.3,40.9,1.5,41.1,1.5c1.3-0.3,2.6,0.1,3.5,1c0.9,0.9,1.3,2.4,1,3.6
						c-0.4,1.7-10.5,41.3-79.1,42.6H138.6z"/>
				</g>
			</g>
			<g>
				<path class="st1" d="M260.6,542.3c-17,0-46.5-4-72.8-27.3c-33.8-30-43.3-57.9-43.7-59c-0.7-2,0.4-4.1,2.4-4.8
					c2-0.7,4.1,0.4,4.8,2.4c0.1,0.3,9.4,27.2,41.5,55.8c36.1,32.1,80.2,24.6,80.6,24.5c2-0.4,4,1,4.4,3c0.4,2-1,4-3,4.4
					C274.2,541.3,268.8,542.3,260.6,542.3z"/>
			</g>
			<g>
				<g>
					<g>
						<path class="st1" d="M182.1,620.2c-2.1,0-3.8-1.7-3.8-3.8v-42.1c0-2.1,1.7-3.8,3.8-3.8c2.1,0,3.8,1.7,3.8,3.8v42.1
							C185.9,618.5,184.2,620.2,182.1,620.2z"/>
					</g>
					<g>
						<path class="st1" d="M218.2,620.2c-2.1,0-3.8-1.7-3.8-3.8v-43.8c0-2.1,1.7-3.8,3.8-3.8c2.1,0,3.8,1.7,3.8,3.8v43.8
							C222,618.5,220.3,620.2,218.2,620.2z"/>
					</g>
				</g>
				<g>
					<g>
						<path class="st1" d="M69.3,620.2c-2.1,0-3.8-1.7-3.8-3.8v-40.3c0-2.1,1.7-3.8,3.8-3.8s3.8,1.7,3.8,3.8v40.3
							C73.1,618.5,71.4,620.2,69.3,620.2z"/>
					</g>
					<g>
						<path class="st1" d="M105.4,620.2c-2.1,0-3.8-1.7-3.8-3.8v-41.9c0-2.1,1.7-3.8,3.8-3.8c2.1,0,3.8,1.7,3.8,3.8v41.9
							C109.2,618.5,107.5,620.2,105.4,620.2z"/>
					</g>
				</g>
				<g>
					<path class="st1" d="M157.8,621.2c-2.1,0-3.8-1.7-3.8-3.8v-15.9h-20.5v15.9c0,2.1-1.7,3.8-3.8,3.8c-2.1,0-3.8-1.7-3.8-3.8
						v-19.7c0-2.1,1.7-3.8,3.8-3.8h28.1c2.1,0,3.8,1.7,3.8,3.8v19.7C161.6,619.6,159.9,621.2,157.8,621.2z"/>
				</g>
			</g>
			<g>
				<g>
					<g>
						<path class="st1" d="M151,771c0,2.1-1.7,3.8-3.8,3.8H76.1c0,0-0.1,0.1-0.1,0.1c-1,0-1.9-0.1-2.8-0.1c-2.6-0.1-5.1-0.3-7.5-0.5
							C30.1,771,10.3,757.4,0,746.5v-18.5c9.5,0.9,28.6,1.9,42.5-2.7c15.9-5.3,22-10.2,23.4-11.4c0.2-0.2,0.3-0.3,0.3-0.3
							c0.7-0.8,1.7-1.5,2.8-1.5h77.1c2.1,0,3.8,2,3.8,4c0,2.1-1.7,4-3.8,4H70.5c-2.7,2.1-9.8,7-25.6,12.3
							c-14.6,4.9-33.6,4.1-44.1,3.2c2.5,3.3,6.3,7.5,11.9,11.8c19.5,15.2,45.3,18.7,63.5,19.6h71.1C149.3,767.2,151,768.9,151,771z"
							/>
					</g>
					<g>
						<path class="st1" d="M210.9,774.8h-72.3c-2.1,0-3.8-1.8-3.8-3.8c0-2.1,1.7-3.8,3.8-3.8h72.3c47-0.9,67.8-21.3,75.4-31.6
							c-10.5,0.9-29.5,1.8-44.1-3.1c-15.8-5.3-22.9-10.1-25.6-12.2h-76.8c-2.1,0-3.8-2-3.8-4s1.7-4,3.8-4H218c1.1,0,2.1,0.7,2.8,1.5
							c0,0,5.2,5.4,23.7,11.6c19.1,6.4,48.1,2.1,48.4,2.1c1.3-0.2,2.7,0.4,3.5,1.4c0.8,1.1,1,2.5,0.5,3.8
							c-0.7,1.6-17.8,40.2-85.9,42.4C211,775,211,774.8,210.9,774.8z"/>
					</g>
				</g>
				<g>
					<g>
						<g>
							<path class="st1" d="M182.1,716.2c-2.1,0-3.8-1.7-3.8-3.8v-37.6c0-2.1,1.7-3.8,3.8-3.8c2.1,0,3.8,1.7,3.8,3.8v37.6
								C185.9,714.5,184.2,716.2,182.1,716.2z"/>
						</g>
						<g>
							<path class="st1" d="M218.2,716.2c-2.1,0-3.8-1.7-3.8-3.8v-37c0-2.1,1.7-3.8,3.8-3.8c2.1,0,3.8,1.7,3.8,3.8v37
								C222,714.5,220.3,716.2,218.2,716.2z"/>
						</g>
					</g>
					<g>
						<g>
							<path class="st1" d="M69.3,716.2c-2.1,0-3.8-1.7-3.8-3.8v-36c0-2.1,1.7-3.8,3.8-3.8s3.8,1.7,3.8,3.8v36
								C73.1,714.5,71.4,716.2,69.3,716.2z"/>
						</g>
						<g>
							<path class="st1" d="M105.4,716.2c-2.1,0-3.8-1.7-3.8-3.8V675c0-2.1,1.7-3.8,3.8-3.8c2.1,0,3.8,1.7,3.8,3.8v37.5
								C109.2,714.5,107.5,716.2,105.4,716.2z"/>
						</g>
					</g>
					<g>
						<path class="st1" d="M157.8,717.2c-2.1,0-3.8-1.7-3.8-3.8v-13.8h-20.5v13.8c0,2.1-1.7,3.8-3.8,3.8c-2.1,0-3.8-1.7-3.8-3.8
							v-17.6c0-2.1,1.7-3.8,3.8-3.8h28.1c2.1,0,3.8,1.7,3.8,3.8v17.6C161.6,715.5,159.9,717.2,157.8,717.2z"/>
					</g>
				</g>
			</g>
			<g>
				<path class="st1" d="M0,830v-7.2c10.9,0.4,24.8-0.1,37-3.6c17.4-5.1,26.1-9.7,28.8-11.3c0.6-0.4,0.9-0.6,1-0.6
					c0.6-0.5,1.4-0.5,2.2-0.5h77.1c2.1,0,3.8,1.3,3.8,3.4c0,2.1-1.7,3.4-3.8,3.4h-76c-3,2.1-12.3,7.3-31,12.7
					C26,830.1,11.4,830.5,0,830z"/>
				<path class="st1" d="M151,864.5c0,2.1-1.7,4-3.8,4H76.1c0,0-0.1,0.1-0.1,0.1c-1,0-1.9-0.1-2.8-0.1c-2.6-0.1-5.1-0.3-7.5-0.5
					c-29.8-2.7-51.3-12.4-65.6-21.6v-9.6c14.6,10.6,39.5,23.4,76.1,23.7h71.1C149.3,860.5,151,862.4,151,864.5z"/>
			</g>
			<g>
				<path class="st1" d="M212.3,868.6h-72.6c-2.1,0-3.8-2-3.8-4c0-2.1,1.7-4,3.8-4h72.6c33.3-0.4,56.6-11.2,70.3-19.7
					c6.4-4,11.4-7.9,15-11.1c-11.8,1-31.3,1.5-48.2-3.4c-18.8-5.5-28-10.5-31-12.6h-77.5c-2.1,0-3.8-1.3-3.8-3.4
					c0-2.1,1.7-3.4,3.8-3.4h78.6c0.8,0,1.6,0,2.2,0.5c0.1,0,8.3,5.8,29.8,12c24.2,7,55.2,1.9,55.5,1.9c1.5-0.3,3,0.4,3.8,1.7
					c0.8,1.3,0.7,3-0.2,4.2c-1.2,1.6-30.6,39.3-98.1,41.5C212.4,868.6,212.4,868.6,212.3,868.6z"/>
			</g>
			<g>
				<g>
					<g>
						<path class="st1" d="M182.1,810.3c-2.1,0-3.8-1.7-3.8-3.8v-34.6c0-2.1,1.7-3.8,3.8-3.8c2.1,0,3.8,1.7,3.8,3.8v34.6
							C185.9,808.6,184.2,810.3,182.1,810.3z"/>
					</g>
					<g>
						<path class="st1" d="M218.2,810.3c-2.1,0-3.8-1.7-3.8-3.8v-34.3c0-2.1,1.7-3.8,3.8-3.8c2.1,0,3.8,1.7,3.8,3.8v34.3
							C222,808.6,220.3,810.3,218.2,810.3z"/>
					</g>
				</g>
				<g>
					<g>
						<path class="st1" d="M69.3,810.3c-2.1,0-3.8-1.7-3.8-3.8v-36c0-2.1,1.7-3.8,3.8-3.8s3.8,1.7,3.8,3.8v36
							C73.1,808.6,71.4,810.3,69.3,810.3z"/>
					</g>
					<g>
						<path class="st1" d="M105.4,810.3c-2.1,0-3.8-1.7-3.8-3.8v-35.3c0-2.1,1.7-3.8,3.8-3.8c2.1,0,3.8,1.7,3.8,3.8v35.3
							C109.2,808.6,107.5,810.3,105.4,810.3z"/>
					</g>
				</g>
				<g>
					<path class="st1" d="M157.8,811.2c-2.1,0-3.8-1.7-3.8-3.8v-13.8h-20.5v13.8c0,2.1-1.7,3.8-3.8,3.8c-2.1,0-3.8-1.7-3.8-3.8
						v-17.6c0-2.1,1.7-3.8,3.8-3.8h28.1c2.1,0,3.8,1.7,3.8,3.8v17.6C161.6,809.6,159.9,811.2,157.8,811.2z"/>
				</g>
			</g>
			<g>
				<path class="st1" d="M90.3,939.5c0,2.1-1.7,3.8-3.8,3.8H63.8c-2.1,0-3.8-1.7-3.8-3.8s1.7-3.8,3.8-3.8h22.7
					C88.6,935.7,90.3,937.4,90.3,939.5z"/>
				<path class="st1" d="M147,943.2h-40.2c-2.1,0-3.8-1.7-3.8-3.8s1.7-3.8,3.8-3.8h40.1L147,943.2z"/>
				<path class="st1" d="M149.9,906c0,2-1.5,3.3-3.4,3.4c-0.1,0-0.2,0-0.3,0H70.4c-2.8,1.7-10.2,7.4-27.2,13.6
					c-6.4,2.3-13.9,4-22.2,4.8c-2.7,0.3-5.5,0.5-8.4,0.6c-4,0.2-8.2,0.2-12.6,0.1V921c2.7,0.1,5.5,0.1,8.2,0.1
					c2.8,0,5.7-0.2,8.5-0.4c8.4-0.6,16.6-2,23.9-4.7c17.6-6.4,24-11.2,25.3-12.3c0.2-0.1,0.3-0.2,0.3-0.2c0.7-0.8,1.7-0.9,2.7-0.9
					h77.1C148.2,902.6,149.9,904,149.9,906z"/>
				<path class="st1" d="M151,960.6c0,2.1-1.7,3.8-3.8,3.8H76.1c-1,0-2,0-3,0h0c-2.6,0-5.1-0.1-7.5-0.2h0
					c-8.1-0.3-15.5-0.9-22.5-1.8c-3.5-0.4-6.8-0.9-10-1.5c-8.2-1.4-15.6-3.2-22.2-5.3c-3.3-1-6.5-2.1-9.4-3.3
					c-0.5-0.2-1-0.4-1.4-0.6v-8.3c2.2,1,4.5,1.9,6.8,2.7c0.2,0.1,0.3,0.1,0.5,0.2c6.5,2.3,13.2,4.2,20,5.6c1.7,0.4,3.4,0.7,5.1,1
					c1.7,0.3,3.4,0.6,5.1,0.9c13.9,2.2,27.3,2.8,38.7,2.8h71.1C149.3,956.8,151,958.5,151,960.6z"/>
			</g>
			<g>
				<path class="st1" d="M327.7,922.4c-0.9,1.6-22.4,39-105.7,41.9c-2.5,0.1-5,0.1-7.5,0.2c-1,0-1.9,0-2.9,0h-71.9
					c-1.8,0-3.3-1.3-3.7-3c-0.1-0.3-0.1-0.6-0.1-0.9c0-2.1,1.7-3.8,3.8-3.8h71.9c2,0,4,0,6-0.1l1,0c0,0,0,0,0,0
					c58.5-1.4,85.6-20.1,96.4-30.7c-4.8,0.7-11.1,1.6-18.1,2.1c-21.5,1.6-39.2-0.1-52.6-5c-17-6.2-24.4-11.9-27.2-13.6h-76.4
					c-2.1,0-3.8-1.3-3.8-3.4s1.7-3.4,3.8-3.4h77.8c1.1,0,2.1,0.1,2.8,0.9c0,0,0.1,0.1,0.2,0.1c1,0.9,7.3,5.9,25.4,12.5
					c29.7,10.8,76.2,0.8,76.6,0.7c1.4-0.3,2.9,0.2,3.8,1.4C328.3,919.5,328.4,921.1,327.7,922.4z"/>
			</g>
			<g>
				<g>
					<path class="st1" d="M182.1,905.8c-2.1,0-3.8-1.7-3.8-3.8v-35.8c0-2.1,1.7-3.8,3.8-3.8c2.1,0,3.8,1.7,3.8,3.8V902
						C185.9,904.1,184.2,905.8,182.1,905.8z"/>
				</g>
				<g>
					<path class="st1" d="M218.2,905.8c-2.1,0-3.8-1.7-3.8-3.8v-36.4c0-2.1,1.7-3.8,3.8-3.8c2.1,0,3.8,1.7,3.8,3.8V902
						C222,904.1,220.3,905.8,218.2,905.8z"/>
				</g>
			</g>
			<g>
				<g>
					<path class="st1" d="M69.3,905.8c-2.1,0-3.8-1.7-3.8-3.8v-36c0-2.1,1.7-3.8,3.8-3.8s3.8,1.7,3.8,3.8v36
						C73.1,904.1,71.4,905.8,69.3,905.8z"/>
				</g>
				<g>
					<path class="st1" d="M105.4,905.8c-2.1,0-3.8-1.7-3.8-3.8v-37.5c0-2.1,1.7-3.8,3.8-3.8c2.1,0,3.8,1.7,3.8,3.8V902
						C109.2,904.1,107.5,905.8,105.4,905.8z"/>
				</g>
			</g>
			<g>
				<path class="st1" d="M157.8,906.7c-2.1,0-3.8-1.7-3.8-3.8v-13.8h-20.5V903c0,2.1-1.7,3.8-3.8,3.8c-2.1,0-3.8-1.7-3.8-3.8v-17.6
					c0-2.1,1.7-3.8,3.8-3.8h28.1c2.1,0,3.8,1.7,3.8,3.8V903C161.6,905,159.9,906.7,157.8,906.7z"/>
			</g>
			<g>
				<path class="st1" d="M157.8,1012.8c-2.1,0-3.8-1.7-3.8-3.8v-29.5h-20.5v29.5c0,2.1-1.7,3.8-3.8,3.8c-2.1,0-3.8-1.7-3.8-3.8
					v-33.3c0-2.1,1.7-3.8,3.8-3.8h28.1c2.1,0,3.8,1.7,3.8,3.8v33.3C161.6,1011.1,159.9,1012.8,157.8,1012.8z"/>
			</g>
			<g>
				<g>
					<path class="st1" d="M182.1,1013.4c-2.1,0-3.8-1.7-3.8-3.8v-47.3c0-2.1,1.7-3.8,3.8-3.8c2.1,0,3.8,1.7,3.8,3.8v47.3
						C185.9,1011.7,184.2,1013.4,182.1,1013.4z"/>
				</g>
				<g>
					<path class="st1" d="M222,960.4v49.2c0,0.4-0.1,0.8-0.2,1.1c-0.5,1.5-1.9,2.7-3.6,2.7c-1.7,0-3.1-1.1-3.6-2.7
						c-0.1-0.3-0.2-0.7-0.2-1.1v-49.2c0-1.9,1.4-3.4,3.1-3.7c0.2,0,0.4-0.1,0.6-0.1c0.1,0,0.3,0,0.4,0c0,0,0,0,0,0
						C220.5,956.9,222,958.5,222,960.4z"/>
				</g>
			</g>
			<g>
				<g>
					<path class="st1" d="M69.3,1013.4c-2.1,0-3.8-1.7-3.8-3.8v-47.9c0-2.1,1.7-3.8,3.8-3.8s3.8,1.7,3.8,3.8v47.9
						C73.1,1011.7,71.4,1013.4,69.3,1013.4z"/>
				</g>
				<g>
					<path class="st1" d="M105.4,1013.4c-2.1,0-3.8-1.7-3.8-3.8v-47.1c0-2.1,1.7-3.8,3.8-3.8c2.1,0,3.8,1.7,3.8,3.8v47.1
						C109.2,1011.7,107.5,1013.4,105.4,1013.4z"/>
				</g>
			</g>
			<g>
				<path class="st1" d="M48,1010.8v22.1h196.9v-22.1H48z M51.8,1029.6v-15.1h189.3v15.1H51.8z"/>
				<path class="st1" d="M248.6,1010.8v22.1c0,2.1-1.7,3.8-3.8,3.8s-3.8-1.7-3.8-3.8v-18.3H51.8v18.3c0,2.1-1.7,3.8-3.8,3.8
					c-2.1,0-3.8-1.7-3.8-3.8v-22.1c0-2.1,1.7-3.8,3.8-3.8h196.9C247,1007,248.6,1008.7,248.6,1010.8z"/>
			</g>
			<g>
				<g>
					<path class="st1" d="M143.6,457.3c-2.1,0-3.8-1.7-3.8-3.8v-66.5c0-2.1,1.7-3.8,3.8-3.8c2.1,0,3.8,1.7,3.8,3.8v66.5
						C147.4,455.7,145.7,457.3,143.6,457.3z"/>
				</g>
				<g>
					<path class="st1" d="M154.1,431.4h-20.9c-2.1,0-3.8-1.7-3.8-3.8c0-2.1,1.7-3.8,3.8-3.8h20.9c2.1,0,3.8,1.7,3.8,3.8
						C157.8,429.7,156.2,431.4,154.1,431.4z"/>
				</g>
				<g>
					<path class="st1" d="M154.1,417.3h-20.9c-2.1,0-3.8-1.7-3.8-3.8c0-2.1,1.7-3.8,3.8-3.8h20.9c2.1,0,3.8,1.7,3.8,3.8
						C157.8,415.6,156.2,417.3,154.1,417.3z"/>
				</g>
				<g>
					<path class="st1" d="M154.1,403.1h-20.9c-2.1,0-3.8-1.7-3.8-3.8c0-2.1,1.7-3.8,3.8-3.8h20.9c2.1,0,3.8,1.7,3.8,3.8
						C157.8,401.4,156.2,403.1,154.1,403.1z"/>
				</g>
			</g>
			<g>
				<path class="st1" d="M105.3,992.3H69.8c-2.1,0-3.8-1.7-3.8-3.8s1.7-3.8,3.8-3.8h35.5c2.1,0,3.8,1.7,3.8,3.8
					S107.4,992.3,105.3,992.3z"/>
			</g>
			<g>
				<path class="st1" d="M217.3,992.3h-32.7c-2.1,0-3.8-1.7-3.8-3.8s1.7-3.8,3.8-3.8h32.7c2.1,0,3.8,1.7,3.8,3.8
					S219.3,992.3,217.3,992.3z"/>
			</g>
			<g>
				<g>
					<path class="st1" d="M225,939.5c0,2.1-1.7,3.8-3.8,3.8H106.8c-2.1,0-3.8-1.7-3.8-3.8s1.7-3.8,3.8-3.8h114.4
						C223.3,935.7,225,937.4,225,939.5z"/>
				</g>
				<g>
					<path class="st1" d="M90.3,939.5c0,2.1-1.7,3.8-3.8,3.8H63.8c-2.1,0-3.8-1.7-3.8-3.8s1.7-3.8,3.8-3.8h22.7
						C88.6,935.7,90.3,937.4,90.3,939.5z"/>
				</g>
			</g>
			<g>
				<g>
					<path class="st1" d="M221.2,847.5H106.8c-2.1,0-3.8-1.7-3.8-3.8c0-2.1,1.7-3.8,3.8-3.8h114.4c2.1,0,3.8,1.7,3.8,3.8
						C225,845.8,223.3,847.5,221.2,847.5z"/>
				</g>
				<g>
					<path class="st1" d="M86.5,847.5H63.8c-2.1,0-3.8-1.7-3.8-3.8c0-2.1,1.7-3.8,3.8-3.8h22.7c2.1,0,3.8,1.7,3.8,3.8
						C90.3,845.8,88.6,847.5,86.5,847.5z"/>
				</g>
			</g>
			<g>
				<g>
					<path class="st1" d="M221.2,753.9H106.8c-2.1,0-3.8-1.7-3.8-3.8c0-2.1,1.7-3.8,3.8-3.8h114.4c2.1,0,3.8,1.7,3.8,3.8
						C225,752.3,223.3,753.9,221.2,753.9z"/>
				</g>
				<g>
					<path class="st1" d="M86.5,753.9H63.8c-2.1,0-3.8-1.7-3.8-3.8c0-2.1,1.7-3.8,3.8-3.8h22.7c2.1,0,3.8,1.7,3.8,3.8
						C90.3,752.3,88.6,753.9,86.5,753.9z"/>
				</g>
			</g>
			<g>
				<g>
					<path class="st1" d="M221.2,660.4H106.8c-2.1,0-3.8-1.7-3.8-3.8c0-2.1,1.7-3.8,3.8-3.8h114.4c2.1,0,3.8,1.7,3.8,3.8
						C225,658.7,223.3,660.4,221.2,660.4z"/>
				</g>
				<g>
					<path class="st1" d="M86.5,660.4H63.8c-2.1,0-3.8-1.7-3.8-3.8c0-2.1,1.7-3.8,3.8-3.8h22.7c2.1,0,3.8,1.7,3.8,3.8
						C90.3,658.7,88.6,660.4,86.5,660.4z"/>
				</g>
			</g>
		</g>
		<g>
			<path class="st1" d="M276.4,634c3.2-1.3,6.5-2.6,9.6-3.9C413,577.6,503.7,490.3,504.6,489.4c1.5-1.4,3.9-1.4,5.3,0.1
				c1.4,1.5,1.4,3.9-0.1,5.3c-0.9,0.9-92.7,89.2-220.9,142.3c-5,2.1-2.8,1.5-8.1,3.5L276.4,634z"/>
		</g>
		<g>
			<path class="st1" d="M442,650.1c-1.1,0-2.2-0.5-2.9-1.4c-1.3-1.6-1-4,0.6-5.3c33.2-26.6,65.4-58,95.7-93.3
				c1.4-1.6,3.7-1.8,5.3-0.4c1.6,1.4,1.8,3.7,0.4,5.3c-30.6,35.7-63.2,67.4-96.7,94.3C443.6,649.9,442.8,650.1,442,650.1z"/>
		</g>
		<g>
			<path class="st1" d="M791.7,627.7c-116.8-53.5-198.4-132-199.3-132.9c-1.5-1.4-1.5-3.8-0.1-5.3c1.4-1.5,3.8-1.5,5.3-0.1
				c0.8,0.8,80.5,77.4,194.8,130.4L791.7,627.7z"/>
		</g>
		<g>
			<path class="st1" d="M548,505.6c-15.6,0-30.5-3.2-42.1-9.1c-1.9-0.9-2.6-3.2-1.7-5.1c0.9-1.9,3.2-2.6,5.1-1.7
				c10.5,5.3,24.2,8.3,38.6,8.3c16.6,0,32.2-3.9,42.9-10.7c1.8-1.1,4.1-0.6,5.2,1.2c1.1,1.8,0.6,4.1-1.2,5.2
				C583,501.3,565.9,505.6,548,505.6z"/>
		</g>
		<g>
			<path class="st1" d="M557.7,534.3c-2.1,0-3.8-1.7-3.8-3.8c0-2.1,1.7-3.8,3.8-3.8c22.4,0,43.6-5.3,58.1-14.5
				c1.8-1.1,4.1-0.6,5.2,1.2c1.1,1.8,0.6,4.1-1.2,5.2C604.1,528.6,581.5,534.3,557.7,534.3z"/>
		</g>
		<g>
			<path class="st1" d="M805.6,288.9v127.5c0,1.2-0.6,2.4-1.7,3.1l-25.6,17.4c-0.7,3.8-2.2,15.5,1.5,31.8
				c4.7,20.4,20.4,50.7,20.6,51c0.3,0.6,0.5,1.3,0.4,1.9c-0.2,3.6-15.5,308.9-20.4,406.3c-0.1,1.3-0.1,2.6-0.2,3.8
				c-0.1,1.3-0.1,2.6-0.2,3.8c-0.9-0.2-1.8-0.3-2.8-0.3c-1.7,0-3.3,0.3-4.8,0.8c0.1-1.3,0.1-2.6,0.2-4c0.1-1.3,0.1-2.6,0.2-3.9
				c3-60,10-200.2,15.1-302c0.1-2.7,0.3-5.4,0.4-8.1c2.1-42.5,3.9-77.5,4.8-95.7c-2.8-5.4-16.3-32.3-20.8-51.9
				c-5-21.8-1.3-36.1-1.2-36.7c0.2-0.9,0.7-1.6,1.5-2.1l25.1-17.1V288.9c0-2.1,1.8-3.8,3.8-3.8C803.8,285.1,805.6,286.8,805.6,288.9
				z"/>
		</g>
		<g>
			<path class="st1" d="M874.7,1034.2c-2.1,0-3.7-1.6-3.8-3.7c-0.2-5.7-25.1-503.7-25.4-508.7c0-0.7,0.1-1.3,0.4-1.9
				c0.2-0.3,16-30.7,20.7-51.1c3.7-16.3,1.8-28.1,1-31.8l-26.3-17.5c-1-0.7-1.8-1.9-1.8-3.1V288.9c0-2.1,1.8-3.8,3.8-3.8
				s3.8,1.7,3.8,3.8v125.5l25.8,17.2c0.7,0.5,1.3,1.2,1.6,2c0.2,0.6,4.5,15-0.6,36.9c-4.5,19.6-18.1,46.6-20.9,52
				c4.4,87,25.4,506.2,25.4,508C878.5,1032.5,876.8,1034.2,874.7,1034.2z"/>
		</g>
		<g>
			<g>
				<path class="st1" d="M775.3,446.2c-1.6,0-3-1-3.6-2.5c-0.7-2,0.4-4.1,2.3-4.8c12.9-4.5,29.9-7,47.8-7c0,0,0,0,0,0
					c2.1,0,3.8,1.7,3.8,3.8c0,2.1-1.7,3.8-3.8,3.8c-17.1,0-33.2,2.3-45.3,6.6C776.1,446.1,775.7,446.2,775.3,446.2z"/>
			</g>
			<g>
				<path class="st1" d="M869.9,446.2c-0.4,0-0.8-0.1-1.2-0.2c-12.2-4.2-28.3-6.6-45.3-6.6c-2.1,0-3.8-1.7-3.8-3.8
					c0-2.1,1.7-3.8,3.8-3.8c17.9,0,34.9,2.5,47.8,7c2,0.7,3,2.8,2.3,4.8C872.9,445.2,871.5,446.2,869.9,446.2z"/>
			</g>
		</g>
		<g>
			<g>
				<path class="st1" d="M782.3,483.1c-1.6,0-3-1-3.6-2.5c-0.7-2,0.4-4.1,2.3-4.8c11.5-4,26.7-6.2,42.6-6.2c2.1,0,3.8,1.7,3.8,3.8
					c0,2.1-1.7,3.8-3.8,3.8c-15.1,0-29.3,2.1-40.1,5.8C783.2,483,782.7,483.1,782.3,483.1z"/>
			</g>
			<g>
				<path class="st1" d="M866.4,483.1c-0.4,0-0.8-0.1-1.2-0.2c-10.8-3.8-25-5.8-40.1-5.8c-2.1,0-3.8-1.7-3.8-3.8
					c0-2.1,1.7-3.8,3.8-3.8c15.9,0,31.1,2.2,42.6,6.2c2,0.7,3,2.8,2.3,4.8C869.4,482.1,867.9,483.1,866.4,483.1z"/>
			</g>
		</g>
		<g>
			<g>
				<path class="st1" d="M787.3,502.7c-1.6,0-3-1-3.6-2.5c-0.7-2,0.4-4.1,2.3-4.8c10.1-3.5,23.2-5.4,37.1-5.4c2.1,0,3.8,1.7,3.8,3.8
					s-1.7,3.8-3.8,3.8c-13.1,0-25.4,1.8-34.6,5C788.2,502.7,787.8,502.7,787.3,502.7z"/>
			</g>
			<g>
				<path class="st1" d="M860.3,502.7c-0.4,0-0.8-0.1-1.2-0.2c-9.3-3.2-21.6-5-34.6-5c-2.1,0-3.8-1.7-3.8-3.8s1.7-3.8,3.8-3.8
					c13.9,0,27.1,1.9,37.1,5.4c2,0.7,3,2.8,2.3,4.8C863.3,501.8,861.8,502.7,860.3,502.7z"/>
			</g>
		</g>
		<g>
			<g>
				<path class="st1" d="M798.6,522.8c-1.6,0-3-1-3.6-2.5c-0.7-2,0.4-4.1,2.3-4.8c7.3-2.5,16.8-3.9,26.8-3.9c2.1,0,3.8,1.7,3.8,3.8
					c0,2.1-1.7,3.8-3.8,3.8c-9.2,0-17.8,1.2-24.3,3.5C799.4,522.7,799,522.8,798.6,522.8z"/>
			</g>
			<g>
				<path class="st1" d="M850.4,522.8c-0.4,0-0.8-0.1-1.2-0.2c-6.5-2.3-15.1-3.5-24.3-3.5c-2.1,0-3.8-1.7-3.8-3.8
					c0-2.1,1.7-3.8,3.8-3.8c10,0,19.5,1.4,26.8,3.9c2,0.7,3,2.8,2.3,4.8C853.4,521.8,852,522.8,850.4,522.8z"/>
			</g>
		</g>
		<g>
			<path class="st1" d="M843.2,316.3h-41.4c-2.1,0-3.8-1.7-3.8-3.8c0-2.1,1.7-3.8,3.8-3.8h41.4c2.1,0,3.8,1.7,3.8,3.8
				C847,314.6,845.3,316.3,843.2,316.3z"/>
		</g>
		<g>
			<g>
				<path class="st1" d="M854.7,292h-61.3c-2.1,0-3.8-1.7-3.8-3.8c0-2.1,1.7-3.8,3.8-3.8h61.3c2.1,0,3.8,1.7,3.8,3.8
					C858.5,290.3,856.8,292,854.7,292z"/>
			</g>
		</g>
		<g>
			<g>
				<path class="st1" d="M854.7,275h-61.2c-2.1,0-3.8-1.7-3.8-3.8c0-2.1,1.7-3.8,3.8-3.8h61.2c2.1,0,3.8,1.7,3.8,3.8
					C858.5,273.3,856.8,275,854.7,275z"/>
			</g>
		</g>
		<g>
			<path class="st1" d="M806.4,274.4c-2.1,0-3.8-1.7-3.8-3.8V160.1c0-1,0.3-2,1-2.7l17.6-17.1c1.5-1.4,3.8-1.4,5.3,0.1
				c1.4,1.5,1.6,3.9,0.1,5.3l-16.4,16v108.9C810.2,272.7,808.5,274.4,806.4,274.4z"/>
		</g>
		<g>
			<path class="st1" d="M841.6,274.4c-2.1,0-3.6-1.7-3.6-3.8V161.7l-16.5-15.9c-1.5-1.4-1.6-3.8-0.1-5.3c1.4-1.5,3.8-1.5,5.3-0.1
				l17.5,17c0.7,0.7,1.1,1.7,1.1,2.7v110.4C845.2,272.7,843.6,274.4,841.6,274.4z"/>
		</g>
		<g>
			<path class="st1" d="M824.6,274c-2.1,0-3.8-1.7-3.8-3.8V45.8c0-2.1,1.7-3.8,3.8-3.8c2.1,0,3.8,1.7,3.8,3.8v224.5
				C828.3,272.3,826.7,274,824.6,274z"/>
		</g>
		<g>
			<path class="st1" d="M823.6,416.4c-2.1,0-3.8-1.7-3.8-3.8v-53c0-2.1,1.7-3.8,3.8-3.8c2.1,0,3.8,1.7,3.8,3.8v53
				C827.3,414.8,825.6,416.4,823.6,416.4z"/>
		</g>
		<g>
			<path class="st1" d="M823.6,347.4c-2.1,0-3.8-1.7-3.8-3.8v-18.2c0-2.1,1.7-3.8,3.8-3.8c2.1,0,3.8,1.7,3.8,3.8v18.2
				C827.3,345.8,825.6,347.4,823.6,347.4z"/>
		</g>
		<g>
			<g>
				<path class="st1" d="M792.7,292c-2.1,0-3.8-1.7-3.8-3.7v-17c0-2.1,1.7-3.7,3.8-3.7s3.8,1.7,3.8,3.7v17
					C796.5,290.4,794.8,292,792.7,292z"/>
			</g>
			<g>
				<path class="st1" d="M854.8,292c-2.1,0-3.8-1.7-3.8-3.7v-17.1c0-2.1,1.7-3.7,3.8-3.7c2.1,0,3.8,1.7,3.8,3.7v17.1
					C858.6,290.3,856.9,292,854.8,292z"/>
			</g>
		</g>
		<g>
			<path class="st1" d="M817.5,556.4l-13.2,381.6l-0.1,4.2l-0.2,4.7v0c-1.5,1.3-2.7,3.1-3.3,5.1c1.1,0.2,2.1,0.5,3.1,0.9l-0.1,4
				l-0.1,3.7c0,0.2,0,0.3,0,0.5c-2-1.1-4.4-1.8-6.9-1.9c-0.1,0-0.3,0-0.4,0l-0.2,0l0-0.1l0.1-3.6l0.4-11.5l0.2-5.2v0L810,556.2
				c0.1-2.1,1.8-3.7,3.9-3.6C815.9,552.6,817.6,554.4,817.5,556.4z"/>
		</g>
		<g>
			<path class="st1" d="M831,867.4c-2.1,0-3.8-1.7-3.8-3.8V682.1c0-2.1,1.7-3.8,3.8-3.8c2.1,0,3.8,1.7,3.8,3.8v181.6
				C834.7,865.7,833.1,867.4,831,867.4z"/>
		</g>
		<g>
			<path class="st1" d="M910.4,1036.8C910.4,1036.8,910.4,1036.8,910.4,1036.8c-2.1,0-3.8-1.7-3.8-3.8l2.9-239.1
				c0-286.1,29.3-456.9,78.5-456.9c28.1,0,46.2,53.9,56.5,99.1c14.2,62.3,22,145.1,22,233l1.9,260.4c0,2.1-1.7,3.8-3.7,3.8
				c0,0,0,0,0,0c-2.1,0-3.7-1.7-3.8-3.7l-1.9-260.4c0-194.2-36.7-324.6-71-324.6c-18.8,0-36.7,39.6-49.1,108.7
				C924.6,532.5,917,650.3,917,794l-2.9,239.1C914.1,1035.2,912.4,1036.8,910.4,1036.8z"/>
		</g>
		<g>
			<path class="st1" d="M1034.5,958.5c-0.6,1.3-1.9,2.2-3.4,2.2h0c-0.1,0-0.1,0-0.2,0c-1-0.1-1.8-0.4-2.4-1.1
				c-0.7-0.7-1.1-1.6-1.1-2.7l0-0.9c1.2-0.2,2.3-0.4,3.6-0.4C1032.6,955.7,1034.1,956.9,1034.5,958.5z"/>
			<path class="st1" d="M1034.8,950.6c-1-0.1-1.9-0.2-2.7-0.2c-1.6,0-3.2,0.2-4.8,0.5l0-3.8l0-3.8l0-1.8l0-7.5l-0.2-40.7l0-7.5
				l-0.2-40.7l0-7.5l-0.2-40.7l0-7.5l-0.2-40.7l0-7.5l-0.1-19.4c0-7.1,0-14.3-0.1-21.3c0-2.5-0.1-5-0.1-7.5
				c-0.2-13.8-0.5-27.4-0.9-40.7c-0.1-2.5-0.2-5-0.3-7.5c-0.5-13.9-1.1-27.5-1.9-40.7c-0.1-2.5-0.3-5-0.4-7.5
				c-2.1-34-5-65.3-8.8-92.5c-9.5-68.8-21-87.2-26.3-87.2s-16.9,18.4-26.3,87.2c-3.7,27.1-6.7,58.4-8.8,92.5c-0.2,2.5-0.3,5-0.4,7.5
				c-0.8,13.2-1.4,26.8-1.9,40.7c-0.1,2.5-0.2,5-0.3,7.5c-0.4,13.3-0.7,26.9-0.9,40.7c0,2.5-0.1,5-0.1,7.5
				c-0.1,7.1-0.1,14.2-0.1,21.3l-0.1,19.4l0,7.5l-0.2,40.7l0,7.5l-0.2,40.7l0,7.5l-0.2,40.7l0,7.5l-0.2,40.7l0,7.5l-0.2,40.4l0,7.5
				l-0.2,40.5v0.3c0,2.1-1.7,3.7-3.8,3.7h0c-2.1,0-3.8-1.7-3.7-3.8v-0.2l1.6-308.2c0-82.6,4.4-160.3,12.5-218.8
				c3.9-28.6,8.5-51,13.7-66.8c6-18.3,12.4-26.9,20.1-26.9c7.8,0,14.2,8.5,20.1,26.9c5.1,15.8,9.7,38.2,13.7,66.8
				c5.6,40.3,9.4,89.8,11.2,143.7c0,1.1,0.1,2.2,0.1,3.3c0.8,23.2,1.1,47.3,1.1,71.8l0.1,21.3c0,0,0,0,0,0l0,3.7c0,0,0,0,0,0l0.2,45
				c0,0,0,0,0,0l0,2.8c0,0,0,0,0,0l0.7,144l0,8.4L1034.8,950.6z"/>
		</g>
		<g>
			<path class="st1" d="M1008.8,459.3h-40.3c-2.1,0-3.8-1.7-3.8-3.8c0-2.1,1.7-3.8,3.8-3.8h40.3c2.1,0,3.8,1.7,3.8,3.8
				C1012.5,457.6,1010.8,459.3,1008.8,459.3z"/>
		</g>
		<g>
			<path class="st1" d="M1016.1,507.6h-58.5c-2.1,0-3.8-1.7-3.8-3.8c0-2.1,1.7-3.8,3.8-3.8h58.5c2.1,0,3.8,1.7,3.8,3.8
				C1019.9,505.9,1018.2,507.6,1016.1,507.6z"/>
		</g>
		<g>
			<path class="st1" d="M1022.1,555.8h-68.8c-2.1,0-3.8-1.7-3.8-3.8c0-2.1,1.7-3.8,3.8-3.8h68.8c2.1,0,3.8,1.7,3.8,3.8
				C1025.9,554.1,1024.2,555.8,1022.1,555.8z"/>
		</g>
		<g>
			<path class="st1" d="M1026,604h-77.5c-2.1,0-3.8-1.7-3.8-3.8c0-2.1,1.7-3.8,3.8-3.8h77.5c2.1,0,3.8,1.7,3.8,3.8
				C1029.7,602.3,1028.1,604,1026,604z"/>
		</g>
		<g>
			<path class="st1" d="M1029.2,652.2H947c-2.1,0-3.8-1.7-3.8-3.8s1.7-3.8,3.8-3.8h82.2c2.1,0,3.8,1.7,3.8,3.8
				S1031.2,652.2,1029.2,652.2z"/>
		</g>
		<g>
			<path class="st1" d="M1029.2,700.4h-81.5c-2.1,0-3.8-1.7-3.8-3.8c0-2.1,1.7-3.8,3.8-3.8h81.5c2.1,0,3.8,1.7,3.8,3.8
				C1032.9,698.8,1031.2,700.4,1029.2,700.4z"/>
		</g>
		<g>
			<path class="st1" d="M1030.6,748.7h-84.3c-2.1,0-3.8-1.7-3.8-3.8c0-2.1,1.7-3.8,3.8-3.8h84.3c2.1,0,3.8,1.7,3.8,3.8
				C1034.3,747,1032.7,748.7,1030.6,748.7z"/>
		</g>
		<g>
			<path class="st1" d="M1030.6,796.9h-85c-2.1,0-3.8-1.7-3.8-3.8c0-2.1,1.7-3.8,3.8-3.8h85c2.1,0,3.8,1.7,3.8,3.8
				C1034.3,795.2,1032.7,796.9,1030.6,796.9z"/>
		</g>
		<g>
			<path class="st1" d="M1029.9,845.1h-83.6c-2.1,0-3.8-1.7-3.8-3.8c0-2.1,1.7-3.8,3.8-3.8h83.6c2.1,0,3.8,1.7,3.8,3.8
				C1033.6,843.4,1031.9,845.1,1029.9,845.1z"/>
		</g>
		<g>
			<path class="st1" d="M1030.6,893.3h-84.3c-2.1,0-3.8-1.7-3.8-3.8s1.7-3.8,3.8-3.8h84.3c2.1,0,3.8,1.7,3.8,3.8
				S1032.7,893.3,1030.6,893.3z"/>
		</g>
		<g>
			<path class="st1" d="M1030.9,941.5h-86.1c-2,0-3.7-1.7-3.7-3.8c0-2.1,1.7-3.8,3.7-3.8h86.1c2,0,3.7,1.7,3.7,3.8
				C1034.6,939.9,1032.9,941.5,1030.9,941.5z"/>
		</g>
		<g>
			<path class="st1" d="M1016.6,989.5h-71.8c-2.1,0-3.8-1.7-3.8-3.8s1.7-3.8,3.8-3.8h66.5C1012.6,984.8,1014.4,987.4,1016.6,989.5z"
				/>
			<path class="st1" d="M1034.6,986.2c0,1.4-0.8,2.7-2,3.3h-5.7c-4.4-1-8.2-3.8-10.6-7.5l10.7,2.9l3.8-2.5
				C1033,982.4,1034.6,984.1,1034.6,986.2z"/>
		</g>
		<g>
			<path class="st1" d="M1080,593.3v7.5h-15.6c-2.1,0-3.8-1.7-3.8-3.8c0-2.1,1.7-3.8,3.8-3.8H1080z"/>
		</g>
		<g>
			<g>
				<g>
					<path class="st1" d="M15.8,1029.6h7.5v1.2c0,2.1-1.7,3.8-3.8,3.8c-2.1,0-3.8-1.7-3.8-3.8V1029.6z"/>
					<path class="st1" d="M248.6,1029.6v3.2c0,2.1-1.7,3.8-3.8,3.8s-3.8-1.7-3.8-3.8H91.8c-0.2,0.4-0.5,0.8-0.9,1.1
						c-0.7,0.6-1.5,0.9-2.4,0.9c-1.1,0-2.2-0.5-2.9-1.4c0,0-0.2-0.2-0.5-0.6H51.8c0,2.1-1.7,3.8-3.8,3.8c-2.1,0-3.8-1.7-3.8-3.8
						v-3.2H248.6z"/>
					<path class="st1" d="M298.2,1033.4c0,2.1-1.7,3.8-3.8,3.8h-3.5v-3.3c0-2.1,1.7-3.8,3.8-3.8c1.3,0,2.4,0.7,3.1,1.7
						c0,0,0,0,0,0.1C298.1,1032.2,298.2,1032.8,298.2,1033.4z"/>
				</g>
				<g>
					<path class="st1" d="M298.2,1074.5c0,0.2,0,0.4,0,0.5c0,0,0,0,0,0c-0.6,1.3-1.9,2.3-3.5,2.3c-2.1,0-3.8-1.7-3.8-3.8v-2.9h3.5
						C296.5,1070.7,298.2,1072.4,298.2,1074.5z"/>
				</g>
			</g>
			<g>
				<path class="st1" d="M298.4,1033.8v39.8c0,0.5-0.1,1-0.3,1.4c0,0,0,0,0,0c-0.6,1.3-1.9,2.3-3.5,2.3c-2.1,0-3.8-1.7-3.8-3.8
					v-39.8c0-2.1,1.7-3.8,3.8-3.8c1.3,0,2.4,0.7,3.1,1.7c0,0,0,0,0,0.1C298.2,1032.3,298.4,1033.1,298.4,1033.8z"/>
			</g>
			<g>
				<g>
					<path class="st1" d="M211.5,1056.5H70c-2.1,0-3.8-1.7-3.8-3.8s1.7-3.8,3.8-3.8h141.6c2.1,0,3.8,1.7,3.8,3.8
						S213.6,1056.5,211.5,1056.5z"/>
				</g>
			</g>
		</g>
		<g>
			<g>
				<path class="st1" d="M1080,1030v7.5H737.1c-2.1,0-3.8-1.7-3.8-3.8c0-1.3,0.6-2.4,1.6-3.1c0.1,0,0.1-0.1,0.2-0.1
					c0.6-0.3,1.2-0.5,1.9-0.5H1080z"/>
			</g>
			<g>
				<path class="st1" d="M1080,1071.1v7.5H737.1c-2.1,0-3.8-1.7-3.8-3.8c0-0.1,0-0.1,0-0.2c0.1-2,1.7-3.6,3.8-3.6H1080z"/>
			</g>
		</g>
		<g>
			<path class="st1" d="M737,1077.3c-2.1,0-3.8-1.7-3.8-3.8v-39.7c0-2.1,1.7-3.8,3.8-3.8c2.1,0,3.8,1.7,3.8,3.8v39.7
				C740.8,1075.6,739.1,1077.3,737,1077.3z"/>
		</g>
		<g>
			<g>
				<path class="st1" d="M979.1,1056.5H831.7c-2.1,0-3.8-1.7-3.8-3.8s1.7-3.8,3.8-3.8h147.4c2.1,0,3.8,1.7,3.8,3.8
					S981.2,1056.5,979.1,1056.5z"/>
			</g>
			<g>
				<path class="st1" d="M808.1,1056.5h-38.7c-2.1,0-3.8-1.7-3.8-3.8s1.7-3.8,3.8-3.8h38.7c2.1,0,3.8,1.7,3.8,3.8
					S810.2,1056.5,808.1,1056.5z"/>
			</g>
		</g>
		<g>
			<path class="st1" d="M524.6,753.9H376c-1.6,0-3-0.9-3.5-2.4l-12.8-35.4c-0.5-1.3-0.2-2.8,0.8-3.9c1-1,2.5-1.4,3.8-1
				c0.3,0.1,27.5,8,76.8,12.1c43.8,3.7,62.1,3.3,62.3,3.3h22.3c2.1,0,3.8,2.2,3.8,4.3c0,2.1-1.7,4.3-3.8,4.3h-22.3
				c-0.7,0-18.8-0.1-62.9-3.8c-36-3-60.1-8.1-71.3-10.8l9.4,26.1h146c2.1,0,3.8,1.5,3.8,3.6S526.7,753.9,524.6,753.9z"/>
		</g>
		<g>
			<path class="st1" d="M525.7,766.3H398.6c-0.6-2.6-1.4-4.3-2.4-6.7c-0.9-2.3-1.6-4.1-2.2-5.7c-1.9-4.4-3.3-5.9-5.6-5.9
				c-2.1,0-3.8,1.7-3.8,3.8c0,0.8,0.3,1.6,0.7,2.2c0.2,0.3,0.5,0.6,0.8,0.8c1.2,2,4.1,9.6,6.3,16c0.5,1.5,2,2.4,3.6,2.4h129.8
				c2.1,0,3.8-1.3,3.8-3.4C529.4,767.6,527.8,766.3,525.7,766.3z"/>
		</g>
		<g>
			<path class="st1" d="M670,753.9H521.4c-2.1,0-3.8-1.5-3.8-3.6s1.7-3.6,3.8-3.6h146l9.4-26.3c-11.1,2.7-35.2,8-71.3,11
				c-44.1,3.7-62.2,3.8-63,3.8h-24.4c-2.1,0-3.8-2.2-3.8-4.3c0-2.1,1.7-4.3,3.8-4.3h24.5c0.2,0,18.6,0.4,62.3-3.3
				c49.3-4.2,76.5-12.2,76.8-12.3c1.4-0.4,2.8,0,3.8,1.1c1,1,1.3,2.6,0.8,3.9l-12.8,35.4C673,753,671.6,753.9,670,753.9z"/>
		</g>
		<g>
			<path class="st1" d="M656.5,748.2c-2.5,0-3.8,1.6-5.4,5.8c-0.6,1.6-1.2,3.5-2,5.9c-0.7,2.3-1.4,3.9-1.9,6.5H518.1
				c-2.1,0-3.8,1.3-3.8,3.4c0,2.1,1.7,3.4,3.8,3.4h132c1.7,0,3.2-1,3.6-2.6c1.8-6.3,4.2-13.8,5.2-15.8c0.3-0.2,0.5-0.5,0.7-0.8
				c0.4-0.6,0.6-1.3,0.6-2.1C660.3,749.8,658.6,748.2,656.5,748.2z"/>
		</g>
		<g>
			<g>
				<path class="st1" d="M408.3,1007c-0.1,0-0.1,0-0.2,0c-2.1-0.1-3.7-1.9-3.6-4l11.9-232.2c0.1-2.1,1.9-3.7,4-3.6
					c2.1,0.1,3.7,1.9,3.6,4l-11.9,232.2C412,1005.5,410.3,1007,408.3,1007z"/>
			</g>
			<g>
				<path class="st1" d="M451.8,1007c-2,0-3.7-1.6-3.8-3.6l-11.9-232.2c-0.1-2.1,1.5-3.8,3.6-4c2.1-0.1,3.8,1.5,4,3.6l11.9,232.2
					c0.1,2.1-1.5,3.8-3.6,4C452,1007,451.9,1007,451.8,1007z"/>
			</g>
		</g>
		<g>
			<g>
				<path class="st1" d="M595.4,1007c-0.1,0-0.1,0-0.2,0c-2.1-0.1-3.7-1.9-3.6-4l11.9-232.2c0.1-2.1,1.9-3.7,4-3.6
					c2.1,0.1,3.7,1.9,3.6,4l-11.9,232.2C599.1,1005.5,597.4,1007,595.4,1007z"/>
			</g>
			<g>
				<path class="st1" d="M639,1007c-2,0-3.7-1.6-3.8-3.6l-11.9-232.2c-0.1-2.1,1.5-3.8,3.6-4c2.1-0.1,3.8,1.5,4,3.6l11.9,232.2
					c0.1,2.1-1.5,3.8-3.6,4C639.1,1007,639,1007,639,1007z"/>
			</g>
		</g>
		<g>
			<path class="st1" d="M653.3,826.4H392c-2.1,0-3.8-1.7-3.8-3.8c0-2.1,1.7-3.8,3.8-3.8h261.3c2.1,0,3.8,1.7,3.8,3.8
				C657,824.7,655.4,826.4,653.3,826.4z"/>
		</g>
		<g>
			<path class="st1" d="M653.3,802.6H392c-2.1,0-3.8-1.7-3.8-3.8c0-2.1,1.7-3.8,3.8-3.8h261.3c2.1,0,3.8,1.7,3.8,3.8
				C657,800.9,655.4,802.6,653.3,802.6z"/>
		</g>
		<g>
			<path class="st1" d="M503.5,798.6c-2.1,0-3.8-1.7-3.8-3.8v-21.9c0-2.1,1.7-3.8,3.8-3.8c2.1,0,3.8,1.7,3.8,3.8v21.9
				C507.3,796.9,505.6,798.6,503.5,798.6z"/>
		</g>
		<g>
			<path class="st1" d="M535.3,798.6c-2.1,0-3.8-1.7-3.8-3.8v-21.9c0-2.1,1.7-3.8,3.8-3.8c2.1,0,3.8,1.7,3.8,3.8v21.9
				C539,796.9,537.3,798.6,535.3,798.6z"/>
		</g>
		<g>
			<path class="st1" d="M390.5,826.4c-2.1,0-3.8-1.7-3.8-3.8v-23.9c0-2.1,1.7-3.8,3.8-3.8s3.8,1.7,3.8,3.8v23.9
				C394.3,824.8,392.6,826.4,390.5,826.4z"/>
		</g>
		<g>
			<path class="st1" d="M654,826.4c-2.1,0-3.8-1.7-3.8-3.8v-23.9c0-2.1,1.7-3.8,3.8-3.8c2.1,0,3.8,1.7,3.8,3.8v23.9
				C657.8,824.8,656.1,826.4,654,826.4z"/>
		</g>
		<g>
			<path class="st1" d="M449.6,968.1h-38.5c-2.1,0-3.8-1.7-3.8-3.8c0-2.1,1.7-3.8,3.8-3.8h38.5c2.1,0,3.8,1.7,3.8,3.8
				C453.3,966.4,451.6,968.1,449.6,968.1z"/>
		</g>
		<g>
			<path class="st1" d="M463.6,1009.2h-69.2c-2.1,0-3.8-1.7-3.8-3.8c0-2.1,1.7-3.8,3.8-3.8h69.2c2.1,0,3.8,1.7,3.8,3.8
				C467.3,1007.5,465.7,1009.2,463.6,1009.2z"/>
		</g>
		<g>
			<path class="st1" d="M652.1,1009.2H583c-2.1,0-3.8-1.7-3.8-3.8c0-2.1,1.7-3.8,3.8-3.8h69.2c2.1,0,3.8,1.7,3.8,3.8
				C655.9,1007.5,654.2,1009.2,652.1,1009.2z"/>
		</g>
		<g>
			<path class="st1" d="M636.7,968.1h-38.5c-2.1,0-3.8-1.7-3.8-3.8c0-2.1,1.7-3.8,3.8-3.8h38.5c2.1,0,3.8,1.7,3.8,3.8
				C640.4,966.4,638.7,968.1,636.7,968.1z"/>
		</g>
		<g>
			<g>
				<path class="st1" d="M654.6,1066.9c-3.8,0-7.7-0.4-11.6-1.2c-3.9-0.8-7.5-2.2-11.2-3.7c-4.1-1.6-8.2-3.3-13-4.2
					c-12.1-2.3-24-1.3-32.6,2.8c-1.9,0.9-4.1,0.1-5-1.8s-0.1-4.1,1.8-5c13.7-6.5,29.2-4.9,37.2-3.4c5.5,1,10.2,2.9,14.4,4.6
					c3.5,1.4,6.7,2.7,10,3.4c11.1,2.3,21.9,0.8,32.3-4.5c1.8-0.9,4.1-0.2,5.1,1.6c0.9,1.8,0.2,4.1-1.6,5.1
					C672,1064.7,663.4,1066.9,654.6,1066.9z"/>
			</g>
			<g>
				<path class="st1" d="M678.7,1060.9c-1.4,0-2.8-0.8-3.4-2.1c-0.9-1.9-0.1-4.1,1.8-5c13.7-6.5,29.2-4.9,37.2-3.4
					c2,0.4,3.4,2.4,3,4.4c-0.4,2-2.4,3.4-4.4,3c-12.1-2.3-24-1.3-32.6,2.8C679.8,1060.8,679.2,1060.9,678.7,1060.9z"/>
			</g>
		</g>
		<g>
			<g>
				<g>
					<path class="st1" d="M373.9,1066.9c-3.8,0-7.7-0.4-11.6-1.2c-3.9-0.8-7.5-2.2-11.2-3.7c-4.1-1.6-8.2-3.3-13-4.2
						c-6.3-1.2-12.7-1.5-18.5-0.9c-2.1,0.2-3.9-1.3-4.1-3.4c-0.2-2.1,1.3-3.9,3.4-4.1c6.5-0.7,13.7-0.3,20.7,1
						c5.5,1,10.2,2.9,14.4,4.6c3.5,1.4,6.7,2.7,10,3.4c11.1,2.3,21.9,0.8,32.3-4.5c1.8-0.9,4.1-0.2,5.1,1.6c0.9,1.8,0.2,4.1-1.6,5.1
						C391.3,1064.7,382.7,1066.9,373.9,1066.9z"/>
				</g>
				<g>
					<path class="st1" d="M468,1066.9c-3.9,0-7.7-0.4-11.7-1.2c-3.9-0.8-7.5-2.2-11.2-3.7c-4.1-1.6-8.2-3.3-13-4.2
						c-12.1-2.3-24-1.3-32.6,2.8c-1.9,0.9-4.1,0.1-5-1.8c-0.9-1.9-0.1-4.1,1.8-5c13.7-6.5,29.2-4.9,37.2-3.4
						c5.5,1,10.2,2.9,14.4,4.6c3.5,1.4,6.7,2.7,10,3.4c11.1,2.3,22,0.8,32.4-4.5c1.8-0.9,4.1-0.2,5.1,1.6c0.9,1.8,0.2,4.1-1.6,5.1
						C485.4,1064.7,476.8,1066.9,468,1066.9z"/>
				</g>
			</g>
			<g>
				<g>
					<path class="st1" d="M562.1,1066.9c-3.8,0-7.7-0.4-11.6-1.2c-3.9-0.8-7.5-2.2-11.2-3.7c-4.1-1.6-8.2-3.3-13-4.2
						c-12.1-2.3-24-1.3-32.6,2.8c-1.9,0.9-4.1,0.1-5-1.8c-0.9-1.9-0.1-4.1,1.8-5c13.7-6.5,29.2-4.9,37.2-3.4
						c5.5,1,10.2,2.9,14.4,4.6c3.5,1.4,6.7,2.7,10,3.4c11.1,2.3,21.9,0.8,32.3-4.5c1.8-0.9,4.1-0.2,5.1,1.6c0.9,1.8,0.2,4.1-1.6,5.1
						C579.4,1064.7,570.8,1066.9,562.1,1066.9z"/>
				</g>
				<g>
					<path class="st1" d="M656.1,1066.9c-3.8,0-7.7-0.4-11.6-1.2c-3.9-0.8-7.5-2.2-11.2-3.7c-4.1-1.6-8.2-3.3-13-4.2
						c-12.1-2.3-24-1.3-32.6,2.8c-1.9,0.9-4.1,0.1-5-1.8c-0.9-1.9-0.1-4.1,1.8-5c13.7-6.5,29.2-4.9,37.2-3.4
						c5.5,1,10.2,2.9,14.4,4.6c3.5,1.4,6.7,2.7,10,3.4c11.1,2.3,21.9,0.8,32.3-4.5c5.7-2.9,12.8-4.6,20.5-4.8c2.1,0,3.8,1.6,3.9,3.6
						c0.1,2.1-1.6,3.8-3.6,3.9c-6.6,0.2-12.6,1.6-17.3,4C673.5,1064.7,664.9,1066.9,656.1,1066.9z"/>
				</g>
			</g>
			<g>
				<g>
					<path class="st1" d="M373.9,1084.7c-3.8,0-7.7-0.4-11.6-1.2c-3.9-0.8-7.5-2.2-11.2-3.7c-4.1-1.6-8.2-3.3-13-4.2
						c-2-0.4-3.4-2.4-3-4.4c0.4-2,2.4-3.4,4.4-3c5.5,1,10.2,2.9,14.4,4.6c3.5,1.4,6.7,2.7,10,3.4c11.1,2.3,21.9,0.8,32.3-4.5
						c1.8-0.9,4.1-0.2,5.1,1.6c0.9,1.8,0.2,4.1-1.6,5.1C391.3,1082.6,382.7,1084.7,373.9,1084.7z"/>
				</g>
				<g>
					<path class="st1" d="M468,1084.7c-3.9,0-7.7-0.4-11.7-1.2c-3.9-0.8-7.5-2.2-11.2-3.7c-4.1-1.6-8.2-3.3-13-4.2
						c-12.1-2.3-24-1.3-32.6,2.8c-1.9,0.9-4.1,0.1-5-1.8c-0.9-1.9-0.1-4.1,1.8-5c13.7-6.5,29.2-4.9,37.2-3.4
						c5.5,1,10.2,2.9,14.4,4.6c3.5,1.4,6.7,2.7,10,3.4c11.1,2.3,22,0.8,32.4-4.5c1.8-0.9,4.1-0.2,5.1,1.6c0.9,1.8,0.2,4.1-1.6,5.1
						C485.4,1082.6,476.8,1084.7,468,1084.7z"/>
				</g>
			</g>
			<g>
				<g>
					<path class="st1" d="M562.1,1084.7c-3.8,0-7.7-0.4-11.6-1.2c-3.9-0.8-7.5-2.2-11.2-3.7c-4.1-1.6-8.2-3.3-13-4.2
						c-12.1-2.3-24-1.3-32.6,2.8c-1.9,0.9-4.1,0.1-5-1.8c-0.9-1.9-0.1-4.1,1.8-5c13.7-6.5,29.2-4.9,37.2-3.4
						c5.5,1,10.2,2.9,14.4,4.6c3.5,1.4,6.7,2.7,10,3.4c11.1,2.3,21.9,0.8,32.3-4.5c1.8-0.9,4.1-0.2,5.1,1.6c0.9,1.8,0.2,4.1-1.6,5.1
						C579.4,1082.6,570.8,1084.7,562.1,1084.7z"/>
				</g>
				<g>
					<path class="st1" d="M656.1,1084.7c-3.8,0-7.7-0.4-11.6-1.2c-3.9-0.8-7.5-2.2-11.2-3.7c-4.1-1.6-8.2-3.3-13-4.2
						c-12.1-2.3-24-1.3-32.6,2.8c-1.9,0.9-4.1,0.1-5-1.8c-0.9-1.9-0.1-4.1,1.8-5c13.7-6.5,29.2-4.9,37.2-3.4
						c5.5,1,10.2,2.9,14.4,4.6c3.5,1.4,6.7,2.7,10,3.4c11.1,2.3,21.9,0.8,32.3-4.5c5.7-2.9,12.8-4.6,20.5-4.8
						c2.1-0.1,3.8,1.6,3.9,3.6c0.1,2.1-1.6,3.8-3.6,3.9c-6.6,0.2-12.6,1.6-17.3,4C673.5,1082.6,664.9,1084.7,656.1,1084.7z"/>
				</g>
			</g>
			<g>
				<g>
					<path class="st1" d="M373.9,1049.2c-3.8,0-7.7-0.4-11.6-1.2c-3.9-0.8-7.5-2.2-11.2-3.7c-4.1-1.6-8.2-3.3-13-4.2
						c-2-0.4-3.4-2.4-3-4.4c0.4-2,2.4-3.4,4.4-3c5.5,1,10.2,2.9,14.4,4.6c3.5,1.4,6.7,2.7,10,3.4c11.1,2.3,21.9,0.8,32.3-4.5
						c1.8-1,4.1-0.2,5.1,1.6c0.9,1.8,0.2,4.1-1.6,5.1C391.3,1047.1,382.7,1049.2,373.9,1049.2z"/>
				</g>
				<g>
					<path class="st1" d="M468,1049.2c-3.9,0-7.7-0.4-11.7-1.2c-3.9-0.8-7.5-2.2-11.2-3.7c-4.1-1.6-8.2-3.3-13-4.2
						c-12.1-2.3-24-1.3-32.6,2.8c-1.9,0.9-4.1,0.1-5-1.8c-0.9-1.9-0.1-4.1,1.8-5c13.7-6.5,29.2-4.9,37.2-3.4
						c5.5,1,10.2,2.9,14.4,4.6c3.5,1.4,6.7,2.7,10,3.4c11.1,2.3,22,0.8,32.4-4.5c1.8-0.9,4.1-0.2,5.1,1.6c0.9,1.8,0.2,4.1-1.6,5.1
						C485.4,1047.1,476.8,1049.2,468,1049.2z"/>
				</g>
			</g>
			<g>
				<g>
					<path class="st1" d="M562.1,1049.2c-3.8,0-7.7-0.4-11.6-1.2c-3.9-0.8-7.5-2.2-11.2-3.7c-4.1-1.6-8.2-3.3-13-4.2
						c-12.1-2.3-24-1.3-32.6,2.8c-1.9,0.9-4.1,0.1-5-1.8c-0.9-1.9-0.1-4.1,1.8-5c13.7-6.5,29.2-4.9,37.2-3.4
						c5.5,1,10.2,2.9,14.4,4.6c3.5,1.4,6.7,2.7,10,3.4c11.1,2.3,21.9,0.8,32.3-4.5c1.8-0.9,4.1-0.2,5.1,1.6c0.9,1.8,0.2,4.1-1.6,5.1
						C579.4,1047.1,570.8,1049.2,562.1,1049.2z"/>
				</g>
				<g>
					<path class="st1" d="M656.1,1049.2c-3.8,0-7.7-0.4-11.6-1.2c-3.9-0.8-7.5-2.2-11.2-3.7c-4.1-1.6-8.2-3.3-13-4.2
						c-12.1-2.3-24-1.3-32.6,2.8c-1.9,0.9-4.1,0.1-5-1.8c-0.9-1.9-0.1-4.1,1.8-5c13.7-6.5,29.2-4.9,37.2-3.4
						c5.5,1,10.2,2.9,14.4,4.6c3.5,1.4,6.7,2.7,10,3.4c11.1,2.3,21.9,0.8,32.3-4.5c5.7-2.9,12.8-4.6,20.5-4.8
						c2.1-0.1,3.8,1.6,3.9,3.6c0.1,2.1-1.6,3.8-3.6,3.9c-6.6,0.2-12.6,1.6-17.3,4C673.5,1047.1,664.9,1049.2,656.1,1049.2z"/>
				</g>
			</g>
		</g>
		<g>
			<path class="st1" d="M675.3,413.2H548.5c-12.9,0-23.5-10.5-23.5-23.5c0-11.4,8.2-20.9,19-23c-0.4-2-0.6-4-0.6-6
				c0-16.4,13.3-29.7,29.7-29.7c3.5,0,7.1,0.6,10.4,1.9c7.1-13.7,21.1-22.4,36.8-22.4c15.6,0,29.7,8.6,36.8,22.3
				c3.3-1.2,6.8-1.8,10.3-1.8c16.4,0,29.7,13.3,29.7,29.7c0,1.9-0.2,3.7-0.5,5.6h11.4c12.9,0,23.5,10.5,23.5,23.5
				c0,8.8-4.8,16.8-12.6,20.8c-1.8,1-4.1,0.2-5.1-1.6c-1-1.8-0.2-4.1,1.6-5.1c5.3-2.8,8.6-8.2,8.6-14.2c0-8.8-7.1-15.9-15.9-15.9
				h-16.4c-1.2,0-2.4-0.6-3.1-1.6s-0.9-2.3-0.4-3.5c1-2.6,1.5-5.3,1.5-8c0-12.2-9.9-22.1-22.1-22.1c-3.7,0-7.1,0.9-10.4,2.6
				c-0.9,0.5-2,0.6-3,0.2c-1-0.4-1.8-1.1-2.2-2.1c-5.2-12.9-17.6-21.2-31.4-21.2c-13.9,0-26.2,8.3-31.5,21.2c-0.4,1-1.2,1.8-2.2,2.1
				c-1,0.4-2.1,0.3-3.1-0.2c-3.2-1.7-6.8-2.6-10.4-2.6c-12.2,0-22.1,9.9-22.1,22.1c0,2.8,0.5,5.5,1.5,8.1c0.5,1.3,0.2,2.9-0.7,3.9
				c-1,1-2.4,1.4-3.7,1.1c-8.5,0.3-15.4,7.3-15.4,15.9c0,8.8,7.2,15.9,15.9,15.9h126.7c2.1,0,3.8,1.7,3.8,3.8
				C679,411.5,677.4,413.2,675.3,413.2z"/>
		</g>
		<g>
			<path class="st1" d="M1080,267.1c-0.8,2-1.3,4.1-1.3,6.4c0,2.3,0.5,4.4,1.3,6.4v12.1c-5.4-4.3-8.8-11-8.8-18.5
				c0-7.5,3.5-14.1,8.8-18.5V267.1z"/>
		</g>
		<g>
			<g>
				<path class="st1" d="M642.9,72.9H538.3c-2.1,0-3.8-1.7-3.8-3.8c0-2.1,1.7-3.8,3.8-3.8h104.5c2.1,0,3.8,1.7,3.8,3.8
					C646.6,71.2,645,72.9,642.9,72.9z"/>
			</g>
			<g>
				<path class="st1" d="M700.7,108.2h-18.1c-2.1,0-3.8-1.7-3.8-3.8c0-2.1,1.7-3.8,3.8-3.8h18.1c2.1,0,3.8,1.7,3.8,3.8
					C704.5,106.5,702.8,108.2,700.7,108.2z"/>
			</g>
			<g>
				<path class="st1" d="M660.3,108.2h-47.4c-2.1,0-3.8-1.7-3.8-3.8c0-2.1,1.7-3.8,3.8-3.8h47.4c2.1,0,3.8,1.7,3.8,3.8
					C664.1,106.5,662.4,108.2,660.3,108.2z"/>
			</g>
		</g>
		<g>
			<g>
				<path class="st1" d="M993.8,130.2h-84.1c-2.1,0-3.8-1.7-3.8-3.8c0-2.1,1.7-3.8,3.8-3.8h84.1c2.1,0,3.8,1.7,3.8,3.8
					C997.6,128.5,995.9,130.2,993.8,130.2z"/>
			</g>
			<g>
				<path class="st1" d="M1040.3,158.6h-14.6c-2.1,0-3.8-1.7-3.8-3.8c0-2.1,1.7-3.8,3.8-3.8h14.6c2.1,0,3.8,1.7,3.8,3.8
					C1044.1,156.9,1042.4,158.6,1040.3,158.6z"/>
			</g>
			<g>
				<path class="st1" d="M1007.8,158.6h-38.1c-2.1,0-3.8-1.7-3.8-3.8c0-2.1,1.7-3.8,3.8-3.8h38.1c2.1,0,3.8,1.7,3.8,3.8
					C1011.6,156.9,1009.9,158.6,1007.8,158.6z"/>
			</g>
		</g>
		<g>
			<g>
				<path class="st1" d="M88.4,112.6H13c-2.1,0-3.8-1.7-3.8-3.8c0-2.1,1.7-3.8,3.8-3.8h75.3c2.1,0,3.8,1.7,3.8,3.8
					C92.1,110.9,90.4,112.6,88.4,112.6z"/>
			</g>
			<g>
				<path class="st1" d="M38.4,140.2c0,2.1-1.7,3.8-3.8,3.8H0.5c-0.2,0-0.3,0-0.5,0v-7.5c0.2,0,0.3,0,0.5,0h34.2
					C36.7,136.5,38.4,138.1,38.4,140.2z"/>
			</g>
		</g>
		<g>
			<g>
				<path class="st1" d="M307.9,208.1H173.1c-13.6,0-24.7-11.1-24.7-24.7c0-12.1,8.7-22.2,20.2-24.3c-0.5-2.2-0.7-4.4-0.7-6.6
					c0-17.3,14.1-31.3,31.3-31.3c3.8,0,7.6,0.7,11.2,2.1c7.5-14.6,22.4-23.9,39-23.9c16.6,0,31.5,9.2,39,23.8c3.5-1.3,7.3-2,11-2
					c17.3,0,31.3,14.1,31.3,31.3c0,2.1-0.2,4.1-0.6,6.2h12.4c13.6,0,24.7,11.1,24.7,24.7c0,9.3-5.1,17.7-13.3,22
					c-1.8,1-4.1,0.2-5.1-1.6c-1-1.8-0.2-4.1,1.6-5.1c5.7-3,9.3-8.8,9.3-15.3c0-9.5-7.7-17.2-17.2-17.2h-17.4c-1.2,0-2.4-0.6-3.1-1.6
					c-0.7-1-0.9-2.3-0.4-3.5c1.1-2.8,1.6-5.7,1.6-8.6c0-13.1-10.7-23.8-23.8-23.8c-3.9,0-7.7,0.9-11.1,2.8c-0.9,0.5-2,0.6-3,0.2
					c-1-0.4-1.8-1.1-2.2-2.1c-5.6-13.8-18.8-22.7-33.7-22.7c-14.9,0-28.1,8.9-33.7,22.7c-0.4,1-1.2,1.8-2.2,2.1
					c-1,0.4-2.1,0.3-3.1-0.2c-3.4-1.8-7.3-2.8-11.2-2.8c-13.1,0-23.8,10.7-23.8,23.8c0,3,0.6,5.9,1.7,8.7c0.5,1.3,0.2,2.9-0.7,3.9
					c-1,1-2.4,1.5-3.8,1.1c-9.2,0.3-16.7,7.9-16.7,17.2c0,9.5,7.7,17.2,17.2,17.2h134.9c2.1,0,3.8,1.7,3.8,3.8
					C311.7,206.4,310,208.1,307.9,208.1z"/>
			</g>
			<g>
				<path class="st1" d="M392.3,271.2c-7.9,0-15.9-1.5-23.5-4.6c-15.3-6.3-27.3-18.1-33.8-33.4c-0.8-1.9,0.1-4.1,2-4.9
					c1.9-0.8,4.1,0.1,4.9,2c5.6,13.4,16.2,23.9,29.7,29.4c13.5,5.5,28.3,5.4,41.7-0.2c13.4-5.6,23.9-16.2,29.4-29.7
					c5.5-13.5,5.4-28.3-0.2-41.7c-11.6-27.7-43.7-40.8-71.4-29.2c-1.9,0.8-4.1-0.1-4.9-2c-0.8-1.9,0.1-4.1,2-4.9
					c15.3-6.4,32.2-6.5,47.5-0.2c15.3,6.3,27.3,18.1,33.8,33.4c13.3,31.6-1.6,68-33.2,81.3C408.6,269.6,400.4,271.2,392.3,271.2z"/>
			</g>
			<g>
				<path class="st1" d="M412.3,327.5c-1.7,0-3.3-1.2-3.7-3l-8.1-37.5c-0.4-2,0.9-4,2.9-4.5c2-0.4,4,0.9,4.5,2.9l8.1,37.4
					c0.4,2-0.9,4-2.9,4.5C412.8,327.4,412.5,327.5,412.3,327.5z"/>
			</g>
			<g>
				<path class="st1" d="M376.5,136.5c-1.7,0-3.3-1.2-3.7-3l-8.1-37.4c-0.4-2,0.9-4,2.9-4.5c2-0.4,4,0.9,4.5,2.9l8.1,37.4
					c0.4,2-0.9,4-2.9,4.5C377,136.5,376.8,136.5,376.5,136.5z"/>
			</g>
			<g>
				<path class="st1" d="M325.2,310.1c-0.7,0-1.5-0.2-2.1-0.7c-1.7-1.2-2.1-3.5-1-5.2l22.3-32.4c1.2-1.7,3.5-2.1,5.2-1
					c1.7,1.2,2.1,3.5,1,5.2l-22.3,32.4C327.6,309.6,326.4,310.1,325.2,310.1z"/>
			</g>
			<g>
				<path class="st1" d="M428.2,146.9c-0.7,0-1.5-0.2-2.1-0.7c-1.7-1.2-2.1-3.5-1-5.2l22.3-32.4c1.2-1.7,3.5-2.1,5.2-1
					c1.7,1.2,2.1,3.5,1,5.2l-22.3,32.4C430.6,146.3,429.4,146.9,428.2,146.9z"/>
			</g>
			<g>
				<path class="st1" d="M472.5,273.8c-0.7,0-1.4-0.2-2-0.6L453.1,262c-1.7-1.1-2.2-3.5-1.1-5.2c1.1-1.7,3.5-2.2,5.2-1.1l17.3,11.2
					c1.7,1.1,2.2,3.5,1.1,5.2C474.9,273.2,473.7,273.8,472.5,273.8z"/>
			</g>
			<g>
				<path class="st1" d="M468.6,195.8c-1.7,0-3.2-1.1-3.6-2.8c-0.5-2,0.7-4.1,2.7-4.6l48-12.2c2-0.5,4.1,0.7,4.6,2.7
					c0.5,2-0.7,4.1-2.7,4.6l-48,12.2C469.2,195.7,468.9,195.8,468.6,195.8z"/>
			</g>
		</g>
		<g>
			<g>
				<g>
					<path class="st1" d="M1080,993.9v-7.1c-1.5,0.7-3.1,1.1-4.7,1.3l0.1,1.9l0.1,1.9l0.1,1.9c0.4,0.9,1,1.8,1.6,2.5
						c0.8,1.1,1.8,2,2.9,2.9v-4.4c0.2,0,0.4-0.1,0.6-0.2C1080.4,994.4,1080.2,994.2,1080,993.9z M1080,942.1
						c-1.1,0.8-2.1,1.7-2.9,2.8v0c-2,2.5-3.1,5.7-3.1,9.1v0.1l0.1,3.7v0.1c2.1,0.1,4.1,0.5,5.9,1.4v-8c-0.6-0.2-1.2-0.3-1.8-0.4
						c0.4-1.3,1-2.5,1.8-3.5V942.1z"/>
					<path class="st1" d="M1080,937.7v9.7c-0.8,1-1.4,2.2-1.8,3.5c-0.3,1-0.5,2.1-0.5,3.2c0,0.2,0,0.4,0,0.5
						c-0.2,1.8-1.8,3.2-3.6,3.2c0,0-0.1,0-0.1,0c-2.1,0-3.8-1.7-3.8-3.8c0-3.7,1-7.1,2.9-9.9c0.8-1.3,1.7-2.4,2.8-3.5
						C1077.1,939.5,1078.5,938.5,1080,937.7z"/>
					<path class="st1" d="M1080.6,994.6c-0.2,0.1-0.4,0.1-0.6,0.2v8.8c-1.5-0.8-2.9-1.8-4.2-3.1c-1.1-1-2-2.2-2.8-3.5v0
						c-0.3-0.5-0.6-1.1-0.9-1.7c-0.9-1.9-0.1-4.1,1.7-5c0.5-0.2,1-0.4,1.5-0.4c1.2,0,2.3,0.5,3,1.4c0.2,0.2,0.4,0.5,0.5,0.8
						c0.3,0.7,0.7,1.3,1.1,1.8C1080.2,994.2,1080.4,994.4,1080.6,994.6z"/>
				</g>
				<g>
					<path class="st1" d="M1027.3,951l0-3.8l0-3.8c-14.3,2.3-25.3,14.8-25.3,29.7c0,3.1,0.5,6.1,1.4,8.9h8c-1.2-2.7-1.8-5.8-1.8-8.9
						C1009.5,962.2,1017.1,953.2,1027.3,951z M1075.5,993.8l-0.1-1.9l-0.1-1.9l-0.1-1.9c-0.5,0.1-1,0.1-1.5,0.1
						c-2.1,0-3.8,1.7-3.8,3.8c0,7.9-6.1,14.5-13.9,15.1c-0.4,0-0.8,0-1.2,0c-0.9,0-1.7-0.1-2.5-0.2c-1.3-0.2-2.6-0.6-3.8-1.2
						c-3.5-1.6-6.3-4.5-7.8-8.2c-0.6-1.5-2-2.4-3.5-2.4c-0.2,0-0.5,0-0.7,0.1c-1.5,0.3-3,0.4-4.5,0.4c-6,0-11.4-2.3-15.4-6.1
						c-2.2-2.1-4.1-4.7-5.3-7.5c-1.2-2.7-1.8-5.8-1.8-8.9c0-10.8,7.6-19.9,17.8-22.1l0-3.8l0-3.8c-14.3,2.3-25.3,14.8-25.3,29.7
						c0,3.1,0.5,6.1,1.4,8.9c0.8,2.7,2,5.2,3.6,7.5c5.4,8.2,14.7,13.6,25.2,13.6c1,0,2,0,3-0.2c2.9,5.3,7.8,9.1,13.5,10.7
						c1.2,0.4,2.5,0.6,3.8,0.7c0.8,0.1,1.7,0.1,2.5,0.1c0.4,0,0.8,0,1.2,0c8.9-0.5,16.5-6.1,19.7-14c0.5-1.3,1-2.8,1.3-4.2
						C1076.5,995.5,1075.9,994.7,1075.5,993.8z M1080,993.9v-7.1c-1.5,0.7-3.1,1.1-4.7,1.3c-0.5,0.1-1,0.1-1.5,0.1
						c-2.1,0-3.8,1.7-3.8,3.8c0,7.9-6.1,14.5-13.9,15.1c-0.4,0-0.8,0-1.2,0c-0.9,0-1.7-0.1-2.5-0.2c-1.3-0.2-2.6-0.6-3.8-1.2
						c-3.5-1.6-6.3-4.5-7.8-8.2c-0.6-1.5-2-2.4-3.5-2.4c-0.2,0-0.5,0-0.7,0.1c-1.5,0.3-3,0.4-4.5,0.4c-6,0-11.4-2.3-15.4-6.1
						c-2.2-2.1-4.1-4.7-5.3-7.5c-1.2-2.7-1.8-5.8-1.8-8.9c0-10.8,7.6-19.9,17.8-22.1c1.6-0.3,3.1-0.5,4.8-0.5c0.8,0,1.7,0.1,2.7,0.2
						c0.2,0,0.4,0.1,0.7,0.1c1,0.2,2.1-0.1,2.9-0.7c0.8-0.6,1.3-1.6,1.4-2.6c0.8-7.7,7.3-13.5,15.1-13.5c8.3,0,15.1,6.8,15.1,15.1
						c0,1.4-0.2,2.8-0.6,4.1c-0.3,1.2-0.1,2.4,0.7,3.4c0.7,1,1.9,1.5,3.1,1.4c0.1,0,0.3,0,0.4,0l0.2,0c0.1,0,0.3,0,0.4,0
						c2.1,0.1,4.1,0.5,5.9,1.4v-8c-0.6-0.2-1.2-0.3-1.8-0.4c-0.3,0-0.5-0.1-0.8-0.1c0-0.6,0.1-1.1,0.1-1.7c0-1.4-0.1-2.8-0.4-4.1v0
						c-0.3-1.5-0.7-2.9-1.2-4.2c-1.6-4-4.2-7.4-7.6-9.9c-2.2-1.6-4.7-2.8-7.4-3.6c-1.9-0.5-4-0.8-6.1-0.8c-8.7,0-16.3,4.9-20.1,12.1
						c-0.7,1.4-1.3,2.9-1.8,4.5c-0.3,0-0.6,0-0.9,0c-1.6,0-3.2,0.1-4.8,0.4c-14.3,2.3-25.3,14.8-25.3,29.7c0,3.1,0.5,6.1,1.4,8.9
						c0.8,2.7,2,5.2,3.6,7.5c5.4,8.2,14.7,13.6,25.2,13.6c1,0,2,0,3-0.2c2.9,5.3,7.8,9.1,13.5,10.7c1.2,0.4,2.5,0.6,3.8,0.7
						c0.8,0.1,1.7,0.1,2.5,0.1c0.4,0,0.8,0,1.2,0c8.9-0.5,16.5-6.1,19.7-14c0.5-1.3,1-2.8,1.3-4.2c0.1-0.3,0.1-0.6,0.2-0.9
						c0.9-0.1,1.9-0.4,2.8-0.6c0.2,0,0.4-0.1,0.6-0.2C1080.4,994.4,1080.2,994.2,1080,993.9z M1075.5,993.8l-0.1-1.9l-0.1-1.9
						l-0.1-1.9c-0.5,0.1-1,0.1-1.5,0.1c-2.1,0-3.8,1.7-3.8,3.8c0,7.9-6.1,14.5-13.9,15.1c-0.4,0-0.8,0-1.2,0c-0.9,0-1.7-0.1-2.5-0.2
						c-1.3-0.2-2.6-0.6-3.8-1.2c-3.5-1.6-6.3-4.5-7.8-8.2c-0.6-1.5-2-2.4-3.5-2.4c-0.2,0-0.5,0-0.7,0.1c-1.5,0.3-3,0.4-4.5,0.4
						c-6,0-11.4-2.3-15.4-6.1c-2.2-2.1-4.1-4.7-5.3-7.5c-1.2-2.7-1.8-5.8-1.8-8.9c0-10.8,7.6-19.9,17.8-22.1l0-3.8l0-3.8
						c-14.3,2.3-25.3,14.8-25.3,29.7c0,3.1,0.5,6.1,1.4,8.9c0.8,2.7,2,5.2,3.6,7.5c5.4,8.2,14.7,13.6,25.2,13.6c1,0,2,0,3-0.2
						c2.9,5.3,7.8,9.1,13.5,10.7c1.2,0.4,2.5,0.6,3.8,0.7c0.8,0.1,1.7,0.1,2.5,0.1c0.4,0,0.8,0,1.2,0c8.9-0.5,16.5-6.1,19.7-14
						c0.5-1.3,1-2.8,1.3-4.2C1076.5,995.5,1075.9,994.7,1075.5,993.8z M1027.3,951l0-3.8l0-3.8c-14.3,2.3-25.3,14.8-25.3,29.7
						c0,3.1,0.5,6.1,1.4,8.9h8c-1.2-2.7-1.8-5.8-1.8-8.9C1009.5,962.2,1017.1,953.2,1027.3,951z"/>
				</g>
				<g>
					<line class="st2" x1="1052.3" y1="992.8" x2="1052.3" y2="1029.8"/>
					<path class="st1" d="M1056.1,992.8v37c0,0.1,0,0.1,0,0.2c-0.1,2-1.7,3.6-3.8,3.6c-2,0-3.7-1.6-3.8-3.6c0-0.1,0-0.1,0-0.2v-37
						c0-2.1,1.7-3.8,3.8-3.8C1054.4,989,1056.1,990.7,1056.1,992.8z"/>
				</g>
			</g>
			<g>
				<path class="st1" d="M1034.6,986.2c0,1.4-0.8,2.7-2,3.3c-0.5,0.3-1.1,0.5-1.8,0.5c-1.3,0-2.7-0.2-3.9-0.5
					c-4.4-1-8.2-3.8-10.6-7.5c-1.7-2.6-2.7-5.8-2.7-9.1c0-8.2,5.8-15.1,13.5-16.7c1.2-0.2,2.3-0.4,3.6-0.4c1.8,0,3.2,1.2,3.6,2.8
					c0.1,0.3,0.1,0.6,0.1,1c0,2.1-1.7,3.8-3.8,3.8c-5.3,0-9.6,4.3-9.6,9.6c0,4.3,2.8,7.9,6.7,9.1c0.9,0.3,1.9,0.5,2.9,0.5
					C1033,982.4,1034.6,984.1,1034.6,986.2z"/>
			</g>
		</g>
		<g>
			<g>
				<g>
					<path class="st1" d="M827.8,953.5c-1,0-2,0.1-3,0.3c-0.8-7.3-6.8-13.1-14.1-13.1c-2.3,0-4.5,0.6-6.5,1.6
						c-1.8,0.9-3.3,2.3-4.6,3.9c-1,1.3-1.8,2.7-2.3,4.2c-0.5,1.5-0.8,3.2-0.8,4.9v0.1l0.1,3.6v0.1c2.5,0.1,4.8,0.7,6.9,1.9
						c4.7,2.6,7.8,7.6,7.8,13.3c0,7.8-6,14.3-13.6,15l0.1,1.9l0.1,1.8l0.1,1.9c0.4,0.9,1,1.8,1.6,2.5c1.9,2.5,4.6,4.3,7.6,5.1
						c1.1,0.3,2.3,0.4,3.5,0.4c1.4,0,2.7-0.2,4-0.6h0c4.2-1.3,7.6-4.5,9.2-8.7c1.3,0.3,2.6,0.4,3.9,0.4c10.9,0,19.8-9.1,19.8-20.4
						C847.5,962.6,838.7,953.5,827.8,953.5z M827.8,990.5c-1,0-2.1-0.1-3.1-0.3c-1.8-0.4-3.6,0.6-4.3,2.4c-1.6,4.1-5.4,6.8-9.7,6.8
						c-2.9,0-5.7-1.3-7.6-3.4c9.2-2.9,15.8-11.5,15.8-21.6c0-9.8-6.3-18.2-15.1-21.4c-1-0.4-2-0.7-3.1-0.9c0.6-2,1.8-3.8,3.3-5.1
						c1.8-1.6,4.1-2.5,6.6-2.5c5.4,0,9.8,4.2,10.4,9.7c0.1,1,0.6,2,1.4,2.6s1.9,0.9,2.9,0.7c0.9-0.1,1.7-0.2,2.4-0.2
						c8.8,0,16,7.5,16,16.6C843.8,983,836.6,990.5,827.8,990.5z"/>
					<path class="st1" d="M851.3,973.9c0,13.3-10.6,24.1-23.6,24.1c-0.6,0-1.1,0-1.7-0.1c-2.5,4.3-6.6,7.4-11.4,8.5
						c-1.2,0.3-2.5,0.4-3.8,0.5c-0.1,0-0.2,0-0.2,0c-1.2,0-2.4-0.1-3.5-0.4c-3.4-0.7-6.4-2.3-8.9-4.7c-1-1-2-2.2-2.8-3.5v0
						c-0.3-0.5-0.6-1.1-0.9-1.7c-0.9-1.9-0.1-4.1,1.7-5c0.5-0.2,1-0.4,1.5-0.4c1.2,0,2.3,0.4,3,1.4c0.2,0.2,0.4,0.5,0.5,0.8
						c0.5,0.9,1,1.8,1.7,2.5c1.9,2.2,4.7,3.4,7.6,3.4c4.3,0,8.1-2.7,9.7-6.8c0.7-1.7,2.5-2.7,4.3-2.3c1,0.2,2.1,0.3,3.1,0.3
						c8.8,0,16-7.5,16-16.6s-7.2-16.6-16-16.6c-0.7,0-1.5,0.1-2.4,0.2c-1,0.2-2.1-0.1-2.9-0.7c-0.8-0.6-1.3-1.6-1.4-2.6
						c-0.6-5.5-5-9.7-10.4-9.7c-2.5,0-4.8,0.9-6.7,2.5v0c-1.5,1.3-2.7,3.1-3.3,5.1c-0.3,1-0.5,2.1-0.5,3.2c0,0.2,0,0.4,0,0.5
						c-0.2,1.8-1.7,3.2-3.6,3.2c0,0-0.1,0-0.1,0c-0.1,0-0.3,0-0.4,0c-1.9-0.2-3.4-1.8-3.4-3.7c0-3.7,1-7.1,2.9-9.9
						c0.3-0.5,0.7-1,1-1.5c0.5-0.7,1.1-1.4,1.8-2c1.7-1.6,3.7-3,6-3.8c2-0.8,4.1-1.2,6.3-1.2c8,0,14.8,5.3,17.1,12.8
						C840.8,949.7,851.3,960.6,851.3,973.9z"/>
				</g>
				<g>
					<path class="st1" d="M803.8,952.9c-1-0.4-2-0.7-3.1-0.9c-0.3-0.1-0.5-0.1-0.8-0.2c0-0.5,0.1-1.1,0.1-1.6c0-1.4-0.1-2.8-0.4-4.1
						c-0.3-1.5-0.7-2.9-1.2-4.2c-0.4-1.1-1-2.2-1.6-3.2v0c-3.5-5.8-9.4-9.8-16.3-10.8c-1-0.2-2.1-0.2-3.2-0.2c-1.5,0-3,0.2-4.4,0.4
						c-8.4,1.6-15.2,7.9-17.5,16.2c-0.3,0-0.6,0-0.9,0c-16.6,0-30.1,13.5-30.1,30.1c0,16.6,13.5,30.1,30.1,30.1c1,0,2-0.1,3-0.2
						c2.9,5.3,7.8,9.1,13.5,10.7c1.2,0.4,2.5,0.6,3.8,0.7c0.8,0.1,1.7,0.1,2.5,0.1c0.4,0,0.8,0,1.2,0c8.9-0.5,16.5-6.1,19.7-14
						c0.6-1.4,1-2.8,1.3-4.2c0.1-0.3,0.1-0.6,0.2-0.9c1.1-0.2,2.3-0.4,3.3-0.8c9.2-2.9,15.8-11.5,15.8-21.6
						C818.9,964.5,812.6,956.1,803.8,952.9z M797.8,989.3c-0.5,0.1-1,0.1-1.5,0.1c-2.1,0-3.8,1.7-3.8,3.8c0,7.9-6.1,14.5-13.9,15.1
						c-0.4,0-0.8,0-1.2,0c-0.9,0-1.7-0.1-2.5-0.2c-1.3-0.2-2.6-0.6-3.8-1.2c-3.5-1.6-6.3-4.5-7.8-8.2c-0.6-1.5-2-2.4-3.5-2.4
						c-0.2,0-0.5,0-0.7,0.1c-1.5,0.3-3,0.4-4.5,0.4c-12.4,0-22.6-10.1-22.6-22.6s10.1-22.6,22.6-22.6c1,0,2.1,0.1,3.4,0.3
						c1,0.2,2.1-0.1,2.9-0.7c0.8-0.6,1.3-1.6,1.4-2.6c0.6-6.1,4.8-11,10.3-12.8c1.5-0.5,3.1-0.8,4.8-0.8c1,0,1.9,0.1,2.8,0.3
						c7,1.3,12.3,7.5,12.3,14.9c0,1.4-0.2,2.8-0.6,4.1c-0.3,1.2-0.1,2.4,0.7,3.4c0.8,1,1.9,1.5,3.1,1.4c0.1,0,0.3,0,0.4,0h0l0.2,0
						c0.1,0,0.3,0,0.4,0c2.5,0.1,4.8,0.7,6.9,1.9c4.7,2.6,7.8,7.6,7.8,13.3C811.3,982.1,805.4,988.6,797.8,989.3z"/>
				</g>
				<g>
					<line class="st2" x1="774.8" y1="994.1" x2="774.8" y2="1031.1"/>
					<path class="st1" d="M778.5,994.1v37c0,2.1-1.7,3.8-3.8,3.8c-2.1,0-3.8-1.7-3.8-3.8v-37c0-2.1,1.7-3.8,3.8-3.8
						C776.8,990.3,778.5,992,778.5,994.1z"/>
				</g>
				<g>
					<line class="st2" x1="810.9" y1="1003.1" x2="810.9" y2="1031.1"/>
					<path class="st1" d="M810.9,1034.8c-2.1,0-3.8-1.7-3.8-3.8v-27.9c0-2.1,1.7-3.8,3.8-3.8c2.1,0,3.8,1.7,3.8,3.8v27.9
						C814.7,1033.1,813,1034.8,810.9,1034.8z"/>
				</g>
			</g>
			<g>
				<path class="st1" d="M743.8,974.1c0,5.3,4.3,9.6,9.6,9.6v3.8c-7.4,0-13.4-6-13.4-13.4c0-7.4,6-13.4,13.4-13.4v3.8
					C748.1,964.5,743.8,968.8,743.8,974.1z"/>
				<path class="st1" d="M757.1,987.5c0,2.1-1.7,3.8-3.8,3.8c-9.4,0-17.1-7.7-17.1-17.1s7.7-17.1,17.1-17.1c2.1,0,3.8,1.7,3.8,3.8
					c0,2.1-1.7,3.8-3.8,3.8c-5.3,0-9.6,4.3-9.6,9.6c0,5.3,4.3,9.6,9.6,9.6C755.4,983.7,757.1,985.4,757.1,987.5z"/>
			</g>
		</g>
		<g>
			<g>
				<path class="st1" d="M45,315.9c-2,0-3.7-1.6-3.8-3.7c-0.1-4.7-2-9-5.4-12.2c-3.4-3.2-7.8-5-12.4-4.9c-2,0.1-3.8-1.6-3.8-3.7
					c0-2.1,1.6-3.8,3.7-3.8c13.8-0.2,25.2,10.7,25.5,24.5C48.9,314.2,47.2,315.9,45,315.9C45.1,315.9,45.1,315.9,45,315.9z"/>
			</g>
			<g>
				<path class="st1" d="M45,315.9c-2,0-3.7-1.6-3.8-3.7C41,298.5,52,287,65.8,286.8c2.1,0,3.8,1.6,3.8,3.7c0,2.1-1.6,3.8-3.7,3.8
					c-4.7,0.1-9,2-12.2,5.4c-3.2,3.4-5,7.8-4.9,12.4C48.9,314.2,47.2,315.9,45,315.9C45.1,315.9,45.1,315.9,45,315.9z"/>
			</g>
		</g>
		<g>
			<g>
				<path class="st1" d="M351.5,447.9c-2,0-3.7-1.6-3.8-3.7c-0.1-4.7-2-9-5.4-12.2c-3.4-3.2-7.8-5-12.4-4.9c0,0-0.1,0-0.1,0
					c-2,0-3.7-1.6-3.8-3.7c0-2.1,1.6-3.8,3.7-3.8c6.7-0.1,13,2.3,17.8,7c4.8,4.6,7.5,10.8,7.7,17.5
					C355.3,446.2,353.7,447.9,351.5,447.9C351.6,447.9,351.6,447.9,351.5,447.9z"/>
			</g>
			<g>
				<path class="st1" d="M351.5,447.9c-2,0-3.7-1.6-3.8-3.7c-0.3-13.8,10.7-25.2,24.5-25.5c0,0,0.1,0,0.1,0c2,0,3.7,1.6,3.8,3.7
					c0,2.1-1.6,3.8-3.7,3.8c-9.6,0.2-17.3,8.2-17.1,17.8C355.3,446.2,353.7,447.9,351.5,447.9C351.6,447.9,351.6,447.9,351.5,447.9z
					"/>
			</g>
		</g>
		<g>
			<path class="st1" d="M313.9,671.9c-1.5,0-2.9-0.9-3.5-2.3c-0.8-1.9,0.1-4.2,2-5c35.5-15.4,67.4-32.9,94.7-52
				c30.7-21.5,60.7-47.2,89.4-76.5c1.5-1.5,3.9-1.5,5.4-0.1c1.5,1.5,1.5,3.9,0.1,5.4c-29,29.6-59.4,55.7-90.5,77.4
				c-27.7,19.4-60,37.2-96,52.7C314.9,671.8,314.4,671.9,313.9,671.9z"/>
		</g>
	</g>
	<rect class="st3" width="1080" height="1131"/>
	<path class="st1" d="M1080,993.9c0.2,0.2,0.4,0.5,0.6,0.7c-0.2,0.1-0.4,0.1-0.6,0.2V993.9z"/>
</g>
<g id="Ebene_2">
	<rect x="58.5" y="483" class="st2" width="963" height="187.5"/>
	<text transform="matrix(1 0 0 1 153.835 656.8794)" class="st1 st4 st5 st6">TOKIO</text>
</g>
</svg>
