<?xml version="1.0" encoding="utf-8"?>
<!-- Generator: Adobe Illustrator 24.0.1, SVG Export Plug-In . SVG Version: 6.00 Build 0)  -->
<svg version="1.1" id="Ebene_1" xmlns="http://www.w3.org/2000/svg" xmlns:xlink="http://www.w3.org/1999/xlink" x="0px" y="0px"
	 viewBox="0 0 1080 1131" style="enable-background:new 0 0 1080 1131;" xml:space="preserve">
<style type="text/css">
	.st0{fill:#EB5B30;}
</style>
<path class="st0" d="M1050.05,1001.17c23.67,23.65,23.67,62.04,0,85.68c-23.66,23.67-62.03,23.67-85.68,0L540.3,662.79
	l-424.67,424.66c-23.65,23.67-62.02,23.67-85.68,0c-23.66-23.64-23.66-62.03,0-85.68l435.97-435.96L29.95,129.83
	c-23.66-23.65-23.66-62.04,0-85.68c23.66-23.67,62.03-23.67,85.68,0L539.7,468.22L964.37,43.55c23.65-23.67,62.02-23.67,85.68,0
	c23.67,23.65,23.67,62.04,0,85.68L614.08,565.2L1050.05,1001.17z"/>
</svg>
